<?xml version="1.0" encoding="utf-8"?>
<!-- Generator: Adobe Illustrator 27.2.0, SVG Export Plug-In . SVG Version: 6.00 Build 0)  -->
<svg version="1.1" xmlns="http://www.w3.org/2000/svg" xmlns:xlink="http://www.w3.org/1999/xlink" x="0px" y="0px"
	 viewBox="0 0 640 640" style="enable-background:new 0 0 640 640;" xml:space="preserve">
<style type="text/css">
	.st0{fill:#FCCD0D;}
	.st1{fill:#23ACBE;}
	.st2{fill:#F45EAD;}
	.st3{fill:#176FAE;}
	.st4{opacity:0.4;fill:#FFFFFF;stroke:#000000;stroke-width:0.1001;stroke-miterlimit:10;}
	.st5{fill:#FFFFFF;}
	.st6{opacity:0.74;}
	.st7{opacity:0.7;fill:#F2F2F2;}
	.st8{fill:#AAAAAA;}
	.st9{fill:#414041;}
	.st10{fill:#F34280;}
	.st11{fill:#FE910D;}
	.st12{fill:#096BBD;}
	.st13{fill:#F83C6F;}
	.st14{fill:#F3407A;}
	.st15{fill:#042670;}
	.st16{fill:#0463B0;}
	.st17{fill:#53A641;}
	.st18{fill:#0363B5;}
	.st19{fill:#04942C;}
	.st20{fill:#7DA2F4;}
	.st21{fill:#FDFDFD;}
</style>
<g id="background">
</g>
<g id="logo">
	<g>
		<circle class="st7" cx="320" cy="320" r="320"/>
		<path class="st8" d="M6.96,393.51c1.22,0.98,0.99,2.28,0.82,3.57c-0.31-0.58-0.58-1.15-1.04-1.67
			C6.25,394.87,5.9,394.02,6.96,393.51z"/>
		<path class="st8" d="M4.33,279.81c0.69,0.86,0.5,1.6-0.28,2.28C3.81,281.29,3.94,280.53,4.33,279.81z"/>
		<path class="st8" d="M2.05,356.56c0.54,0.44,0.62,0.91,0.1,1.42C1.82,357.52,1.71,357.06,2.05,356.56z"/>
		<path class="st8" d="M4.18,374.91c0.56,0.46,0.82,0.95,0.15,1.54C3.97,375.97,3.93,375.46,4.18,374.91z"/>
		<path class="st9" d="M5.55,271.25c0.21,0.85,0.16,1.65-0.48,2.32C4.78,272.7,4.77,271.89,5.55,271.25z"/>
		<path class="st8" d="M4.86,378.65c0.33-0.07,0.64-0.05,0.6,0.37c-0.01,0.11-0.32,0.19-0.49,0.29c-0.07-0.14-0.16-0.27-0.21-0.42
			C4.74,378.83,4.82,378.74,4.86,378.65z"/>
		<path class="st8" d="M6.94,264.73c0.19,0.39,0.14,0.7-0.27,0.92C6.43,265.25,6.57,264.96,6.94,264.73z"/>
		<path class="st10" d="M407.16,340.06c-0.5-0.38-1.08-0.47-1.68-0.4c-10.54,1.16-21.05,0.71-31.49-0.89
			c-5.85-0.9-8.08-1.75-8.41-8.96c-0.15-3.26,0.43-6.55-0.09-10.06c-2.22,0.62-2.7,2.43-3.34,3.96c-0.63,1.5-1.03,3.11-1.39,4.7
			c-0.59,2.62-2.24,4.19-4.8,4.53c-2.69,0.36-4.92-0.81-6.38-3.05c-1.16-1.78-1.87-3.78-1.78-6.02
			c0.54-13.58,4.62-25.65,14.82-35.14c0.77-0.72,1.66-1.34,2.59-1.84c2.33-1.26,2.96-1.16,4.47,0.93
			c7.16,9.94,17.08,12.44,28.49,10.24c3.6-0.69,6.87-2.45,9.85-5.02c2.1-1.82,3.72-3.72,4.89-6.07c7.65,2.46,12.58,7.79,16.4,14.35
			c4.28,7.36,6.5,15.33,6.86,23.82c0.08,1.8-0.12,3.59-1.09,5.14c-1.96,3.12-5.18,3.19-8.24,2.77c-2.5-0.35-3.91-2.22-4.35-4.84
			c-0.25-1.48-0.92-2.88-1.4-4.32c0.11-0.9-0.47-1.57-0.79-2.32c0.02-0.52-0.17-0.94-0.73-0.92c-0.39,0.01-0.5,0.38-0.44,0.75
			c0.24,0.83,0.48,1.66,0.72,2.49c0.17,1.51,0.45,3.02,0.48,4.54c0.11,5.71-2.59,9.11-8.13,10.36c-1.37,0.31-2.83,0.29-4.07,1.07
			c-0.03-0.36-0.2-0.64-0.58-0.55C407.16,339.38,407.11,339.72,407.16,340.06z"/>
		<path class="st11" d="M220.77,334.9c-0.02,0.35-0.04,0.7-0.07,1.05c-0.11,0.65-0.12,1.24,0.76,1.31
			c-0.02,1.54,0.19,3.12-0.09,4.61c-0.65,3.46-2.79,5.79-6.08,7.06c-4.04,1.56-8.29,1.88-12.54,1.96c-7.11,0.15-14.22,0.2-21.3-0.66
			c-2.3-0.28-4.58-0.12-6.91-0.81c-4.36-1.3-6.69-3.75-6.57-8.13c0.07-2.6,0.43-5.19,0.61-7.78c0.04-0.66,0.19-1.6-0.8-1.65
			c-0.74-0.04-1.12,0.59-1.36,1.36c-0.77,2.42-1.84,4.76-2.44,7.22c-0.53,2.17-1.84,3.48-3.72,4.24c-5.05,2.04-9.76,0.29-10.5-4.93
			c-0.36-2.54,0.06-4.96,0.27-7.42c0.43-4.9,1.03-9.83,3.15-14.33c2.03-4.3,4.35-8.48,6.79-12.57c0.87-1.45,2.07-2.88,3.86-3.53
			c0.9-0.33,1.63-0.96,2.17-1.77c0.93-1.4,2.42-1.66,3.9-1.95c1.11-0.22,1.7,0.16,2.13,1.26c1.79,4.6,5.73,7.28,9.8,9.24
			c4.77,2.3,10.28,2.52,15.44,2.01c4.31-0.43,8.42-2.54,11.75-5.61c1.3-1.2,2.57-2.46,3.72-3.81c1.55-1.83,3.2-2.56,4.92-1.23
			c1.86,1.44,4.11,2.25,5.81,3.77c3.96,3.54,7.01,7.83,9.24,12.65c2.4,5.19,3.73,10.71,4.62,16.33c0.4,2.55,0.14,5.04-0.8,7.63
			c-1.02,2.8-2.9,3.51-5.34,3.74c-2.72,0.27-4.99-0.69-6.24-3.17c-1.21-2.42-2.12-4.99-3.15-7.49c-0.04-0.99-0.65-1.64-1.52-1.25
			c-0.72,0.32-0.41,1.15,0.06,1.75C220.53,334.25,220.63,334.6,220.77,334.9z"/>
		<path class="st12" d="M150.04,541.94c-4.84-1.39-5.56-2.22-5.53-7.03c0.02-3.06,0.29-6.12,0.44-9.18c0.11-0.64,0.51-1.5-0.59-1.54
			c-0.91-0.04-1.56,0.45-1.28,1.54c-0.74,2.05-1.69,4.06-2.15,6.18c-0.42,1.98-1.41,3.34-2.89,4.6c-2.18,1.87-4.68,1.9-6.87,0.08
			c-3.35-2.8-3.93-6.61-3.72-10.55c0.48-9.09,2.47-17.8,7.74-25.42c3.16-4.57,6.76-8.74,12.65-9.91c0.5,0.02,1,0.05,1.5,0.07
			c0.17,0.68,0.13,1.58,0.56,1.99c3.16,2.97,5.82,6.58,10.08,8.21c0.48,0.72,1.23,0.69,1.96,0.71c0.28,0.14,0.55,0.27,0.83,0.41
			c0.19,0.26,0.43,0.32,0.73,0.19c0.27,0.04,0.54,0.07,0.8,0.11c3.06,1.08,6.12,1.12,9.18-0.04c5.7-1.46,10.22-4.58,13.46-9.51
			c0.42-0.07,0.53-0.29,0.31-0.66c0.24-0.71,0.11-1.76,1.47-1.33c5.85,1.87,9.83,5.78,13.44,10.69c3.35,4.55,4.98,9.66,6.64,14.77
			c1.29,3.97,2.17,8.16,2.39,12.4c0.22,4.14-0.67,5.55-4.19,7.09c-1.92,0-3.84-0.01-5.76-0.01c-1.79-0.48-2.45-1.67-2.9-3.47
			c-0.62-2.52-1.81-4.91-2.76-7.35c0.1-0.72,0.05-1.55-0.91-1.26c-0.96,0.28-0.74,1.22-0.52,2c0.34,2.31,0.64,4.63,1.04,6.94
			c0.82,4.68-0.37,6.84-4.86,8.85c-1.32,0.59-2.2,2.16-3.96,1.8c-1.47-0.87-2.88-0.76-4.24,0.24c-0.34,0.6-0.83,0.7-1.44,0.45
			c-0.29-0.42-0.72-0.55-1.21-0.54c-6.46,0.02-12.92,0.03-19.38,0.04c0,0-0.12-0.02-0.12-0.02c-3.02-0.66-6.04-1.33-9.07-1.95
			C150.67,541.44,150.34,541.78,150.04,541.94z"/>
		<path class="st11" d="M407.85,131.96c0.1,1.24-0.7,2.22-1.05,3.32c-0.96,3.11-4.11,5.4-6.78,5.13c-2.67-0.27-6-3.96-5.95-7.04
			c0.05-2.82,0.42-5.65,0.9-8.44c1.3-7.66,3.61-14.97,8.24-21.34c3.08-4.23,6.9-7.55,12.22-8.69c0.91-0.19,1.62-0.13,1.82,1.02
			c1.21,6.86,7.12,8.07,12.32,9.55c3.43,0.98,7.27,0.89,10.82-0.47c0.64,0.44,1.06,0.35,1.16-0.49c4.28-0.92,7.97-2.93,10.65-6.41
			c1.45-1.89,3.22-1.99,5.05-1.3c4.56,1.72,8.37,4.39,11.18,8.58c2.02,3.01,4.4,5.85,5.32,9.36c0.89,3.41,3.17,6.52,2.55,10.3
			c0.01,0-0.23,0.17-0.23,0.17l0.26,0.14c1.48,3.37,1.3,6.87,0.53,10.32c-0.64,2.87-3.04,4.15-5.66,4.63
			c-3.12,0.58-5.45-1.14-7.18-3.52c-1.72-2.37-2.6-5.15-3.22-7.99c0.05-0.78-0.48-0.87-1.06-0.84c-0.35,0.02-0.63,0.2-0.63,0.57
			c0,0.42,0.32,0.5,0.67,0.5c0.49,2.81,0.41,5.65,0.35,8.47c-0.07,3.54-1.9,5.77-5.42,6.75c-10.42,2.89-20.94,2.66-31.48,0.89
			c-3.11-0.52-6.26-0.76-9.3-1.73c-2.27-0.72-3.45-2.1-3.9-4.41c-0.6-3.09,0.34-6.1,0.21-9.16c0.21-0.56,0.44-1.2-0.16-1.59
			c-0.51-0.33-0.77,0.16-1,0.59C408.51,129.82,407.7,130.7,407.85,131.96z"/>
		<path class="st13" d="M239.04,432.1c1.26-3.4,2.06-6.93,3.43-10.32c1.21-2.99,2.8-5.62,4.64-8.23c2.45-3.46,5.42-6.3,8.75-8.87
			c1.22-0.94,2.52-1.22,3.92-1.39c1.01-0.13,1.6,0.25,1.48,1.38c-0.27,2.51,1.17,4.4,2.72,5.94c6.1,6.03,16.61,8.47,24.57,4.39
			c3.72-1.9,6.79-4.15,8.76-7.93c0.61-1.16-0.42-3.13,1.6-3.5c1.44-0.27,2.36,0.98,3.49,1.55c9.95,5.08,15.9,13.37,19.06,23.89
			c1.06,3.53,1.86,7.08,1.75,10.79c-0.11,3.98-1.47,6.06-4.43,6.86c-3.45,0.94-6.6-0.33-8.48-3.54c-0.65-1.11-1.07-2.37-1.53-3.58
			c-0.28-0.75-0.42-1.55-1.47-2.19c-0.63,1.74-0.13,3.23-0.09,4.66c0.17,6.23-1.98,8.12-8.1,8.96c-12.14,1.67-24.36,1.14-36.52-0.43
			c-1.33-0.17-2.5-0.62-3.7-1.04c-2.42-0.85-3.53-2.64-3.53-5.18c0.01-2.79,0-5.57-0.26-8.43c-0.96,0.9-1.88,1.71-1.92,3.12
			c-0.04,1.71-0.87,3.18-1.6,4.66c-1.71,3.48-4.8,4.91-8.53,3.99c-1.97-0.49-3.33-1.66-4.07-3.61c-1-2.65-0.89-5.34-0.53-8.07
			c0.15-1.17,0.37-2.33,0.55-3.5C239.03,432.36,239.04,432.23,239.04,432.1z"/>
		<path class="st10" d="M71.96,332.45c4.9,0.95,9.7,0.99,14.36-1.22c1.01-0.48,2.22-0.55,3.34-0.81c0.4,0.71,0.63,1.73,1.44,1.93
			c3.62,0.91,6.06,3.95,9.59,5.08c3.12,1,3.55,2.17,2.39,5.36c-0.6,1.65-1.45,3.21-2.05,4.86c-0.26,0.72-1.01,1.61-0.35,2.32
			c2.1,2.29,1.63,5.3,2.38,7.96c0.43,1.53,1.12,2.24,2.67,2.15c0.26,0.46,0.38,0.94,0.27,1.46c-1.15-0.04-1.7,0.34-2.26,1.58
			c-1.96,4.33-3.7,9.14-10.01,8.44c-0.84-0.09-1.17,0.62-1.28,1.39c-2.13,0.31-4.25,0.64-6.41,0.44c-0.36-1.49-1.57-1.13-2.59-1.18
			c-5.64-0.26-11.31,0.58-16.93-0.67c-0.96-0.21-2.22-0.33-2.52,1.19c-0.54,0.02-1.05-0.02-1.47-0.43c-0.1-0.45-0.05-1.06-0.33-1.34
			c-2.58-2.53-4.45-5.47-5.53-8.94c-0.28-0.9-1.11-1.16-1.99-1.22c-0.03-1.86-0.06-3.72-0.09-5.58c0.54-0.36,0.9-0.82,0.41-1.42
			c-0.69-0.85-1.88-1.7-2.68-1.33c-2.76,1.28-4.96-0.54-7.36-1.02c-2.15-0.42-4.34-1.04-5.28-3.47c-0.23-0.59-0.92-0.65-1.5-0.73
			c1.2-7.81,4.61-14.52,10.19-20.11c1.65-1.65,3.19-3.45,5.29-4.6c2.49-1.37,3.42-1,4.97,1.45c2.41,3.8,5.84,6.39,10.18,7.7
			c0.79,0.24,1.59,0.44,2.39,0.66C71.36,333.14,71.64,333.01,71.96,332.45z"/>
		<path class="st10" d="M379.92,288.61c-5.46-1.56-8.18-6-10.84-10.44c-1.61-2.68-2.63-5.64-3.72-8.57
			c-0.42-1.13,0.31-1.98,0.16-3.05c-0.53-3.8,0.71-7.5,0.91-11.27c0.01-0.23,0.05-0.49,0.17-0.68c3.18-5.29,5.9-11.01,12.04-13.68
			c8.92-3.89,18.02-4.61,26.36,0.83c9.49,6.19,14.42,16.78,11.53,28.58c-1.05,4.31-2.63,8.41-5.48,12.08
			c-4.39,5.65-10.2,8.08-16.97,8.73c-4.4,0.42-8.74-0.15-12.88-1.81C381.02,288.66,380.62,288.37,379.92,288.61z"/>
		<path class="st10" d="M52.97,304.79c0.59-2.68,0.05-5.41,0.38-8.09c0.33-0.04,0.45-0.19,0.29-0.5c0.26-6.52,3.54-11.5,8.39-15.43
			c6.02-4.88,12.99-6.87,20.72-5.44c12.37,2.28,21.36,14.16,21.09,26.08c-0.09,4.1-1.3,7.89-3.15,11.5
			c-2.46,4.81-6.11,8.53-10.66,11.43c-2.15,1.37-4.58,1.81-6.95,2.1c-4.42,0.53-9.14,1.08-13.21-0.65
			c-4.75-2.02-9.53-4.57-12.04-9.65c-0.63-1.26-1.24-2.56-2.08-3.69c-0.94-1.27-1.44-2.59-1.61-4.16c-0.1-0.98,0.12-2.19-0.98-2.88
			C53.14,305.19,53.08,304.98,52.97,304.79z"/>
		<path class="st11" d="M186.53,303.74c-4.04-1.24-7.82-3.01-10.87-5.99c-5.41-5.28-7.86-11.84-8-19.31
			c-0.07-3.42-0.09-6.99,1.3-10.05c1.72-3.76,3.59-7.65,7.22-10.17c0.87-0.61,1.7-1.28,2.55-1.92c6.29-4.75,13.13-5.26,20.62-3.3
			c4.29,1.12,7.73,3.49,10.76,6.23c2.68,2.43,5.11,5.56,5.89,9.3c0.41,1.96,1.44,3.69,1.61,5.72c1,11.59-4.34,20.16-12.84,27.26
			c-4.7,1.76-9.51,2.85-14.58,2.22c-1.14-0.14-2.31-0.72-3.43,0.1C186.77,303.84,186.53,303.74,186.53,303.74z"/>
		<path class="st14" d="M513.74,243.36c-1.07,2.48-2.07,4.99-3.23,7.44c-1.05,2.23-2.68,3.93-5.29,4.2
			c-3.4,0.35-6.02-1.83-6.55-5.48c-0.4-2.7-0.24-5.42,0.17-8.11c0.55-3.59,1.7-7.06,2.22-10.68c0.38-2.61,2.56-4.64,3.96-6.92
			c1.41-2.29,2.71-4.79,4.65-6.57c3-2.76,5.64-6.25,10.14-6.93c1.53-0.23,2.15-0.2,2.39,1.76c0.52,4.32,3.9,6.72,7.12,9.11
			c0.73,2.49,2.34,3.17,5.67,2.39c0.18,0.03,0.33-0.03,0.44-0.18c0.3-0.03,0.6-0.06,0.9-0.09c0.14,2.25,1.86,1.7,3.18,1.74
			c3.93,0.12,7.35,1.27,10.08,4.3c1.57,1.75,3.09,3.65,5.14,4.86c2.21,1.3,3.3,3.33,4.2,5.54c1.04,2.56,0.87,2.86-1.21,4.87
			c-0.85,0.82-2.47,1.06-2.59,2.27c-0.28,2.76-2.03,5.77,0.93,8.21c0.92,0.77,0.96,1.58-0.27,2.18c-0.86,0.42-1.71,0.88-1.67,2.05
			c-4.93,1.23-9.91,1.42-14.92,0.62c-1.19-2.04-2.25-2.07-3.55-0.09c-2.66,0.28-5.22-0.51-7.83-0.71c-0.74-1.65-1.13-1.69-2.31-0.22
			c-0.41-0.1-0.82-0.2-1.22-0.29c-0.05-0.59-0.14-1.2-0.72-1.51c-2.7-1.43-3.14-3.82-2.86-6.55c0.06-0.58,0.03-1.17,0-1.75
			c-0.1-2.9-2.93-5.92-6.06-6.48C514.1,242.49,513.63,242.67,513.74,243.36z"/>
		<path class="st11" d="M458.71,73.61c0.41,4.15-1.83,7.36-2.76,10.92c-1.11,4.27-3.97,7.41-7.24,9.87
			c-5.58,4.19-12.05,5.2-19.01,3.98c-7.06-1.23-11.6-5.49-15.23-11.22c-4.11-6.5-4.63-13.47-2.79-20.72
			c1.56-6.11,4.86-11.3,10.33-14.39c5.78-3.26,12.43-4.49,18.8-2.34c7.78,2.63,13.73,7.63,16.1,16.08
			C457.66,68.47,459.19,70.92,458.71,73.61z"/>
		<path class="st15" d="M194.95,474.48c-1.4,3.03-2.09,6.35-4.37,9.02c-3.83,4.48-8.02,8.3-14.03,9.54
			c-0.79,0.16-1.54,0.49-2.3,0.74c-3.55-0.17-7.11-0.32-10.67-0.04c-3.12,0.02-5.77-1.26-7.98-3.3c-0.93-0.86-2.13-0.91-3.03-1.69
			c-5.13-4.43-9.26-9.34-9.68-16.62c-0.32-5.56-0.77-11.08,0-16.62c0.5-3.67,1.15-7.22,4.14-9.92c1-0.9,1.7-2.24,2.27-3.5
			c2.74-6.16,7.44-9.72,14.04-10.95c1.25-0.23,2.42-0.85,3.74-0.85c1.23,0.26,2.46,0.26,3.69-0.01c3.77,0.6,7.38,1.6,10.41,4.1
			c2.34,1.93,4.01,4.2,4.06,7.38c-0.15,0.42,0.05,0.63,0.44,0.73c2.46,3.53,5.1,6.92,6.38,11.15c0.73,2.42,1.36,4.85,1.81,7.34
			c-0.07,0.09-0.21,0.21-0.19,0.28c0.06,0.21,0.18,0.4,0.27,0.59c0.03,0.42,0.06,0.85,0.09,1.27c-0.46,0.98-0.49,1.95,0.04,2.91
			c0.39,1.65,0.78,3.29,1.16,4.94C194.8,472.13,194.82,473.3,194.95,474.48z M167.93,454.6l-0.04-0.03
			c-0.06-0.43-0.3-0.65-0.75-0.63l-0.08-0.07l0.11,0.05c-0.01,0.23-0.03,0.47-0.04,0.7c-0.08,0.44-0.17,0.87-0.25,1.31
			c-0.35,0.22-0.42,0.54-0.3,0.91c-2.12,5.21-6.16,8.33-11.17,10.48c-2.63,1.12-5.46,1.73-7.97,3.17c-1.05,0.6-1.65,0.77-1.07,2.52
			c0.76,2.3,2.08,4.18,3.33,6.05c2.64,3.96,6,7.28,10.64,9c1.09,0.4,2.15,0.86,3.23,1.29c0.95,0.15,1.9,0.38,2.86,0.07
			c1.65-0.01,3.31-0.03,4.96-0.04c0.47,0,0.95,0,1.42,0.01c7.93-1.47,13.53-5.97,16.65-13.33c1.33-3.14,2.9-6.39,1.63-10.02
			c-0.1-0.79-0.65-0.64-1.17-0.57c-0.47-0.05-0.94-0.11-1.41-0.16c-0.29-0.66-0.81-0.74-1.44-0.59l-0.04-0.15
			c-1.07-0.78-2.26-0.84-3.51-0.6c-6.05-1.05-10.69-4.51-14.95-8.65C168.58,454.87,168.37,454.63,167.93,454.6z"/>
		<path class="st13" d="M290.11,356.23c5.78,2.47,9.43,6.93,11.66,12.63c1.12,2.87,1.8,5.88,1.92,8.99
			c0.08,2.01,0.29,3.97,1.14,5.88c0.9,2,0.7,4.18,0.17,6.28c-0.9,3.61-2.47,7.09-4.85,9.79c-4.02,4.56-8.97,8.03-15.33,8.71
			c-3.19,0.34-6.39,0.32-9.58,0c-2.62-0.26-5.12-0.98-7.39-2.36c-5.08-3.09-9.58-6.72-11.9-12.48c-0.6-1.5-1.28-2.84-0.79-4.57
			c0.27-0.97,0-2.12-0.14-3.17c-0.78-5.81,0.04-11.54,1.15-17.19c0.51-2.56,1.68-5.04,3.77-6.98c2.41-2.24,4.36-4.99,7.53-6.34
			c0.79-0.34,1.3-0.75,0.97-1.87c-0.51-1.73-0.21-3.5,0.26-5.25c1.32-4.87,4.58-7.63,9.56-8.05c4.15-0.35,9.37,2.59,11.01,6.36
			c1.13,2.59,2.3,5.26,0.92,8.16c-0.55,0.15-1.05,0.44-1.03,1.05C289.19,356.38,289.65,356.41,290.11,356.23z M285.88,403.94
			c1.55-0.57,3.17-0.99,4.63-1.73c7-3.55,10.69-9.36,11.2-17.13c0.19-2.99-0.3-3.33-3.25-4.48c-1.32-0.51-2.63-1.02-4.02-1.25
			c-6.3-1.05-11.38-4.29-15.8-8.73c-0.32-0.48-0.65-0.93-1-0.02c0.02,1.34-0.39,2.54-1.05,3.7c-2.66,4.72-7.01,7.22-11.82,9.12
			c-1.98,0.78-4.01,1.45-6.01,2.16c-0.88,0.31-1.39,0.75-1.05,1.84c3.94,12.54,13.93,19.11,26.88,17.05
			C285.22,404.79,285.64,404.57,285.88,403.94z"/>
		<path class="st14" d="M533.94,213.79c-5.93-1.02-10.89-3.69-14.28-8.77c-2.7-4.04-4.19-8.39-3.99-13.47
			c0.18-4.6-0.04-9.29,1.01-13.72c1.48-6.24,3.82-12.23,10.62-14.83c0.64,0.15,0.99-0.14,1.13-0.75c3.71-0.59,5.63-2.4,5.16-6.5
			c-0.41-3.58,4.2-7.58,9.51-8.17c8.71-0.98,14.05,7.33,11.4,14.21c-0.48,1.24-0.31,1.84,0.77,2.59
			c7.04,4.94,9.63,12.18,10.28,20.36c0.13,1.65,0.21,3.27,0.57,4.91c1.16,5.32-0.8,10.04-3.52,14.36
			c-2.69,4.28-6.52,7.39-11.47,9.02c-4.06,1.34-8.08,2.67-12.45,2.08c-1.04-0.14-2.14-0.01-3.07-0.67
			C535.25,213.71,534.61,213.7,533.94,213.79z M539.84,175.68c-2.27,7.61-7.05,11.88-13.97,13.95c-1.69,0.51-3.44,0.89-5.06,1.56
			c-1.11,0.46-2.45,1.01-1.95,2.77c2.05,7.22,6.2,12.88,13.24,15.67c9.13,3.61,17.52,1.63,24.6-5.01c4.08-3.84,6.34-8.78,6.65-14.48
			c0.08-1.51-0.08-2.41-2.04-2.95c-2.24-0.62-4.56-0.94-6.77-1.76C549,183.38,544.05,180.53,539.84,175.68z"/>
		<path class="st15" d="M122.97,112.68c3.81,0.74,6.66,2.54,7.95,6.47c1.33,4.09,1.17,4.73-2.95,6.88c3.14,1.29,5.64,3.31,8.28,5.13
			c3.5,2.42,5.09,6,6.57,9.65c0.78,1.92,0.97,4.07,1.43,6.12c-0.16,0.11-0.25,0.25-0.27,0.45c-0.22,0.8-0.43,1.59,0.28,2.28
			c0.08,1.68,0.16,3.35,0.23,5.03c-0.78,0-1.55,0-2.33,0.01c-0.48-1.13-0.57-2.53-2.1-2.89c-3.2-0.99-5.1-1.23-6.97-0.87
			c-4.82-0.65-9.35-2.16-13.48-4.73c-1.65-1.03-3.17-2.3-4.63-3.59c-1.16-1.02-2.2-0.65-2.47,0.49c-1.12,4.57-4.9,6.97-7.96,9.88
			c-1.9,1.81-4.38,3.02-6.6,4.49c-0.23-0.04-0.47-0.04-0.71-0.01c-0.89,0.04-1.78,0.07-2.67,0.11c0,0,0,0,0,0
			c0-0.33-0.14-0.56-0.46-0.67c-0.55-4.99-0.42-10.01,0.29-14.93c0.81-5.63,4.09-9.88,8.91-12.93c0.95-0.6,2.16-0.92,2.66-2.1
			c0.91-0.45,0.41-0.8-0.08-1.16c-0.06-0.35-0.1-0.7-0.18-1.04c-1.29-5.53,1.96-10.93,8.12-12.04
			C116.86,112.68,119.92,112.68,122.97,112.68z"/>
		<path class="st13" d="M554.12,259.34c-0.05-1.17,0.8-1.63,1.67-2.05c1.23-0.6,1.19-1.41,0.27-2.18c-2.95-2.45-1.21-5.45-0.93-8.21
			c0.12-1.22,1.75-1.46,2.59-2.27c2.07-2.01,2.25-2.31,1.21-4.87c-0.89-2.2-1.99-4.24-4.2-5.54c-2.05-1.21-3.57-3.11-5.14-4.86
			c-2.73-3.03-6.15-4.17-10.08-4.3c-1.32-0.04-3.04,0.51-3.18-1.74c1.89,0.04,3.78,0.14,5.66,0.13c6.69-0.03,11.39-3.68,15.33-8.6
			c0.49-0.61,0.72-1.48,0.93-2.27c0.56-2.03,0.82-2.27,2.7-1.47c4.33,1.85,7.82,4.91,10.79,8.44c1.96,2.32,3.8,4.81,5.25,7.54
			c1.23,2.3,2.33,4.58,2.89,7.17c0.7,3.29,2.3,6.36,2.35,9.83c0.02,1.42,0.1,2.82-0.1,4.24c-0.5,3.58-1.85,5.36-4.6,5.95
			c-2.92,0.63-6.04-0.62-7.74-3.13c-1.34-1.98-1.91-4.31-2.92-6.44c-0.07-0.64,0.02-1.63-0.85-1.51c-0.9,0.13-0.49,1.01-0.32,1.63
			c0.45,2.2,0.61,4.43,0.52,6.67c-0.16,3.77-1.11,5.04-4.8,6.31c-1.07,0.37-2.03,1.24-3.3,0.83c-0.78-0.15-1.49-0.1-1.94,0.69
			C555.51,259.33,554.81,259.33,554.12,259.34z"/>
		<path class="st14" d="M105.71,360.08c-1.54,0.09-2.23-0.62-2.67-2.15c-0.75-2.66-0.28-5.67-2.38-7.96
			c-0.65-0.71,0.09-1.6,0.35-2.32c0.6-1.65,1.45-3.21,2.05-4.86c1.17-3.18,0.74-4.36-2.39-5.36c-3.52-1.13-5.96-4.17-9.59-5.08
			c-0.81-0.2-1.04-1.22-1.44-1.93c2.59-1.94,5.2-3.85,7.15-6.5c0.96-1.31,2.14-1.74,3.62-0.73c0.68,0.46,1.38,0.9,2.13,1.22
			c9.59,4.19,13.78,12.36,16.17,21.86c0.22,0.86,0.27,1.77,0.4,2.65c0,0-0.19,0.2-0.19,0.2l0.23,0.17
			c1.14,4.51,2.63,8.93,1.35,13.74c-0.64,2.41-1.83,3.63-4.27,3.72c-0.58,0.02-1.16,0.17-1.74,0.27c-0.22-0.03-0.45-0.05-0.68-0.08
			c-3.16-0.12-4.6-2.15-5.58-4.84c-0.66-1.82-0.54-3.89-1.76-5.52c0.03-0.63-0.15-1.27-0.87-1.07c-0.5,0.14-0.32,0.75-0.05,1.16
			C105.63,357.79,105.99,358.92,105.71,360.08z"/>
		<path class="st16" d="M142.16,154.68c0.78,0,1.55,0,2.33-0.01c1.86,3.97,0.74,7.8-0.87,11.44c-2.45,5.56-6.7,9.49-12.1,12.17
			c-2.28,1.13-4.59,2.21-7.12,2.72c-4.51,0.26-8.98-0.33-13.46-0.64c-2.54-1.31-5.09-2.6-7.62-3.94c-1.49-0.79-2.64-1.95-3.52-3.39
			c-0.36-0.6-0.74-1.25-1.26-1.69c-3.57-2.99-4.24-7.01-4.15-11.31c0.02-0.83,0.12-1.65,0.18-2.48c0.89-0.04,1.78-0.07,2.67-0.11
			c0.06,0.28,0.12,0.57,0.18,0.85c0.55,2.73,1.23,5.32,2.88,7.73c2.08,3.05,4.66,5.42,7.63,7.5c1.8,1.26,3.54,2.54,5.86,2.55
			c0.65,0.6,1.39,0.66,2.2,0.4c2.33,0.41,4.65,0.23,6.98-0.05c0.59,0.26,1.1,0.12,1.54-0.34c6.25-1.3,10.91-4.9,14.07-10.3
			C140.54,162.41,141.82,158.66,142.16,154.68z"/>
		<path class="st10" d="M309.48,490.56c-0.79-1.4-1.83-1.25-2.97-0.47c-1.46,1-2.88,2.08-4.39,3c-2.26,1.39-3.27,0.84-3.36-1.72
			c-0.01-0.35-0.01-0.71,0.02-1.06c0.57-7.08,0.91-14.16-0.05-21.24c-0.19-1.38-0.03-2.8-0.03-4.11c0.8-0.47,1.25-0.11,1.64,0.36
			c4.07,4.87,9.27,8.37,14.42,11.93c1.16,0.81,2.37,1.56,3.48,2.44c1.92,1.54,1.78,2.92-0.35,4.01c-1.16,0.59-2.37,1.08-3.54,1.63
			c-0.98,0.46-1.78,0.84-1.37,2.36c0.45,1.65-1.64,1.7-2.33,2.71C310.26,490.44,309.87,490.5,309.48,490.56z"/>
		<path class="st11" d="M371.5,91.96c-1.4-2.39-1.41-3.66,0.39-4.78c0.92-0.57,0.96-1.21,1.03-2.01c0.11-1.3,0.13-2.61,0.34-3.89
			c0.32-2,1.47-2.61,3.27-1.63c1.81,0.99,3.45,2.28,5.25,3.29c3.99,2.26,8.04,4.41,12.04,6.65c2.54,1.42,2.55,2.38,0.03,3.83
			c-1.42,0.82-2.89,1.61-4.43,2.16c-4.36,1.56-8.32,3.92-12.41,6.05c-0.52,0.27-1.04,0.58-1.59,0.79c-2.27,0.85-3.41,0.11-3.4-2.35
			c0.01-2.71,0.81-5.39,0.42-8.13c0.18-0.61,0.32-1.23-0.1-1.87C371.87,90.68,371.29,91.15,371.5,91.96z"/>
		<path class="st11" d="M89.61,406.41c0.92-6.14,0.03-12.29,0.15-18.43c0.02-1.22-0.63-3,0.85-3.48c1.37-0.45,2.15,1.18,2.91,2.18
			c1.31,1.73,3.08,2.93,4.74,4.25c3.51,2.8,7.06,5.54,10.53,8.37c2.2,1.79,1.96,2.61-0.56,4.06c-2.07,1.18-4.84,1.41-5.86,4.16
			c-0.15,0.41-1.03,0.87-1.49,0.8c-2.8-0.43-4.62,1.3-6.59,2.75c-0.57,0.42-1.22,0.74-1.86,1.03c-2.5,1.12-3.08,0.7-3.02-2.14
			c0.01-0.59,0.06-1.18,0.1-1.77C89.54,407.59,89.58,407,89.61,406.41z"/>
		<path class="st17" d="M348.35,399.92c0.86,1.73,0.29,3.52-0.03,5.19c-1.18,6.2-2.52,12.37-3.87,18.54
			c-0.48,2.19-2.05,2.7-3.43,0.96c-2.16-2.73-4.87-4.89-7.13-7.5c-1.65-1.91-3.86-3.23-5.97-4.62c-0.19-0.15-0.39-0.31-0.58-0.46
			c-0.16-0.45-0.31-0.9-0.47-1.35c0-0.54-0.01-1.09-0.01-1.64c0.11-0.26,0.23-0.53,0.34-0.79c0.38,0.1,0.59-0.03,0.6-0.43
			c1.75-1.32,3.99-1.44,5.9-2.51c3.68-2.06,7.6-3.68,11.42-5.48C346.19,399.86,347.27,399.89,348.35,399.92z"/>
		<path class="st17" d="M423.82,422.31c2.02,1.02,3.64,2.57,5.3,4.05c3.65,3.27,7.26,6.6,11.22,9.51c2.15,1.58,2.2,2.17,0.43,3.89
			c-0.32,0.01-0.64,0.03-0.97,0.04c-3.52,0.24-6.96,0.95-10.38,1.72c-2.54,0.57-4.97,1.44-7.14,2.95c-0.97,0.67-2.06,1.41-3.23,0.65
			c-1.17-0.76-0.87-2.05-0.78-3.23c0.3-3.97,1.51-7.77,2.17-11.68c0.39-2.32,0.97-4.6,0.82-6.98c0.27-0.01,0.41-0.15,0.43-0.4
			c0.32-0.16,0.63-0.32,0.95-0.48C423.03,422.53,423.43,422.53,423.82,422.31z"/>
		<path class="st11" d="M267.84,165.35c1.13-0.05,1.6,0.88,2.23,1.55c5.52,5.81,11.03,11.63,16.55,17.45
			c0.24,0.26,0.5,0.5,0.72,0.78c1.22,1.58,1.05,2.05-1.03,2.38c-5.83,0.91-11.49,2.5-17.1,4.31c-1.13,0.36-2.36,0.9-3.33-0.11
			c-1.02-1.05-0.83-2.45-0.23-3.6c2.8-5.39,3.6-11.05,2.64-17.02c-0.28-1.74-0.12-3.54-0.72-5.24
			C267.78,165.74,267.87,165.58,267.84,165.35z"/>
		<path class="st15" d="M228.44,556.92c-1.09,2.38-2.17,4.77-3.3,7.14c-0.24,0.5-0.62,0.98-1.04,1.36
			c-1.49,1.32-3.01,1.03-3.49-0.86c-1.41-5.48-4.36-10.14-7.53-14.69c-0.94-1.35-1.76-2.67-1.71-4.37c0.16-0.18,0.32-0.36,0.48-0.54
			c0,0,0.14-0.13,0.13-0.13c3.29-0.13,6.61,0.54,9.86-0.47c0.83-0.05,1.66-0.09,2.49-0.14c2.25-0.18,4.56,0.4,6.75-0.54
			c1.22-0.08,2.44-0.16,3.67-0.23c1.25,1.14,0.66,2.24-0.05,3.36c-0.95,1.5-2.33,2.75-2.81,4.54c-0.62,0.26-0.79,0.77-0.77,1.38
			l0.03-0.03c-0.66,0.27-0.64,0.99-0.98,1.48C229.23,554.86,228.93,555.95,228.44,556.92z"/>
		<path class="st15" d="M440.43,547.84c-1.59,1.26-3.59,1.67-5.45,1.91c-1.4,0.18-2.62,0.93-4.02,0.89
			c-0.87-0.02-1.74-0.05-2.61-0.07c0,0-0.22,0.04-0.22,0.04c-0.07-0.35-0.28-0.56-0.63-0.64c-0.56-3.26,0.83-6.19,1.85-9.07
			c0.98-2.75,1.88-5.58,3.46-8.15c1.96-3.2,3.11-3.54,5.9-0.99c0.35,0.32,0.62,0.71,0.92,1.07c0.47,1.1,0.98,0.89,1.51,0.05
			c1.54,0.16,1.71-1.42,2.58-2.1c1.01-0.8,1.86-1.13,2.65,0.07c0.68,1.03,2.64,1.73,1.04,3.48c-1.02,1.13-1.98,2.31-2.97,3.47
			c-0.66-0.06-1.42-0.85-1.93-0.22c-0.68,0.85,0.2,1.49,0.75,2.08c0.14,0.15,0.42,0.16,0.63,0.24c0,0,0.01,0.01,0.01,0.01
			c0.16,0.8,0.62,1.26,1.45,1.33c0.91,0.72,1.88,1.37,2.72,2.17c0.97,0.93,1.26,1.98,0,2.97
			C445.47,546.6,442.85,546.66,440.43,547.84z"/>
		<path class="st15" d="M424.8,179.77c-0.92-2.6,1.27-4.35,2.35-5.89c2.96-4.22,4.91-8.93,7.4-13.36c0.61-1.08,1.16-1.6,2.35-1.6
			c1.43-0.01,1.19,1.19,1.54,1.97c1.89,4.28,3.74,8.57,5.67,12.82c0.77,1.69,1.33,3.47,2.06,5.13c0.65,1.49-0.03,2.37-0.31,3.51
			c-0.94-0.04-1.87-0.09-2.81-0.13c-0.78-0.66-1.7-0.54-2.61-0.45c-0.78-0.08-1.56-0.16-2.35-0.23c-1.6-0.77-3.29-0.55-4.97-0.45
			c-0.24,0.06-0.47,0.03-0.68-0.12c-2.25-1.17-4.67-0.45-7.01-0.59c0,0-0.17-0.16-0.17-0.16C425.27,179.9,425.07,179.8,424.8,179.77
			z"/>
		<path class="st12" d="M469.54,247.18c0.21-0.03,0.41-0.06,0.62-0.07c1.5,0.11,3.02,0.35,4.34-0.67c0.21-0.03,0.41-0.06,0.62-0.07
			c1.28,0.14,2.56,0.3,3.66-0.62c0.21-0.03,0.41-0.06,0.62-0.07c2.18,0.25,4.36,0.03,6.54-0.1c1.26,1.26,0.42,2.46-0.24,3.52
			c-3.55,5.68-7.13,11.34-10.77,16.97c-0.91,1.41-2.38,1.35-3.04-0.22c-2.24-5.33-5.52-9.99-9.04-14.51
			c-0.67-0.86-0.43-1.79-0.37-2.72c0.23-0.19,0.47-0.39,0.7-0.58c0,0,0.11-0.02,0.11-0.02C465.37,247.71,467.58,248.4,469.54,247.18
			z"/>
		<path class="st12" d="M239.46,469.53c-1.01,7.02-1.66,13.23-1.67,19.5c0,1.8-0.78,2.3-2.55,1.79c-1.08-0.31-2.19-0.57-3.08-1.54
			c-1.02-1.1-2.26-2.09-3.75-2.59c-0.73-0.24-1.5-0.81-2.09,0.26c-1.4,2.56-2.45,0.24-3.57-0.31c-1.51-0.73-0.99-1.59,0-2.38
			c0.64-0.51,0.32-0.94-0.01-1.48c-0.52-0.84-1.33-1.32-2.06-1.91c-2.55-2.05-2.47-2.9,0.48-4.52c4.17-2.27,8.37-4.5,12.57-6.72
			c0.92-0.49,1.88-0.92,2.86-1.27C238.65,467.61,239.53,468.26,239.46,469.53z"/>
		<path class="st18" d="M460.25,530.74c-0.71-0.51-1.42-1.01-2.14-1.52c-0.15-0.81-0.51-1.38-1.45-1.29
			c-0.22-0.29-0.44-0.59-0.66-0.88c-0.16-0.74-0.43-0.75-0.81-0.13c-0.64,0.61-1.34,1.17-1.92,1.83c-0.77,0.88-1.31,0.55-1.84-0.22
			c0.06-0.33-0.1-0.47-0.42-0.47c-0.33-0.33-0.6-0.79-0.99-0.96c-1.4-0.6-1.54-1.03-0.31-2.2c1.81-1.71,1.67-1.86-0.22-3.43
			c-0.72-0.6-1.48-1.15-1.99-1.98c-1.32-2.17-0.96-2.81,1.37-3.74c1.86-0.75,3.79-1.32,5.55-2.39c3.1-1.89,6.78-2.13,10.16-3.23
			c1.26-0.41,2.66,1.16,2.75,3.01c0.07,1.39-0.17,2.8-0.26,4.2c-0.73,0.46-1.34,0.98-1.03,1.99c-0.59,3.3-1.96,6.47-1.6,9.92
			c-0.45,0.39-0.6,0.9-0.61,1.48c0,0-0.01,0.02-0.01,0.02C462.63,530.74,461.44,530.74,460.25,530.74z"/>
		<path class="st15" d="M149.8,385.62c0.94-2.32,1.98-4.62,2.8-6.98c1.14-3.31,2.92-6.42,3.19-10c0.86-0.51,1.5-1.12,1.01-2.24
			c0.1-0.48,0.2-0.96,0.29-1.43c0.26-0.2,0.52-0.4,0.78-0.6c2.09-0.07,2.26,1.8,2.81,3.03c1.89,4.24,4.49,8.02,7.12,11.8
			c1.39,1.99,2.55,4.16,3.35,6.48c0,0.26,0,0.51-0.01,0.77c-0.16,0.27-0.32,0.53-0.48,0.8c-1.99,0.23-3.99,0.18-5.94-0.19
			c-1.29-0.24-2.29,0.06-3.27,0.78c0,0-0.07,0.01-0.07,0.01c-1.65,0.02-3.3,0.04-4.95,0.06c-0.96-0.07-1.93-0.22-2.77,0.44
			c-1.19,0.07-2.38,0.13-3.57,0.2c-0.14-0.22-0.28-0.43-0.42-0.65C150.06,387.15,149.93,386.38,149.8,385.62z"/>
		<path class="st15" d="M504.39,140.37c1.18,1,0.69,2.03,0.11,3.1c-0.83,1.54-1.74,3.03-2.97,4.3c-1.22,1.14-2.52,2.22-2.91,3.98
			c-1.37,1.24-2.65,2.56-3.19,4.4c-0.27,0.92-0.97,1.52-1.6,2.2c-0.94,1-1.69,0.91-2.66-0.01c-0.71-0.67-1.15-1.48-1.4-2.31
			c-1.3-4.37-3.16-8.53-4.7-12.8c0.15-1.08-0.56-1.81-1.08-2.61c-0.34-0.66-0.15-1.32-0.01-1.98c1.53-0.83,3.15-0.11,4.72-0.32
			c0.21,0.09,0.43,0.12,0.65,0.11c0.91,0.6,1.9,0.76,2.95,0.49c0.9,0.08,1.8,0.16,2.7,0.24c1.69,1.06,3.58,0.59,5.39,0.64
			C501.75,139.82,503.12,139.67,504.39,140.37z"/>
		<path class="st11" d="M180.8,223.29c-2.47-2.26-3.36-5.5-4.94-8.29c-1.55-2.72-2.84-5.64-4.28-8.45
			c-0.22-0.42-0.49-0.82-0.67-1.25c-0.95-2.33-0.16-3.45,2.32-3.07c3.62,0.56,7.2,1.3,10.81,1.9c1.75,0.29,3.55,0.3,5.27,0.67
			c2.99,0.65,3.73,2.7,1.52,4.66c-3.2,2.82-4.58,6.72-6.58,10.23c-0.85,1.48-1.64,2.79-3.08,3.65c0-0.01-0.16-0.14-0.16-0.14
			L180.8,223.29z"/>
		<path class="st14" d="M38.17,347.26c0.58,0.08,1.27,0.14,1.5,0.73c0.94,2.43,3.13,3.05,5.28,3.47c2.41,0.47,4.6,2.3,7.36,1.02
			c0.8-0.37,1.99,0.48,2.68,1.33c0.49,0.6,0.12,1.06-0.41,1.42c-1.54-0.47-2.12,0.62-2.51,1.7c-0.83,2.28-1.49,4.62-2.3,6.9
			c-1.26,3.55-3.67,5.23-7.03,4.85c-2.93-0.34-5.03-1.84-5.92-4.75c-0.34-1.12-0.68-2.25-0.65-3.46
			C36.3,355.98,36.73,351.55,38.17,347.26z"/>
		<path class="st15" d="M241.13,367.82c2.54,1.31,2.06,4.05,2.63,6.13c1.12,4.1,1.51,8.39,3,12.43c0.29,0.8,0.08,1.62-0.69,2.18
			c-2.41,0.28-4.66-0.93-7.06-0.73c-3.56-1.03-7.46-1.26-10.18-4.3c-0.01-0.71-0.02-1.42-0.02-2.13c0.07-0.26,0.15-0.53,0.22-0.79
			c0.66-0.21,1.18-0.56,1.31-1.31c0.63-2.2,1.08-4.44,3.9-5.08c0.97-0.22,1.51-1.39,2.02-2.31c0.72-1.3,1.46-2.59,2.18-3.89
			C239.33,367.96,240.23,367.89,241.13,367.82z"/>
		<path class="st15" d="M81.6,255.66c0-0.48-0.01-0.96-0.01-1.44c0.05-0.22,0.1-0.44,0.16-0.66c3.03-4.42,6.2-8.75,8.72-13.5
			c0.34-0.05,0.69-0.08,0.66-0.56c0,0,0.08-0.07,0.08-0.07c1.1-0.06,2.21-0.12,3.31-0.17c1.14,1.4,1.34,3.18,1.84,4.82
			c1.15,3.79,2.84,7.34,4.6,10.87c0.07,0.26,0.15,0.52,0.22,0.78c0.16,1.06,0.08,2.04-0.85,2.77c-1.21-0.01-2.42-0.51-3.63-0.02
			c-1.61-0.37-3.23-0.31-4.86-0.11c-0.9-2.2-2.79-1.29-4.35-1.38c-0.24,0.03-0.48,0.06-0.72,0.08c-1.61-0.05-3.22-0.1-4.83-0.14
			c-0.07-0.22-0.13-0.45-0.19-0.68C81.9,256,81.85,255.8,81.6,255.66z"/>
		<path class="st15" d="M141.6,290.22c2.78,0.92,5.57,1.83,8.34,2.78c0.14,0.05,0.18,0.4,0.26,0.61c0,0-0.05,0.15-0.05,0.15
			l0.15,0.04c0.56,0.76,0.53,1.56,0.18,2.38c-0.31,0.08-0.4,0.3-0.38,0.59c-1.86,2.3-3.88,4.41-6.59,5.74
			c-1.45,0.72-2.24,2.23-3.76,2.94c-2.43,1.14-2.69,1.17-4.19-1.33c0.05-0.09,0.15-0.19,0.13-0.26c-0.06-0.17-0.17-0.33-0.26-0.49
			c-0.34-1.19,0.12-3.08-2.21-2.49c-0.14-0.58-0.47-0.98-1.06-1.13c0.31-0.74-0.03-1.41-0.21-2.09c0.2-0.81,0.26-1.67,0.91-2.3
			c0.33-0.18,0.66-0.36,0.98-0.54c1.37-1.29,0.57-1.83-0.76-2.19c-0.28-1.24-0.72-2.47-0.79-3.73c-0.09-1.63,0.72-2.05,2.39-1.5
			c1.08,0.35,2.18,0.65,3.28,0.98c0.6,0.45,1.21,0.89,2.03,0.83c0.33,0.16,0.67,0.31,1,0.47
			C141.18,289.85,141.39,290.03,141.6,290.22z"/>
		<path class="st13" d="M514.63,242.35c3.13,0.57,5.96,3.58,6.06,6.48c0.02,0.58,0.05,1.17,0,1.75c-0.28,2.73,0.16,5.12,2.86,6.55
			c0.58,0.31,0.66,0.92,0.72,1.51c-1.52-0.1-3.05-0.09-4.55-0.33c-4.21-0.66-5.47-2.01-5.48-6.23c-0.01-2.92,0.3-5.84,0.46-8.76
			C514.93,242.98,514.78,242.67,514.63,242.35z"/>
		<path class="st11" d="M241.94,239.68c1.11-0.29,1.73,0.52,2.44,1.11c1.36,1.13,2.7,2.38,4.44,2.8c1.86,0.44,2.01,1.28,1.09,2.71
			c-0.38,0.58-0.69,1.2-1.05,1.8c-0.47,0.78-1.02,1.28-1.98,0.63c-0.48-0.33-1.03-0.58-1.56-0.82c-3.21-1.41-3.2-1.41-5.36,1.55
			c-0.47,0.64-0.79,1.68-1.77,1.48c-1.16-0.25-2.2-0.98-2.62-2.14c-0.33-0.91-0.18-1.79,0.93-2.33c1.56-0.76,1.72-2.27,1.96-3.81
			C238.81,240.34,239.64,239.75,241.94,239.68z"/>
		<path class="st16" d="M237.52,559.22c0.16-5.51,0.17-5.54,5.45-4.11c2.23,0.61,4.42,1.37,6.62,2.07c0.05,0.66,0.11,1.32,0.16,1.98
			c-1.79,5.62-0.16,4.59-5.4,3.35c-2.02-0.48-4.22-0.8-6.05-2.02C238.14,560,238.13,559.42,237.52,559.22z"/>
		<path class="st11" d="M225.94,264.81c-1.67-0.15-2.91-2.44-2.06-3.86c1.64-2.73,3.81-5.03,6.09-7.21c1.19-1.14,2.24-0.77,3.99,1
			c1,1.01,1.27,1.81,0.08,2.92c-2.15,2-4.18,4.13-6.28,6.19C227.26,264.35,226.73,264.84,225.94,264.81z"/>
		<path class="st18" d="M267.27,563.47c-0.05,0.65-0.1,1.3-0.15,1.94c-0.44,0.45-0.46,0.99-0.35,1.56c0.03,1.64-1.18,1.57-2.16,1.33
			c-2.71-0.67-5.5-1.08-8.1-2.17c-0.24-0.47-0.67-0.58-1.14-0.62c-0.41-1.98,0.32-3.83,0.7-5.72c1.08-0.35,1.75,1.09,2.85,0.64
			c2.67,0.16,5.13,1.3,7.76,1.66C266.86,562.56,267.06,563.01,267.27,563.47z"/>
		<path class="st11" d="M337.62,84.29c1.07,0,2.13-0.01,3.2,0c3.06,0.03,4.3,1.85,3.27,4.73c-0.31,0.87-0.97,0.93-1.69,0.92
			c-3.08-0.04-6.16-0.05-9.24-0.15c-2.54-0.08-1.6-2.1-1.82-3.45c-0.27-1.6,0.55-2.1,2.02-2.03c1.42,0.06,2.84,0.01,4.26,0.01
			C337.62,84.31,337.62,84.3,337.62,84.29z"/>
		<path class="st11" d="M275.26,200.15c-0.14,1.2-0.78,2.22-1.4,3.2c-1,1.59-2.23,3.04-3.26,4.61c-0.75,1.13-1.3,2.2-3,1.3
			c-1.49-0.79-1.94-1.93-1.66-3.44c0.37-1.99,1.57-3.63,2.74-5.18c0.6-0.8,1.41-1.53,2.06-2.35c0.67-0.86,1.36-1.25,2.39-0.58
			C274.09,198.32,275.43,198.56,275.26,200.15z"/>
		<path class="st12" d="M453.1,269.91c-0.08,1.4-0.98,1.97-1.73,2.4c-1.83,1.06-3.77,1.97-5.71,2.82c-1.72,0.76-3.59-0.26-4.4-2.25
			c-0.59-1.44-0.16-2.25,1.77-3.21c1.73-0.85,3.48-1.65,5.2-2.51c0.83-0.41,1.76-1.12,2.54-0.37
			C451.74,267.75,452.43,268.99,453.1,269.91z"/>
		<path class="st11" d="M356.3,84.99c2.11,0.25,4.23,0.45,6.34,0.77c1.82,0.28,1.96,0.78,1.83,3.41c-0.07,1.48-0.58,2.2-2.13,2.04
			c-3.06-0.31-6.12-0.62-9.18-0.88c-1.02-0.09-1.4-0.58-1.55-1.54c-0.57-3.53-0.04-4.11,3.62-3.83c0.35,0.03,0.71,0.07,1.06,0.11
			C356.29,85.05,356.3,85.02,356.3,84.99z"/>
		<path class="st11" d="M316.85,90.13c-0.94,0.1-1.88,0.24-2.83,0.3c-1.01,0.06-2.32,0.76-2.89-0.49c-0.58-1.27-0.57-2.78-0.29-4.18
			c0.13-0.67,0.9-0.64,1.48-0.69c3.07-0.23,6.15-0.4,9.21-0.69c1.55-0.14,2.07,0.48,2.19,1.97c0.26,3.34,0.16,3.53-3.32,3.66
			c-1.18,0.04-2.37,0.01-3.55,0.01C316.85,90.07,316.85,90.1,316.85,90.13z"/>
		<path class="st15" d="M508.71,155.38c1.75,0.09,3.06,0.77,4.19,1.85c1,0.94,1.72,2.09,3.18,2.65c1.16,0.45,1.55,1.69,0.41,2.89
			c-0.55,0.58-0.95,1.32-1.38,2.02c-0.59,0.95-1.5,0.91-2.1,0.33c-2.25-2.17-4.89-3.85-7.24-5.87c-0.78-0.67,0.14-3.11,1.36-3.6
			C507.66,155.43,508.28,155.44,508.71,155.38z"/>
		<path class="st11" d="M234.89,237.5c-0.82,1.22-1.56,2.52-2.5,3.66c-0.72,0.87-1.5,0.06-2.2-0.29c-2.01-1-4.04-1.96-6-3.04
			c-2.28-1.25-2.51-2.24-1.52-4.6c0.42-1,1.23-1.29,1.95-0.99c3.22,1.34,6.38,2.82,9.55,4.29
			C234.42,236.66,234.56,237.05,234.89,237.5z"/>
		<path class="st18" d="M305.06,568.28c0.28,0.08,0.56,0.17,0.84,0.25c0.73,0.82,1.71,0.49,2.6,0.56c0.47,1.39,0.38,2.78,0.03,4.17
			c-0.43-0.04-0.86-0.08-1.28-0.11c-0.21-0.28-0.42-0.29-0.64-0.01c-1.47-0.02-2.93-0.04-4.4-0.06c-0.66-0.59-1.45-0.42-2.22-0.34
			c-1.99-0.09-3.97-0.17-5.96-0.26c0.02-1.54,0.04-3.09,0.05-4.63c1.06-0.09,2.12-0.19,3.18-0.28c0.27,0.03,0.55,0.06,0.82,0.1
			c0.84,0.73,1.85,0.63,2.86,0.57C302.31,568.41,303.68,568.59,305.06,568.28z"/>
		<path class="st11" d="M404.82,431.26c-3.12-0.07-5.89-1.56-8.85-2.28c-1.54-0.38-0.9-1.69-0.76-2.67c0.36-2.62,0.77-2.97,3.11-2.1
			c2.55,0.95,5.28,1.03,7.87,1.9c1.62,0.54,1.77,1.17,1.5,2.47c-0.27,1.32-0.02,3.06-2.25,2.81
			C405.26,431.2,405.05,431.16,404.82,431.26z"/>
		<path class="st11" d="M192.56,215.06c3.22,1.66,6.39,3.35,9.61,4.92c1.82,0.89,1.43,2.07,0.79,3.48
			c-0.71,1.55-1.85,2.28-3.35,1.47c-2.56-1.39-4.99-3.02-7.47-4.54c-1.02-0.62-0.88-1.65-0.72-2.53
			C191.58,216.97,192.09,216.16,192.56,215.06z"/>
		<path class="st11" d="M256.23,247.07c0.33,0.21,0.6,0.47,0.91,0.55c2.85,0.77,5.16,2.71,7.92,3.69c1.15,0.41,1.18,1.26,0.77,2.29
			c-1.07,2.72-3.45,3.58-6,1.68c-1.33-0.99-2.73-1.76-4.14-2.56c-1.78-1.01-1.98-3.72-0.35-5.14
			C255.6,247.37,255.93,247.24,256.23,247.07z"/>
		<path class="st11" d="M282.94,259.92c-0.23,3.64-2.09,4.67-4.78,3.43c-2.14-0.99-4.41-1.72-6.4-3.05c-0.9-0.6-1.91-0.95-1.21-2.4
			c1.01-2.1,1.71-2.68,3.38-2.05c1.99,0.75,3.97,1.57,5.82,2.61c0.74,0.42,1.46,0.67,2.24,0.89
			C282.62,259.54,282.94,259.99,282.94,259.92z"/>
		<path class="st11" d="M101.66,415.38c-0.24-2.04,1.52-1.96,2.5-2.61c1-0.67,1.77-0.29,2.32,0.72c1.3,2.37,2.44,4.84,4.06,7.02
			c0.3,0.4,0.53,0.8,0.14,1.25c-0.94,1.1-2.15,1.86-3.52,2.19c-1.19,0.29-1.42-1-2.03-1.66
			C103.27,420.28,102.33,417.83,101.66,415.38z"/>
		<path class="st11" d="M298.23,271.65c-2.64-0.85-5.29-1.64-7.9-2.56c-1.47-0.52-2.64-1.2-2.27-3.27c0.52-2.96,0.92-3.35,3.76-2.1
			c2.22,0.98,4.54,1.61,6.68,2.95c1.62,1.01,1.97,1.6,1.25,3.12c-0.25,0.53-0.5,1.06-0.75,1.58
			C298.75,271.46,298.49,271.56,298.23,271.65z"/>
		<path class="st11" d="M216.35,234.32c-2.31-2.19-5.4-3.15-7.88-5.1c-1.19-0.94-1.44-3.05-0.67-4.28c0.38-0.61,0.99-0.53,1.55-0.55
			c1.24-0.05,2.26,0.58,3.25,1.2c1.09,0.67,2.07,1.53,3.2,2.11c1.09,0.56,2.84,0.41,3.08,1.85c0.23,1.37-0.94,2.55-1.61,3.76
			C217.11,233.59,216.81,233.82,216.35,234.32z"/>
		<path class="st12" d="M455.34,262.97c2.47-1.63,4.55-3.09,6.7-4.42c2.22-1.37,2.83-1.16,4,1.14c0.42,0.82,0.79,1.66,1.24,2.6
			c-2.41,1.48-4.77,2.9-7.1,4.36c-1.36,0.85-2.3,0.86-2.95-0.9C456.89,264.81,456.08,264.03,455.34,262.97z"/>
		<path class="st11" d="M365.7,420.7c-2.8-0.21-5.51-0.79-8.03-2.07c-1.51-0.77-1.67-1.88-0.93-4.14c0.58-1.75,1.8-1.2,2.87-0.93
			c1.8,0.45,3.51,1.13,5.38,1.42c3.42,0.53,3.83,1.32,3.03,4.79c-0.08,0.34-0.22,0.67-0.33,1
			C367.03,420.75,366.37,420.73,365.7,420.7z"/>
		<path class="st11" d="M386.49,426.09c-3.08-0.66-6.15-1.43-9.26-1.92c-1.41-0.22-1.83-0.76-1.6-2.05c0.12-0.69,0.19-1.4,0.29-2.1
			c0.19-1.3,0.88-1.84,2.21-1.47c1.93,0.53,3.87,1.02,5.79,1.55c4.11,1.13,4.54,2.05,2.88,5.92c0,0-0.18-0.09-0.18-0.09
			L386.49,426.09z"/>
		<path class="st11" d="M265.25,216.21c-0.15,0.26-0.35,0.69-0.61,1.07c-1.4,2.03-2.84,4.05-4.23,6.09
			c-0.63,0.93-1.35,1.37-2.29,0.49c-0.93-0.87-2.91-1.27-1.89-3.18c1.27-2.37,2.67-4.67,4.16-6.9c0.46-0.69,1.09-1.64,2.26-1.28
			C263.59,212.8,265.35,215.2,265.25,216.21z"/>
		<path class="st17" d="M368.35,381.13c-0.17,0.32-0.34,0.77-0.61,1.14c-1.38,1.92-2.79,3.82-4.19,5.73
			c-0.76,1.02-1.61,1.1-2.78,0.54c-1.27-0.62-2.05-1.83-1.57-2.78c1.3-2.56,2.09-5.5,4.7-7.27c0.66-0.45,1.23-0.92,1.75-0.11
			C366.37,379.46,368.2,379.37,368.35,381.13z"/>
		<path class="st11" d="M274.38,92.53c2.7-0.73,5.4-1.43,8.09-2.21c1.29-0.37,2.66-0.68,3.14,0.91c0.79,2.6,0.18,4.07-1.86,4.35
			c-2.11,0.3-3.97,1.29-6.04,1.67c-2.38,0.44-2.36,0.5-3.16-1.79c-0.15-0.44-0.38-0.85-0.57-1.27
			C274.12,93.64,274.25,93.08,274.38,92.53z"/>
		<path class="st11" d="M113.17,426.27c1.76,2.67,3.57,5.2,5.29,7.81c1.12,1.7,0.3,2.22-0.82,3.03c-1.08,0.78-1.96,1.66-3.23,0.1
			c-1.7-2.09-2.75-4.6-4.63-6.58c-0.77-0.81-0.38-2.04,0.68-2.73C111.32,427.34,112.22,426.84,113.17,426.27z"/>
		<path class="st11" d="M293.73,87.85c2.38-0.6,4.78-1.08,7.24-1.37c2.23-0.27,1.98,1.29,2.4,2.59c0.53,1.62-0.06,2.52-1.54,2.84
			c-2.73,0.59-5.48,1.14-8.25,1.5c-1.67,0.22-1-1.49-1.49-2.26c0.23-0.84,0.03-1.65-0.16-2.46c0.2-0.13,0.4-0.26,0.6-0.38
			C293.05,88.49,293.46,88.36,293.73,87.85z"/>
		<path class="st17" d="M352.46,400.52c-1.08-0.15-1.46-1.08-2.01-1.81c-2.1-2.79-2.25-1.86,0.02-4.38
			c0.71-0.78,1.47-1.51,2.22-2.26c1.97-1.96,5.17-1.06,5.95,1.69c0.08,0.29,0.04,0.77-0.14,0.96c-1.78,1.86-3.59,3.68-5.41,5.49
			C352.93,400.37,352.67,400.42,352.46,400.52z"/>
		<path class="st18" d="M273.84,569.81c-0.96-1.85,0.6-3.42,0.57-5.17c0.53,0.02,1.06,0.03,1.59,0.05c1.18,0.28,2.22,1.38,3.58,0.58
			c0.49,0.07,0.99,0.14,1.48,0.22c1.46,1.03,3.16,0.62,4.77,0.77c0,0,0.09,0.07,0.09,0.07c0.09,0.25,0.19,0.49,0.28,0.74
			c-0.13,1.38-0.26,2.75-0.38,4.12c-1.63,0.16-3.2-0.11-4.81-0.4c-2.14-0.39-4.22-1.32-6.48-0.94
			C274.31,569.83,274.08,569.82,273.84,569.81z"/>
		<path class="st17" d="M373.09,363.16c3.15,2.73,3.19,2.74,1.65,6.42c-0.59,1.41-1.34,2.75-2.08,4.1
			c-0.58,1.06-1.25,1.36-2.58,0.78c-2.64-1.14-3.02-1.56-1.55-4.02C369.95,368.05,370.38,365.06,373.09,363.16z"/>
		<path class="st11" d="M252.68,226.68c1.15,0.43,2.22,1.18,2.92,2.27c0.57,0.88-0.36,1.53-0.79,2.15c-1.53,2.21-3.15,4.35-4.77,6.5
			c-0.19,0.25-0.62,0.52-0.88,0.47c-1.41-0.28-1.87-1.67-2.79-2.53c-0.65-0.62-0.24-1.25,0.22-1.85c1.56-2.05,3.14-4.08,4.6-6.19
			C251.59,226.92,251.95,226.67,252.68,226.68z"/>
		<path class="st15" d="M229.59,371.88c0.09,0.99-2.45,3.4-3.53,3.09c-2.74-0.79-4.44-3.18-6.79-4.6c-0.56-0.34-0.43-1.7,0.02-2.31
			c0.57-0.76,1.32-1.81,2.51-1.45c2.63,0.78,5.12,1.87,7.02,3.96C229.13,370.91,229.3,371.37,229.59,371.88z"/>
		<path class="st12" d="M431.18,283.38c-1.88-0.19-2.6-1.54-3.41-2.61c-0.74-0.97,0.11-1.75,0.83-2.36c1.88-1.59,4.1-2.58,6.32-3.57
			c0.84-0.37,1.35,0.01,1.69,0.73c0.44,0.94,0.76,1.94,1.26,2.84c0.22,0.4,0.19,0.73-0.05,0.9
			C435.66,280.87,432.99,281.56,431.18,283.38z"/>
		<path class="st15" d="M421.14,243.66c-2.54-1.51-2.63-1.88-1.59-4.26c0.82-1.89,1.54-3.82,2.24-5.76
			c0.56-1.55,1.34-1.94,2.91-1.08c1.2,0.65,2.53,0.53,1.73,2.75c-1.02,2.8-1.82,5.68-3.22,8.33
			C422.52,243.42,421.83,243.38,421.14,243.66z"/>
		<path class="st12" d="M218.47,489.85c2.31,3.22,2.33,3.24-0.47,6.2c-0.89,0.94-1.87,1.81-2.86,2.65c-1.16,0.99-2.3,1-3.46-0.09
			c-1.54-1.45-1.62-2.4-0.03-3.81c1.77-1.57,3.8-2.83,5.32-4.68C217.47,490.03,217.97,489.94,218.47,489.85z"/>
		<path class="st11" d="M126.81,451.46c-2.4-1.5-4.5-3.32-6.03-5.72c-0.96-1.51-0.69-2.94,0.69-3.98c1.22-0.91,2.44-0.71,3.58,0.81
			c1.27,1.68,2.3,3.53,3.89,4.98c1,0.91,0.75,1.91-0.16,2.74c-0.52,0.46-1.14,0.81-1.71,1.21c0-0.01-0.11-0.18-0.11-0.18
			L126.81,451.46z"/>
		<path class="st16" d="M158.78,402.63c-0.23-2.56-0.45-5.13-0.68-7.69c-0.11-1.16-0.47-2.33,1.43-2.48c2.6-0.2,3.5,0.06,3.73,1.94
			c0.34,2.77,0.71,5.56,0.29,8.37C161.96,402.73,160.37,402.68,158.78,402.63z"/>
		<path class="st15" d="M433.15,199.4c0.7,0.04,1.4,0.09,2.1,0.13c0.24,0.46,0.48,0.92,0.73,1.38c-0.1,2.46-1.54,4.67-1.38,7.18
			c-0.08,0.04-0.23,0.1-0.23,0.14c0.02,0.16,0.09,0.32,0.14,0.48c-0.2,0.55-0.39,1.1-0.59,1.65c-1.01-0.28-2-0.34-2.95,0.23
			c-0.26-1.05-1.75-1.37-1.58-2.67c0.89-2.77,0.8-5.77,2.01-8.46C431.98,199.44,432.57,199.42,433.15,199.4z"/>
		<path class="st15" d="M424.8,225.09c0.74-2.64,1.24-5.34,1.97-7.98c0.6-2.15,1.96-1.04,3-1.2c1.28-0.19,1.95,0.54,1.98,1.82
			c0.03,1.16-0.05,2.3-0.69,3.34c-1.06,1.7-1.28,3.63-1.44,5.57c-1.56,0.57-2.86-0.52-4.31-0.66c0,0-0.16-0.15-0.16-0.15
			C425.03,225.57,424.91,225.33,424.8,225.09z"/>
		<path class="st15" d="M118.45,302.28c-0.28-1.06-0.45-2.13-0.12-3.22c0.65-0.07,1.24-0.26,1.7-0.76c1.58-0.38,3.15-0.77,4.73-1.13
			c1.1-0.26,2.25-0.85,2.77,0.93c0.62,2.13,0.23,3.78-1.25,4.39c-2.18,0.9-4.48,0.83-6.78,0.8
			C119.16,302.95,118.8,302.61,118.45,302.28z"/>
		<path class="st10" d="M315.42,493.13c0.5,0.08,0.77,0.4,1.08,0.78c1.51,1.83,2.37,4.04,3.48,6.09c0.85,1.58-0.74,2.2-1.77,2.92
			c-1.21,0.84-1.96,0.23-2.58-0.78c-0.99-1.6-2-3.19-2.92-4.83C311.84,495.74,313.57,493.12,315.42,493.13z"/>
		<path class="st15" d="M164.65,410.09c0.43,2.91,0.84,5.83,0.83,8.78c-1.8,0.4-3.61,0.54-5.43,0.15c-0.31-2.92-0.32-5.85-0.21-8.79
			C161.44,410.19,163.04,410.14,164.65,410.09z"/>
		<path class="st17" d="M374.32,357.23c0.36-2.23,2-4.06,1.99-6.4c0.63-0.33,1.56-0.47,0.98-1.55c0.07-0.16,0.2-0.26,0.37-0.3
			c0.95,0.13,1.91,0.25,2.86,0.38c1.85,0.59,2.4,1.6,1.46,3.48c-0.93,1.86-1.57,3.87-2.33,5.81c-1.07,0.01-2.15,0.02-3.22,0.04
			c0,0-0.09-0.18-0.09-0.18C376.07,357.43,375.29,357.18,374.32,357.23z"/>
		<path class="st14" d="M54.67,360.81c0.88,0.05,1.71,0.32,1.99,1.22c1.07,3.46,2.94,6.4,5.53,8.94c0.28,0.27,0.23,0.88,0.33,1.34
			c-0.94-0.03-1.88,0.02-2.81-0.11c-2.84-0.38-4.92-2.35-5.3-5.16C54.13,364.97,53.86,362.86,54.67,360.81z"/>
		<path class="st10" d="M329.17,514.1c0.11,0.7-0.2,1.01-0.61,1.29c-1.65,1.14-3.79,0.8-4.92-0.98c-0.83-1.3-1.56-2.61-2.83-3.57
			c-0.96-0.73-0.76-1.58,0.04-2.41c1.93-2.01,3.27-1.99,4.51,0.33c0.69,1.28,1.7,2.25,2.55,3.38
			C328.4,512.8,328.8,513.53,329.17,514.1z"/>
		<path class="st19" d="M562.64,294.77c-0.04,0.82-0.05,1.65-0.12,2.47c-0.22,2.5-0.59,2.73-3.07,2.54c-1.46-0.11-2.15-0.66-2-2.19
			c0.15-1.52,0.16-3.05,0.28-4.57c0.17-2.23,2.56-3.44,4.43-2.26c0.43,0.27,0.59,0.7,0.58,1.2c-0.03,0.94-0.08,1.88-0.12,2.82
			C562.63,294.77,562.64,294.77,562.64,294.77z"/>
		<path class="st14" d="M92.44,372.95c0.1-0.76,0.44-1.48,1.28-1.39c6.31,0.7,8.06-4.11,10.01-8.44c0.56-1.24,1.1-1.62,2.26-1.58
			c0.57,6.91-0.74,8.78-7.29,10.74C96.63,372.9,94.57,373.12,92.44,372.95z"/>
		<path class="st15" d="M432.58,189.49c0.24-2.07,0.47-4.13,0.71-6.2c0.45-0.02,0.89-0.05,1.34-0.07c1,0.93,2.83,0.38,3.47,1.94
			c0.12,0.81,0.08,1.61-0.21,2.38c-0.27,0.11-0.34,0.31-0.25,0.57c0,0.96,0,1.91,0,2.87c-0.09,0.44-0.18,0.88-0.28,1.32
			c-1.58,0.84-3.18,0.09-4.77,0.03c-0.04-0.48-0.09-0.96-0.13-1.43C432.86,190.46,432.93,189.99,432.58,189.49z"/>
		<path class="st15" d="M86.71,268.4c-1.17-1.5-0.82-3.2-0.29-4.72c0.26-0.75,0.25-1.52,0.53-2.23c1.09-0.04,2.18-0.08,3.26-0.11
			c1.66,0.17,2.44,0.53,1.67,2.61c-0.53,1.44-0.66,3.06-1.55,4.41C89.13,268.37,87.92,268.39,86.71,268.4z"/>
		<path class="st14" d="M63.99,372.73c0.3-1.53,1.56-1.41,2.52-1.19c5.61,1.24,11.29,0.41,16.93,0.67c1.01,0.05,2.22-0.31,2.59,1.18
			C78.65,374.1,71.32,373.5,63.99,372.73z"/>
		<path class="st11" d="M415.79,434.03c-1.3,0.14-2.1-0.32-1.99-1.94c0.17-2.49,0.67-3.32,2.19-3.19c1.34,0.12,2.53,0.28,2.34,2.23
			C418.08,433.63,417.85,434.08,415.79,434.03z"/>
		<path class="st11" d="M277.15,191.65c0.65-0.07,1.22,0.31,1.51,1c0.37,0.89,0.35,1.81-0.18,2.64c-0.28,0.45-0.76,0.51-1.22,0.32
			c-0.53-0.23-1.07-0.47-1.52-0.82c-0.75-0.59-2.16-0.98-1.56-2.26C274.68,191.47,275.96,191.65,277.15,191.65z"/>
		<path class="st15" d="M502.26,149.64c0.81,0.45,1.81,0.92,1.2,2.05c-0.56,1.04-1.23,2.34-2.19,2.78
			c-1.11,0.51-1.85-0.51-1.78-1.79C500.59,151.83,500.8,150.16,502.26,149.64z"/>
		<path class="st20" d="M160.12,543.45c6.46-0.01,12.92-0.03,19.38-0.04c0.49,0,0.92,0.12,1.21,0.54
			c-5.97,0.43-11.94,0.23-17.91,0.08C161.88,544.02,160.9,544.13,160.12,543.45z"/>
		<path class="st20" d="M274.54,569.85c2.25-0.38,4.34,0.55,6.48,0.94c1.61,0.29,3.18,0.56,4.81,0.4c-0.09,0.63-0.57,1.39-0.99,1.24
			c-3.27-1.16-6.85-0.68-10.07-2C274.69,570.24,274.61,570.05,274.54,569.85z"/>
		<path class="st16" d="M228.44,556.92c0.49-0.97,0.79-2.06,1.73-2.75c0.83-0.16,0.99-0.76,0.98-1.48c0,0-0.03,0.03-0.03,0.03
			c0.52-0.05,1.05-0.1,1.57-0.15c0,0,0.05,0.07,0.05,0.07c-0.02,0.31-0.05,0.62-0.07,0.93
			C232.04,555.67,231.19,557.49,228.44,556.92z"/>
		<path class="st11" d="M347.86,413.78c-0.07-0.82,0.47-1.58,1.11-2.24c0.32-0.34,0.84-0.28,1.28-0.01c0.4,0.24,0.35,0.64,0.17,0.89
			c-0.46,0.62-0.34,1.32-0.47,1.99c-0.13,0.68-0.29,1.58-1.12,1.5C347.74,415.81,347.91,414.77,347.86,413.78z"/>
		<path class="st20" d="M110.93,180.37c4.48,0.3,8.95,0.9,13.46,0.64C119.83,182.42,115.36,181.76,110.93,180.37z"/>
		<path class="st20" d="M150.04,541.94c0.29-0.16,0.63-0.49,0.88-0.44c3.03,0.62,6.05,1.29,9.07,1.95
			C156.58,543.61,153.19,543.58,150.04,541.94z"/>
		<path class="st13" d="M534.99,223.58c-3.32,0.78-4.93,0.11-5.67-2.39c1.9,0.67,3.8,1.35,5.7,2.02
			C534.95,223.33,534.94,223.45,534.99,223.58z"/>
		<path class="st20" d="M161.48,387.83c0.98-0.72,1.98-1.02,3.27-0.78c1.95,0.37,3.95,0.42,5.94,0.19c-0.47,1-1.38,0.71-2.16,0.71
			C166.18,387.94,163.83,387.88,161.48,387.83z"/>
		<path class="st20" d="M163.58,493.75c3.56-0.28,7.11-0.13,10.67,0.04C170.69,494.79,167.14,494.66,163.58,493.75z"/>
		<path class="st20" d="M201.26,535.78c1.92,0,3.84,0.01,5.76,0.01C204.95,537.46,203.95,537.46,201.26,535.78z"/>
		<path class="st11" d="M331.42,285.65c-4.66-6.68-9.33-13.35-14.01-20.02c-0.2-0.29-0.39-0.6-0.64-0.84
			c-1.43-1.32-3.24-0.79-3.85,1.11c-0.74,2.28-1.89,4.32-3.54,6.07c-0.44-0.23-0.88-0.46-1.32-0.69c-1.09-0.66-2.31-1.54-3.35-0.26
			c-0.6,0.74-0.54,2.01-0.21,2.98c0.3,0.9,1.28,0.81,2.08,0.86c0.02,0.54,0.05,1.08,0.07,1.62c-0.44,2.01-1.52,3.7-2.63,5.38
			c-1.52,2.28-1.23,3.01,1.42,3.37c0.82,0.11,1.65,0.05,2.48,0.07c5.44,0.18,10.88,0.11,16.3,0.84c2.51,0.33,5.03,0.51,7.77,0.78
			C331.71,286.27,331.61,285.93,331.42,285.65z"/>
		<path class="st9" d="M221.84,544.36c-3.24,1.01-6.57,0.34-9.85,0.47c2.23-1.3,4.71-0.37,7.04-0.76
			C219.97,544.17,220.91,544.26,221.84,544.36z"/>
		<path class="st8" d="M502.26,149.64c-1.47,0.52-1.67,2.18-2.76,3.04c-0.29-0.31-0.59-0.62-0.88-0.94
			c0.38-1.75,1.68-2.84,2.91-3.98C501.39,148.54,501.81,149.1,502.26,149.64z"/>
		<path class="st8" d="M504.39,140.37c-1.26-0.7-2.64-0.55-4.01-0.58c-1.81-0.04-3.69,0.43-5.39-0.64c2.58-0.05,5.16-0.08,7.73-0.14
			C503.69,138.99,504.3,139.36,504.39,140.37z"/>
		<path class="st8" d="M173.5,502.35c-3.05,1.15-6.11,1.12-9.18,0.04C167.38,502.37,170.44,502.36,173.5,502.35z"/>
		<path class="st20" d="M239.01,387.84c2.4-0.2,4.65,1,7.06,0.73C243.59,389.45,241.18,389.85,239.01,387.84z"/>
		<path class="st12" d="M240.36,56.1c-3.02,1.13-6.14,0.27-9.21,0.5c0.25-0.25,0.49-0.5,0.74-0.75c2.35-0.04,4.7-0.07,7.05-0.11
			C239.41,55.86,239.89,55.98,240.36,56.1z"/>
		<path class="st9" d="M122.97,112.68c-3.05,0-6.1,0-9.15,0c0.26-0.69,0.92-0.48,1.41-0.62c0.24-0.02,0.47-0.05,0.71-0.07
			C118.3,112.02,120.73,111.37,122.97,112.68z"/>
		<path class="st20" d="M123.01,189.6c-3.06,1.04-6.12,1.17-9.17-0.07C116.9,189.55,119.96,189.58,123.01,189.6z"/>
		<path class="st20" d="M440.43,547.84c2.42-1.18,5.05-1.23,7.64-1.46c-0.71,1.04-1.92,0.59-2.86,0.96
			c-0.35-0.05-0.66,0.04-0.87,0.34C443.04,547.73,441.73,547.78,440.43,547.84z"/>
		<path class="st20" d="M307.25,573.14c0.43,0.04,0.86,0.08,1.28,0.11c-2.79,1.37-5.62,0.66-8.45,0.2c0.08-0.1,0.16-0.21,0.25-0.31
			c0.63-0.03,1.25-0.05,1.88-0.08c1.47,0.02,2.93,0.04,4.4,0.06c0,0,0.32,0.07,0.32,0.07S307.25,573.14,307.25,573.14z"/>
		<path class="st20" d="M425.31,225.96c1.45,0.14,2.75,1.24,4.31,0.66c0,0.12,0.05,0.31,0,0.33
			C428.2,227.79,426.26,227.33,425.31,225.96z"/>
		<path class="st13" d="M535.64,259.86c1.31-1.98,2.36-1.95,3.55,0.09C538,260.18,536.82,260.19,535.64,259.86z"/>
		<path class="st16" d="M425.45,180.38c2.34,0.14,4.76-0.58,7.01,0.59c-1.88,0.04-3.77,0.08-5.65,0.13
			C426.41,180.75,425.59,181.2,425.45,180.38z"/>
		<path class="st8" d="M220.77,334.9c-0.14-0.31-0.24-0.66-0.44-0.92c-0.47-0.6-0.78-1.43-0.06-1.75c0.87-0.39,1.47,0.26,1.52,1.25
			C221.45,333.96,221.11,334.43,220.77,334.9z"/>
		<path class="st9" d="M231.09,543.68c-2.19,0.94-4.5,0.36-6.76,0.54c0-0.13-0.02-0.26-0.05-0.38c1.81-0.14,3.63-0.28,5.44-0.41
			C230.17,543.51,230.63,543.59,231.09,543.68z"/>
		<path class="st21" d="M426.81,181.09c1.88-0.04,3.77-0.08,5.65-0.13c0.21,0.14,0.43,0.18,0.68,0.12c0.07,0.18,0.16,0.36,0.24,0.54
			C431.18,181.54,428.92,182.27,426.81,181.09z"/>
		<path class="st8" d="M432.6,192.33c1.59,0.06,3.18,0.81,4.77-0.03c-0.12,0.44-0.27,1.15-0.67,1.07
			C435.32,193.08,433.68,193.74,432.6,192.33z"/>
		<path class="st20" d="M485.94,245.57c-2.18,0.13-4.35,0.35-6.54,0.1C481.57,244.81,483.74,244.52,485.94,245.57z"/>
		<path class="st20" d="M294.03,572.47c1.98,0.09,3.97,0.17,5.96,0.26c0.09,0.16,0.2,0.3,0.34,0.42c-0.08,0.1-0.17,0.2-0.25,0.31
			C298.06,573.1,295.84,574.05,294.03,572.47z"/>
		<path class="st20" d="M469.54,247.18c-1.96,1.22-4.18,0.53-6.26,0.83C465.22,246.58,467.43,247.24,469.54,247.18z"/>
		<path class="st8" d="M429.4,207.92c-0.16,1.3,1.32,1.62,1.58,2.67c0,0,0.06,0.34,0.06,0.34c-0.8-0.4-1.78-0.62-2.37-1.23
			C427.87,208.89,428.02,208.06,429.4,207.92z"/>
		<path class="st20" d="M87.49,256.98c1.57,0.1,3.46-0.81,4.35,1.38C90.26,258.31,88.88,257.62,87.49,256.98z"/>
		<path class="st8" d="M279.59,565.27c-1.36,0.8-2.4-0.3-3.58-0.58c-0.02-0.18-0.02-0.36-0.01-0.55
			C277.24,564.36,278.77,563.68,279.59,565.27z"/>
		<path class="st8" d="M164.65,410.09c-1.6,0.05-3.21,0.1-4.81,0.15C161.33,408.88,162.8,408.83,164.65,410.09z"/>
		<path class="st20" d="M160.05,419.02c1.82,0.38,3.63,0.24,5.43-0.15C163.38,420.3,162.3,420.33,160.05,419.02z"/>
		<path class="st8" d="M291.93,88.68c0.19,0.81,0.39,1.63,0.16,2.46C290.67,90.43,290.61,89.62,291.93,88.68z"/>
		<path class="st8" d="M488.69,138.31c-1.57,0.21-3.2-0.52-4.72,0.32C485.34,137.23,485.91,137.19,488.69,138.31z"/>
		<path class="st12" d="M433.38,181.62c-0.09-0.18-0.17-0.36-0.24-0.54c1.68-0.1,3.37-0.32,4.97,0.45c-0.4,0.04-0.79,0.08-1.19,0.13
			c-0.31,0.03-0.61,0.05-0.92,0.08C435.12,181.7,434.25,181.66,433.38,181.62z"/>
		<path class="st9" d="M434.63,183.22c0.94-0.03,1.88-0.05,2.82-0.08c0.86,0.47,1.02,1.16,0.65,2.02
			C437.46,183.6,435.63,184.15,434.63,183.22z"/>
		<path class="st20" d="M81.93,256.92c1.61,0.05,3.22,0.1,4.83,0.14C85.12,258.08,83.5,258.2,81.93,256.92z"/>
		<path class="st8" d="M132.84,295.35c-0.65,0.63-0.71,1.49-0.91,2.3c-0.92-0.02-1.27-0.57-1.07-1.37
			C131.12,295.23,132.03,295.34,132.84,295.35z"/>
		<path class="st20" d="M156.46,387.9c1.65-0.02,3.3-0.04,4.95-0.06c-1.58,0.98-3.3,0.66-5,0.53
			C156.4,388.21,156.41,388.05,156.46,387.9z"/>
		<path class="st20" d="M150.12,388.54c1.19-0.07,2.38-0.13,3.57-0.2c0.43,0.07,0.86,0.15,1.29,0.22
			C153.36,389.24,151.74,389.62,150.12,388.54z"/>
		<path class="st20" d="M158.78,402.63c1.59,0.05,3.18,0.09,4.77,0.14C161.94,403.54,160.32,404.31,158.78,402.63z"/>
		<path class="st20" d="M460.25,530.74c1.19,0,2.38,0.01,3.57,0.01C462.49,532.39,462.49,532.39,460.25,530.74z"/>
		<path class="st8" d="M443.89,539.9c-0.21-0.08-0.49-0.09-0.63-0.24c-0.55-0.59-1.43-1.23-0.75-2.08c0.51-0.64,1.27,0.15,1.93,0.22
			C444.01,538.44,443.91,539.16,443.89,539.9z"/>
		<path class="st8" d="M231.09,543.68c-0.46-0.09-0.91-0.17-1.37-0.26c1.68-0.67,3.36-1.25,5.03,0.02
			C233.53,543.52,232.31,543.6,231.09,543.68z"/>
		<path class="st8" d="M224.28,543.84c0.04,0.13,0.05,0.25,0.05,0.38c-0.83,0.05-1.65,0.09-2.49,0.14c-0.94-0.1-1.88-0.19-2.82-0.29
			C220.75,543.29,222.51,543.46,224.28,543.84z"/>
		<path class="st20" d="M285.84,566.25c-1.61-0.15-3.31,0.26-4.77-0.77C282.71,565.44,284.4,565.08,285.84,566.25z"/>
		<path class="st8" d="M274.38,92.53c-0.13,0.55-0.26,1.11-0.39,1.66c-0.85-0.06-0.87-0.64-0.7-1.22
			C273.45,92.44,273.87,92.31,274.38,92.53z"/>
		<path class="st8" d="M149.8,385.62c0.13,0.77,0.26,1.53-0.09,2.28c-0.89-0.03-1.13-0.58-1.07-1.36
			C148.7,385.83,149.17,385.62,149.8,385.62z"/>
		<path class="st8" d="M459.75,129.02c-0.35,0-0.67-0.08-0.67-0.5c0-0.38,0.28-0.56,0.63-0.57c0.59-0.03,1.11,0.06,1.06,0.84
			C460.43,128.86,460.09,128.94,459.75,129.02z"/>
		<path class="st8" d="M156.81,366.4c0.48,1.12-0.15,1.73-1.01,2.24C155.63,367.66,155.31,366.62,156.81,366.4z"/>
		<path class="st8" d="M305.06,568.28c-1.38,0.31-2.75,0.13-4.12-0.06c-0.02-0.16-0.04-0.33-0.04-0.5
			C302.3,567.84,303.76,567.43,305.06,568.28z"/>
		<path class="st8" d="M565.72,244.83c-0.17-0.61-0.58-1.5,0.32-1.63c0.87-0.12,0.78,0.87,0.85,1.51
			C566.5,244.75,566.11,244.79,565.72,244.83z"/>
		<path class="st8" d="M371.5,91.96c-0.21-0.81,0.37-1.28,0.84-1.88c0.42,0.64,0.28,1.25,0.1,1.87
			C372.13,92.15,371.82,92.14,371.5,91.96z"/>
		<path class="st20" d="M474.5,246.44c-1.32,1.02-2.84,0.78-4.34,0.67C471.49,246.13,473,246.3,474.5,246.44z"/>
		<path class="st20" d="M182.15,543.51c1.36-1,2.77-1.11,4.24-0.24C184.97,543.35,183.56,543.43,182.15,543.51z"/>
		<path class="st8" d="M365.7,420.7c0.66,0.02,1.33,0.05,1.99,0.07c-0.09,0.75-0.6,0.96-1.25,0.91
			C365.87,421.65,365.72,421.21,365.7,420.7z"/>
		<path class="st13" d="M525.49,258.93c1.18-1.47,1.58-1.43,2.31,0.22C527.01,259.33,526.23,259.3,525.49,258.93z"/>
		<path class="st8" d="M228.8,381.41c0.01,0.71,0.02,1.42,0.02,2.13c-0.65,0.07-1.15-0.11-1.22-0.85
			C227.53,381.84,227.93,381.39,228.8,381.41z"/>
		<path class="st8" d="M94.52,239.25c-1.1,0.06-2.21,0.12-3.31,0.17C92.24,237.94,93.36,238.21,94.52,239.25z"/>
		<path class="st8" d="M374.32,357.23c0.97-0.05,1.75,0.19,2.01,1.26C375.3,358.66,374.58,358.31,374.32,357.23z"/>
		<path class="st8" d="M297.26,567.55c-1.06,0.1-2.12,0.19-3.18,0.28C295.02,566.36,296.15,567.06,297.26,567.55z"/>
		<path class="st20" d="M478.78,245.74c-1.1,0.92-2.38,0.77-3.66,0.62C476.23,245.5,477.5,245.58,478.78,245.74z"/>
		<path class="st8" d="M170.76,430.31c-1.23,0.27-2.46,0.27-3.69,0.01C168.3,429.52,169.52,429.51,170.76,430.31z"/>
		<path class="st8" d="M290.11,356.23c-0.46,0.18-0.92,0.15-0.94-0.42c-0.02-0.61,0.48-0.89,1.03-1.05
			C290.17,355.26,290.14,355.74,290.11,356.23z"/>
		<path class="st8" d="M90.22,261.33c-1.09,0.04-2.18,0.08-3.26,0.11C88,260.22,89.1,260.5,90.22,261.33z"/>
		<path class="st8" d="M348.35,399.92c-1.08-0.03-2.15-0.06-3.23-0.09C346.21,399.18,347.3,398.7,348.35,399.92z"/>
		<path class="st20" d="M96.7,258.47c1.21-0.49,2.42,0.01,3.63,0.02C99.11,259.65,97.91,259.01,96.7,258.47z"/>
		<path class="st8" d="M194.95,474.48c-0.14-1.18-0.15-2.36,0.27-3.5C195.83,472.21,195.85,473.38,194.95,474.48z"/>
		<path class="st20" d="M86.71,268.4c1.21-0.02,2.42-0.03,3.63-0.05C89.15,269.6,87.93,269.03,86.71,268.4z"/>
		<path class="st20" d="M436.93,182.11c-0.08-0.15-0.08-0.3-0.02-0.45c0.4-0.04,0.8-0.08,1.19-0.13c0.78,0.08,1.56,0.16,2.34,0.23
			c0,0.13-0.03,0.27-0.07,0.39C439.23,182.49,438.08,182.26,436.93,182.11z"/>
		<path class="st20" d="M194.17,525.69c-0.21-0.78-0.44-1.71,0.52-2c0.96-0.28,1.01,0.54,0.91,1.26
			C194.94,524.82,194.6,525.34,194.17,525.69z"/>
		<g>
			<path class="st15" d="M321.64,370.89c-0.84-0.43-1.59,0.68-2.4,1.07c-1.87,0.91-3.03,2.45-4.23,4.05
				c-1.13,1.52-0.56,2.4,0.59,3.57c1.22,1.24,2.13,1.18,3.26,0.07c1.57-1.55,3.12-3.11,4.79-4.55c0.41-0.35,0.6-0.62,0.63-1.09
				c-0.04-0.23,0-0.53-0.13-0.68C323.35,372.47,322.64,371.4,321.64,370.89z"/>
			<path class="st15" d="M326.52,368.16c0.15,0.16,0.33,0.29,0.49,0.44c0.94,1.56,1.23,1.54,2.25-0.16c0.02-0.4,0.04-0.8,0.06-1.2
				c-0.71-0.52-1.42-1.04-2.13-1.55C324.85,366.46,324.85,366.46,326.52,368.16z"/>
			<path class="st15" d="M342.07,347.92c-2.83,1.23-5.66,2.45-8.48,3.68c-1.13-0.01-2.44-0.52-2.97,1.1
				c-2.68,1.02-5.37,2.02-8.04,3.06c-0.69,0.27-1.8,0.03-1.77,1.27c0.02,0.91-0.18,1.82,0.64,2.63c1.01,1,2.03,1.95,3.37,2.4
				c1.19,0.4,2.2,0.87,2.43,2.25c1.23,0.8,2.25,1.82,3.21,2.92c1.61,1.02,2.57,2.69,3.92,3.97c1.9,1.81,3.28,1.52,4.16-0.93
				c2.62-7.29,5.04-14.65,7.08-22.13C344.54,346.39,343.31,347.09,342.07,347.92z"/>
		</g>
		<path class="st20" d="M443.06,182.22c0.94,0.04,1.87,0.09,2.81,0.13c-1.08,1.37-2.24,0.67-3.39,0.13
			C442.67,182.37,442.86,182.29,443.06,182.22z"/>
		<path class="st8" d="M376.43,358.68c1.07-0.01,2.15-0.03,3.22-0.04C378.59,359.97,377.51,359.69,376.43,358.68z"/>
		<path class="st12" d="M483.97,140.61c0.52,0.8,1.24,1.53,1.08,2.61C483.9,142.68,483.58,141.79,483.97,140.61z"/>
		<path class="st16" d="M154.98,388.56c-0.43-0.07-0.86-0.15-1.29-0.22c0.84-0.67,1.81-0.51,2.77-0.44
			c-0.05,0.15-0.06,0.31-0.05,0.47C155.93,388.43,155.45,388.5,154.98,388.56z"/>
		<path class="st21" d="M105.55,356.66c-0.27-0.41-0.46-1.02,0.05-1.16c0.73-0.2,0.9,0.44,0.87,1.07
			C106.17,356.6,105.86,356.63,105.55,356.66z"/>
		<path class="st20" d="M132.15,299.74c0.59,0.15,0.93,0.55,1.06,1.13c-0.51,0.2-1.04,0.33-1.42-0.18
			C131.47,300.26,131.68,299.93,132.15,299.74z"/>
		<path class="st8" d="M379.92,288.61c0.7-0.24,1.1,0.05,1.28,0.72C380.46,289.64,380,289.46,379.92,288.61z"/>
		<path class="st8" d="M298.23,271.65c0.26-0.1,0.51-0.19,0.77-0.28c0.2,0.35,0.17,0.7-0.2,0.83
			C298.41,272.33,298.19,272.08,298.23,271.65z"/>
		<path class="st8" d="M241.13,367.82c-0.9,0.07-1.8,0.14-2.69,0.21C239.27,367.16,240.16,367.01,241.13,367.82z"/>
		<path class="st8" d="M377.29,349.27c0.58,1.09-0.35,1.23-0.98,1.55C376.14,350,376.52,349.52,377.29,349.27z"/>
		<path class="st8" d="M380.52,349.35c-0.95-0.12-1.91-0.25-2.86-0.38C378.68,348.51,379.67,348.41,380.52,349.35z"/>
		<path class="st8" d="M326.85,409.05c0,0.55,0.01,1.09,0.01,1.64c-0.45-0.03-0.89-0.18-0.96-0.65
			C325.79,409.35,326.27,409.12,326.85,409.05z"/>
		<path class="st8" d="M407.16,340.06c-0.05-0.34,0-0.69,0.36-0.78c0.38-0.1,0.55,0.19,0.58,0.55
			C407.87,340.27,407.54,340.24,407.16,340.06z"/>
		<path class="st21" d="M221.47,337.26c-0.89-0.07-0.88-0.66-0.76-1.31C221.45,336.1,222.2,336.25,221.47,337.26z"/>
		<path class="st8" d="M194.06,466.05c-0.52-0.96-0.49-1.94-0.04-2.91C194.42,464.1,194.39,465.07,194.06,466.05z"/>
		<path class="st8" d="M133.07,292.61c1.32,0.36,2.12,0.9,0.76,2.19C133.57,294.08,133.32,293.35,133.07,292.61z"/>
		<path class="st8" d="M149.36,490.77c-0.5-0.02-1-0.04-1.5-0.07c0.1-0.45,0.3-0.86,0.81-0.84
			C149.18,489.89,149.39,490.27,149.36,490.77z"/>
		<path class="st14" d="M556.2,259.33c0.45-0.78,1.16-0.84,1.94-0.69C557.64,259.28,557.34,260.48,556.2,259.33z"/>
		<path class="st8" d="M514.63,242.35c0.16,0.32,0.3,0.63,0.07,0.97c-0.32,0.01-0.64,0.03-0.96,0.04
			C513.63,242.67,514.1,242.49,514.63,242.35z"/>
		<path class="st21" d="M466.04,519.33c-0.31-1,0.3-1.53,1.03-1.99C467.38,518.34,467.25,519.11,466.04,519.33z"/>
		<path class="st20" d="M428.35,550.57c0.87,0.02,1.74,0.05,2.61,0.07C430.07,551.35,429.19,551.58,428.35,550.57z"/>
		<path class="st8" d="M232.7,552.58c-0.52,0.05-1.05,0.1-1.57,0.15c-0.02-0.62,0.16-1.12,0.77-1.38
			C232.55,551.5,232.74,551.97,232.7,552.58z"/>
		<path class="st10" d="M533.94,213.79c0.67-0.09,1.31-0.09,1.67,0.64C534.81,214.86,534.39,214.29,533.94,213.79z"/>
		<path class="st21" d="M276,564.14c-0.02,0.18-0.01,0.37,0.01,0.55c-0.53-0.02-1.06-0.03-1.59-0.05
			C274.71,563.74,275.11,563.14,276,564.14z"/>
		<path class="st20" d="M300.9,567.73c0,0.17,0.01,0.33,0.04,0.5c-1,0.06-2.01,0.16-2.86-0.57
			C299.03,567.4,299.97,567.59,300.9,567.73z"/>
		<path class="st12" d="M308.5,569.09c-0.89-0.07-1.87,0.27-2.6-0.56C306.81,568.52,307.84,567.95,308.5,569.09z"/>
		<path class="st20" d="M431.03,210.93c0,0-0.06-0.35-0.06-0.34c0.94-0.57,1.94-0.51,2.95-0.23
			C433.11,211.3,431.98,210.64,431.03,210.93z"/>
		<path class="st8" d="M437.64,190.98c0-0.96,0-1.91,0-2.87c0.13-0.06,0.26-0.08,0.4-0.08
			C438.28,189.07,438.39,190.08,437.64,190.98z"/>
		<path class="st12" d="M443.06,182.22c-0.2,0.07-0.39,0.16-0.58,0.26c-0.7-0.11-1.4-0.21-2.1-0.32c0.04-0.13,0.06-0.26,0.07-0.39
			C441.36,181.68,442.28,181.56,443.06,182.22z"/>
		<path class="st20" d="M100.29,177.33c-0.91,0.16-1.82,0.41-2.76,0.17C98.42,176.84,99.31,176.44,100.29,177.33z"/>
		<path class="st8" d="M528.43,162.26c-0.14,0.61-0.49,0.91-1.13,0.75C527.27,162.14,527.69,161.95,528.43,162.26z"/>
		<path class="st8" d="M293.73,87.85c-0.27,0.51-0.68,0.64-1.2,0.45C292.67,87.46,293.07,87.31,293.73,87.85z"/>
		<path class="st8" d="M441.55,104.53c-0.1,0.84-0.51,0.93-1.16,0.49C440.63,104.5,441,104.31,441.55,104.53z"/>
		<path class="st8" d="M492.29,138.91c-1.06,0.27-2.04,0.11-2.95-0.49C490.39,138.22,491.41,138.12,492.29,138.91z"/>
		<path class="st8" d="M445.35,541.24c-0.83-0.07-1.29-0.53-1.45-1.33C444.95,539.74,445.3,540.33,445.35,541.24z"/>
		<path class="st16" d="M144.25,149.64c-0.71-0.68-0.5-1.48-0.28-2.28c0.11,0.12,0.23,0.21,0.37,0.29
			C144.31,148.32,144.28,148.98,144.25,149.64z"/>
		<path class="st20" d="M161.96,501.67c-0.73-0.02-1.48,0.01-1.96-0.71C160.76,500.89,161.58,500.69,161.96,501.67z"/>
		<path class="st9" d="M433.15,199.4c-0.58,0.02-1.17,0.04-1.75,0.06C431.95,198.48,432.54,198.6,433.15,199.4z"/>
		<path class="st8" d="M421.14,243.66c0.69-0.27,1.38-0.24,2.07-0.02C422.53,244.52,421.84,244.26,421.14,243.66z"/>
		<path class="st8" d="M230.33,379.31c-0.13,0.74-0.65,1.09-1.31,1.31C228.78,379.51,229.39,379.24,230.33,379.31z"/>
		<path class="st20" d="M249.75,559.16c-0.05-0.66-0.11-1.32-0.16-1.98C250.76,557.75,250.3,558.45,249.75,559.16z"/>
		<path class="st8" d="M105.87,125.77c0.48,0.36,0.99,0.71,0.08,1.16C105.92,126.54,105.9,126.15,105.87,125.77z"/>
		<path class="st20" d="M139.2,178.21c-0.66-0.09-1.32-0.17-1.98-0.26C138.01,177.1,138.65,177.36,139.2,178.21z"/>
		<path class="st20" d="M120.03,298.3c-0.45,0.5-1.05,0.69-1.7,0.76C118.56,298.06,119.28,298.14,120.03,298.3z"/>
		<path class="st8" d="M139.97,289.19c-0.81,0.06-1.43-0.38-2.03-0.83C138.8,288.2,139.6,288.18,139.97,289.19z"/>
		<path class="st20" d="M456.66,527.92c0.94-0.08,1.3,0.49,1.45,1.29C457.32,529.13,456.87,528.66,456.66,527.92z"/>
		<path class="st20" d="M118.45,302.28c0.35,0.34,0.71,0.67,1.06,1.01C118.83,303.29,118.13,303.33,118.45,302.28z"/>
		<path class="st8" d="M309.48,490.56c0.39-0.06,0.79-0.12,1.18-0.17C310.34,490.97,309.93,490.94,309.48,490.56z"/>
		<path class="st8" d="M435.98,200.91c-0.24-0.46-0.48-0.92-0.73-1.38C436.22,199.61,436.28,200.17,435.98,200.91z"/>
		<path class="st8" d="M432.58,189.49c0.35,0.5,0.29,0.97-0.11,1.41C432.28,190.41,432.31,189.94,432.58,189.49z"/>
		<path class="st8" d="M53.64,296.19c0.16,0.31,0.04,0.47-0.29,0.5c-0.29,0-0.44-0.15-0.29-0.33
			C53.18,296.24,53.44,296.25,53.64,296.19z"/>
		<path class="st20" d="M218.47,489.85c-0.5,0.09-1,0.18-1.5,0.27C217.32,489.23,217.83,489.18,218.47,489.85z"/>
		<path class="st8" d="M379.26,222.19c-0.16-0.55-0.14-1.06,0.31-1.48C379.9,221.3,379.78,221.79,379.26,222.19z"/>
		<path class="st8" d="M113.82,366.93c0.23,0.02,0.45,0.05,0.68,0.08c-0.09,0.18-0.16,0.49-0.26,0.5
			C113.82,367.57,113.81,367.23,113.82,366.93z"/>
		<path class="st20" d="M237.52,559.22c0.61,0.21,0.61,0.78,0.77,1.26C237.46,560.41,237.45,559.84,237.52,559.22z"/>
		<path class="st20" d="M267.27,563.47c-0.2-0.46-0.4-0.92-0.61-1.37C267.58,562.24,267.55,562.8,267.27,563.47z"/>
		<path class="st19" d="M570.39,281.22c-1.21-2.87-2.92-5.5-3.89-8.47c-0.61-1.86-1.08-3.79-1.87-5.57
			c-0.89-2.03-2.55-2.21-4.2-0.65c-0.34,0.32-0.73,0.63-0.97,1.02c-2.54,4.03-5.01,8.1-7.59,12.11c-0.65,1.01-0.63,1.96-0.39,3l0,0
			c0.03,0.84,0.25,1.44,1.29,1.05c0.46,0.02,0.93,0.04,1.39,0.07c0.08-0.13,0.17-0.22,0.27-0.29c-0.1,0.07-0.18,0.17-0.27,0.29
			c0.54,0.33,0.97,0.24,1.28-0.32c1.43-0.24,2.66-0.25,2.32,1.8c1.78,1.61,3.68,1.11,5.6,0.34l0,0c0.74-0.44,1.49-0.2,2.24-0.03
			c0.33-0.09,0.67-0.14,1-0.15c-0.33,0.01-0.67,0.06-1,0.15c1.34,0.58,2.68,1.17,4.01-0.03l0,0
			C570.98,284.29,571.2,283.14,570.39,281.22z"/>
		<path class="st8" d="M423.82,422.31c-0.39,0.22-0.79,0.22-1.19,0.04C423.01,421.8,423.41,421.81,423.82,422.31z"/>
		<path class="st20" d="M463.83,530.73c0-0.57,0.16-1.09,0.61-1.48C464.66,529.92,464.52,530.44,463.83,530.73z"/>
		<path class="st21" d="M441.14,532.88c-0.53,0.84-1.04,1.06-1.51-0.05C440.13,532.85,440.64,532.87,441.14,532.88z"/>
		<path class="st20" d="M286.21,567.07c-0.09-0.25-0.19-0.49-0.28-0.74c0.35,0.04,0.82-0.2,0.96,0.32
			C286.91,566.72,286.45,566.92,286.21,567.07z"/>
		<path class="st20" d="M266.76,566.97c-0.11-0.57-0.08-1.11,0.35-1.56C267.47,566.04,267.31,566.55,266.76,566.97z"/>
		<path class="st20" d="M100.34,178.85c0.01-0.48,0.02-0.96,0.03-1.43C101.16,177.91,100.79,178.38,100.34,178.85z"/>
		<polygon class="st8" points="386.49,426.09 386.61,425.93 386.79,426.02 386.66,426.15 		"/>
		<path class="st12" d="M150.1,296.77c-0.02-0.29,0.08-0.51,0.38-0.59C150.67,296.58,150.4,296.69,150.1,296.77z"/>
		<path class="st8" d="M404.82,431.26c0.24-0.1,0.44-0.06,0.62,0.13C405.17,431.63,404.97,431.56,404.82,431.26z"/>
		<path class="st8" d="M424.8,225.09c0.12,0.24,0.23,0.49,0.35,0.73C424.59,225.78,424.51,225.52,424.8,225.09z"/>
		<path class="st10" d="M239.04,432.1c0,0.13-0.01,0.25-0.01,0.38c-0.17-0.07-0.33-0.15-0.5-0.22
			C238.7,432.21,238.87,432.15,239.04,432.1z"/>
		<path class="st21" d="M52.97,304.79c0.11,0.19,0.17,0.4,0.19,0.62c-0.1-0.13-0.21-0.25-0.28-0.39
			C52.86,304.97,52.94,304.87,52.97,304.79z"/>
		<path class="st8" d="M185.67,442.51c-0.39-0.1-0.59-0.31-0.44-0.73C185.63,441.87,185.72,442.15,185.67,442.51z"/>
		<path class="st8" d="M186.53,303.74c0,0,0.23,0.1,0.23,0.1C186.76,303.84,186.53,303.74,186.53,303.74z"/>
		<path class="st12" d="M135.43,303.36c0.09,0.16,0.2,0.32,0.26,0.49c0.02,0.06-0.08,0.17-0.13,0.26c-0.09-0.16-0.2-0.32-0.26-0.49
			C135.27,303.56,135.38,303.45,135.43,303.36z"/>
		<path class="st8" d="M534.99,223.58c-0.05-0.13-0.03-0.25,0.04-0.37c0.21-0.07,0.34-0.01,0.41,0.19
			C535.32,223.55,535.17,223.61,534.99,223.58z"/>
		<path class="st8" d="M180.8,223.29l0.2-0.08c0,0,0.17,0.14,0.16,0.14s-0.21,0.14-0.21,0.14L180.8,223.29z"/>
		<path class="st8" d="M296.53,222.25c0.01,0.22,0.02,0.44,0.03,0.65c-0.09-0.16-0.19-0.31-0.25-0.48
			C296.29,222.4,296.45,222.31,296.53,222.25z"/>
		<path class="st9" d="M211.86,544.96c-0.16,0.18-0.32,0.36-0.48,0.54C211.28,545.08,211.51,544.97,211.86,544.96z"/>
		<path class="st21" d="M444.34,547.68c0.22-0.3,0.52-0.39,0.87-0.34C444.92,547.45,444.63,547.57,444.34,547.68z"/>
		<path class="st21" d="M427.5,549.97c0.35,0.08,0.56,0.29,0.63,0.64C427.92,550.39,427.71,550.18,427.5,549.97z"/>
		<path class="st8" d="M126.81,451.46l0.14-0.14c0,0,0.11,0.17,0.11,0.18c0,0.01-0.15,0.13-0.15,0.13L126.81,451.46z"/>
		<path class="st8" d="M232.67,553.58c0.02-0.31,0.05-0.62,0.07-0.93C233.45,553.02,232.97,553.29,232.67,553.58z"/>
		<path class="st8" d="M157.88,364.37c-0.26,0.2-0.52,0.4-0.78,0.6C157.12,364.45,157.4,364.28,157.88,364.37z"/>
		<polygon class="st12" points="150.3,293.8 150.15,293.75 150.2,293.61 150.4,293.65 		"/>
		<path class="st8" d="M193.94,461.87c-0.09-0.2-0.21-0.39-0.27-0.59c-0.02-0.07,0.12-0.19,0.19-0.28c0.09,0.2,0.21,0.39,0.26,0.59
			C194.13,461.66,194,461.78,193.94,461.87z"/>
		<path class="st21" d="M274.54,569.85c0.07,0.2,0.15,0.39,0.24,0.58c-0.42-0.04-0.74-0.24-0.94-0.62
			C274.08,569.82,274.31,569.83,274.54,569.85z"/>
		<path class="st8" d="M141.6,290.22c-0.21-0.18-0.42-0.37-0.63-0.55C141.42,289.58,141.59,289.81,141.6,290.22z"/>
		<path class="st20" d="M434.51,208.71c-0.05-0.16-0.12-0.31-0.14-0.48c0-0.03,0.15-0.09,0.23-0.14
			C434.75,208.33,434.72,208.53,434.51,208.71z"/>
		<g>
			<path class="st18" d="M414.66,547.16c-0.18-0.27-0.36-0.54-0.55-0.81c-1.16-5.52-3.28-10.54-6.24-15.44
				c-3.03-5.02-7.1-8.72-11.52-12.24c-1.21-0.96-2.86-1.31-4.28-1.26c-1.06,0.03-1.37,1.65-1.84,2.69
				c-0.23,0.51-0.73,0.93-1.15,1.34c-3.83,3.79-8.04,6.94-13.53,7.9c-0.92-0.01-1.84-0.02-2.76-0.03c-0.25,0.15-0.49,0.3-0.74,0.45
				c-2.64,0.54-5.28,0.59-7.92,0.01c-1.04-0.85-2.28-0.36-3.42-0.51c-6.68-0.39-10.98-4.73-15.23-9.17
				c-0.48-0.5-0.39-1.07-0.57-1.61c-0.85-2.59-1.01-2.54-3.74-1.41c-1.84,0.76-2.81,2.55-4.48,3.33c-3.88,1.84-5.19,5.9-7.7,8.86
				c-2.01,2.38-2.86,5.88-4.17,8.9c-3.15,7.22-4.46,14.66-4.23,22.48c0.1,3.29,1.15,6.12,3.09,8.69c0.18,0.16,0.36,0.31,0.54,0.47
				c0,0,0.11,0.07,0.11,0.07c0.25,0.2,0.5,0.4,0.75,0.61c0.48,0.24,0.97,0.48,1.45,0.72c1.58,0.72,3.15,1.03,4.69-0.12
				c1.9-0.82,3.76-1.67,3.93-4.14c1.77-0.32,1.14-1.74,1.3-2.8c-0.05-2.51,1.33-4.7,1.56-7.15c0.89,0,1.79,0,2.68,0
				c-0.09,4-0.34,8-0.24,12c0.09,3.83,2.17,6.18,5.86,7.25c0.56,0.16,1.11,0.37,1.67,0.56c0.57,0.15,1.15,0.27,1.73,0.37
				c-0.58-0.09-1.16-0.21-1.73-0.37c0.98,0.81,2.03,1.39,3.39,1.3c1.96-0.12,3.87,0.28,5.72,0.91c6.45,0,12.89,0.02,19.34,0
				c1.15,0,2.36,0.27,3.42-0.45c2.3-0.57,4.78,0.11,6.99-1.03c0.73,0.01,1.45,0.02,2.18,0.03c0.62,0.01,1.18-0.09,1.45-0.74
				c0.56,0.05,1.08-0.02,1.45-0.51c1.09-0.59,2.01-1.56,3.35-1.65c0.41-0.04,0.72-0.23,0.92-0.61c0,0,0.05-0.04,0.05-0.04
				c0.23-0.21,0.45-0.41,0.68-0.62c0,0,0.08-0.08,0.08-0.08c0.2-0.26,0.4-0.52,0.6-0.78c0-0.27,0.01-0.54,0.01-0.82l0.23-0.13
				c0,0-0.1-0.2-0.1-0.2c1.06-2.49,0.71-5.03,0.29-7.59c-0.37-2.27-1.25-4.47-0.98-6.83c0.84-0.69,1.67-0.04,2.5,0.02
				c1,2.16,2.19,4.35,2.37,6.7c0.24,3.19,1.6,5.41,4.29,6.95c2.16,0.05,4.29-0.08,6.36-0.78c2.61-2.16,3.7-4.95,3.69-8.32
				C416.22,556.69,415.38,551.94,414.66,547.16z M373.45,529.99c0.5,0.05,0.99,0.01,1.44-0.19
				C374.44,530,373.95,530.04,373.45,529.99z M372.53,529.87l-0.02,0C372.52,529.88,372.52,529.88,372.53,529.87z M350.47,577.28
				c0.46,0.06,0.93,0.11,1.4,0.15C351.4,577.39,350.93,577.34,350.47,577.28z M354.91,577.58c1.2,0.04,2.4,0.08,3.59,0.19
				C357.31,577.65,356.11,577.62,354.91,577.58z"/>
			<path class="st18" d="M350.52,514.16c4.09,2.62,7.99,5.79,13.03,6.6c3.51,1.05,7.01,1.21,10.52,0c4.4-1.03,8.49-2.93,11.84-5.82
				c6.78-5.84,9.58-13.71,9.99-22.46c0.17-3.68-0.73-7.29-2.08-10.67c-3.03-7.59-8.35-13.01-16.08-15.94
				c-0.55-0.67-1.29-0.73-2.07-0.6c-0.26-0.06-0.51-0.11-0.77-0.17c-0.84-0.74-1.81-0.68-2.82-0.5c0,0-0.08-0.05-0.08-0.05
				c-1.62,0.05-3.24,0.09-4.86,0.14c-1.07,0.47-2.18,0.6-3.3,0.56c1.12,0.04,2.23-0.08,3.3-0.56c1.62-0.05,3.24-0.09,4.86-0.14
				c-1.95-0.98-3.93-0.68-5.91-0.12c-1.14,0.16-2.39-0.17-3.38,0.72c-6.59,1.51-11.7,5.16-15.67,10.6
				c-6.95,9.52-7.46,23.01-0.42,33.47C347.81,510.97,348.85,513.09,350.52,514.16z"/>
		</g>
		<path class="st20" d="M187.27,492.18c0.22,0.37,0.11,0.59-0.31,0.66C187.06,492.62,187.16,492.4,187.27,492.18z"/>
		<path class="st9" d="M438.04,188.04c-0.14,0-0.27,0.02-0.4,0.08c-0.1-0.27-0.02-0.47,0.25-0.58
			C438.03,187.68,438.08,187.84,438.04,188.04z"/>
		<path class="st8" d="M115.94,111.98c-0.24,0.02-0.47,0.05-0.71,0.07C115.43,111.72,115.67,111.69,115.94,111.98z"/>
		<path class="st8" d="M476.3,125.36l-0.26-0.14c0,0,0.24-0.17,0.23-0.17c0,0,0.12,0.14,0.12,0.14L476.3,125.36z"/>
		<path class="st8" d="M81.6,255.66c0.25,0.14,0.3,0.34,0.14,0.58c-0.11-0.13-0.23-0.26-0.33-0.4
			C81.4,255.83,81.53,255.72,81.6,255.66z"/>
		<path class="st20" d="M101.18,255.72c-0.07-0.26-0.15-0.52-0.22-0.78C101.36,255.11,101.62,255.31,101.18,255.72z"/>
		<path class="st20" d="M171.16,386.45c0-0.26,0-0.51,0.01-0.77c0.07,0.18,0.17,0.36,0.2,0.55
			C171.38,386.29,171.24,386.38,171.16,386.45z"/>
		<path class="st20" d="M136.76,180.2c0.22,0.35,0.08,0.55-0.27,0.65C136.41,180.56,136.48,180.33,136.76,180.2z"/>
		<path class="st16" d="M424.8,179.77c0.27,0.03,0.47,0.13,0.47,0.44C424.94,180.26,424.74,180.15,424.8,179.77z"/>
		<path class="st20" d="M97.4,177.52c-0.25,0.16-0.5,0.32-0.75,0.49C96.75,177.62,96.95,177.38,97.4,177.52z"/>
		<path class="st21" d="M255.36,565.51c0.47,0.05,0.9,0.16,1.14,0.62C256.02,566.12,255.62,565.94,255.36,565.51z"/>
		<path class="st8" d="M81.75,253.56c-0.05,0.22-0.1,0.44-0.16,0.66c-0.24-0.11-0.28-0.29-0.11-0.51
			C81.54,253.63,81.66,253.61,81.75,253.56z"/>
		<path class="st20" d="M463.18,248.03c-0.23,0.19-0.47,0.39-0.7,0.58C462.46,248.12,462.67,247.89,463.18,248.03z"/>
		<path class="st21" d="M267.84,165.35c0.03,0.23-0.06,0.4-0.27,0.5C267.58,165.63,267.67,165.47,267.84,165.35z"/>
		<path class="st20" d="M163.52,502.27c-0.29,0.13-0.54,0.07-0.73-0.19C163.11,501.83,163.33,501.98,163.52,502.27z"/>
		<path class="st16" d="M94.09,156.89c0.32,0.11,0.46,0.34,0.46,0.67C94.14,157.52,93.86,157.38,94.09,156.89z"/>
		<path class="st8" d="M91.13,239.5c0.03,0.48-0.32,0.51-0.66,0.56C90.41,239.54,90.62,239.35,91.13,239.5z"/>
		<path class="st8" d="M144.34,147.66c-0.14-0.08-0.26-0.17-0.37-0.29c0.02-0.19,0.11-0.34,0.27-0.45c0.07,0.16,0.16,0.32,0.2,0.48
			C144.46,147.48,144.38,147.57,144.34,147.66z"/>
		<path class="st8" d="M119.15,349.28l-0.23-0.17c0,0,0.2-0.2,0.19-0.2C119.26,349.03,119.27,349.15,119.15,349.28z"/>
		<path class="st8" d="M327.8,407.83c-0.02,0.4-0.22,0.54-0.6,0.43C327.24,407.89,327.51,407.85,327.8,407.83z"/>
		<path class="st8" d="M327.33,412.03c0.19,0.15,0.39,0.31,0.58,0.46C327.46,412.66,327.29,412.48,327.33,412.03z"/>
		<g>
			<path class="st18" d="M231.89,55.85c2.35-0.04,4.7-0.07,7.05-0.11C236.57,54.91,234.22,54.75,231.89,55.85z"/>
			<path class="st18" d="M278.19,134.77c0.48-0.5,0.38-0.94-0.13-1.35c-0.11-0.78-0.05-1.6-0.63-2.25c0.07-0.24,0.03-0.45-0.13-0.65
				c-1.69-10.43-6.42-19.07-14.99-25.45c-0.17-0.67-0.63-0.87-1.27-0.76c-0.7-0.31-1.27-0.93-2.12-0.84
				c-1.19-0.8-2.37-1.28-3.48,0.12c-3.15,4.31-6.98,7.71-12.27,9.16c-0.97-0.07-1.94-0.16-2.77,0.52c-2.37,0.37-4.75,0.33-7.13,0.1
				c-0.85-0.72-1.83-0.67-2.83-0.48c-5.6-2.06-10.5-4.93-12.77-10.89c-0.48-0.77-0.99-0.58-1.52-0.06c-2.5,0.36-4.69,1.77-6.37,3.3
				c-3.52,3.2-6.48,6.97-8.58,11.36c-3.97,8.3-5.26,17.05-4.88,26.13c0.1,2.27,2.78,5.65,4.98,6.39c1.15,0.9,2.31,0.87,3.49,0.06
				c2.17-0.79,3.34-2.46,4.06-4.54c0.71-2.06,1.45-4.12,2.15-6.19c0.26-0.75,0.25-1.71,1.44-1.59c1.37,0.13,0.87,1.14,0.83,1.87
				c-0.05,1.06-0.21,2.11-0.33,3.16c-0.25,2.11-0.27,4.23,0.04,6.34c0.41,2.79,2.69,5.23,5.54,5.71c2.54,0.42,5.13,0.56,7.7,0.83
				c0.6,0.45,1.31,0.5,2.02,0.52c6.72,0.26,13.45,0.48,20.16-0.1c2.31-0.2,4.73-0.07,6.91-1.16c0.9,0.24,1.52-0.43,2.26-0.71
				c4.32-1.65,5.98-4.13,5.69-8.76c-0.14-2.32-0.54-4.63-0.82-6.95c0.44-0.44,0.89-0.87,1.33-1.31c1.05,3.3,2.1,6.6,3.15,9.91
				c-0.04,0.42,0.12,0.58,0.53,0.42c0.12,0.55,0.46,0.85,1.02,0.9c2.23,1.3,4.48,1.21,6.73,0.08c1.8-0.17,1.99-1.89,2.85-2.96
				c0.43-0.06,0.57-0.28,0.4-0.69C279.21,140.85,278.71,137.81,278.19,134.77z"/>
			<path class="st18" d="M226.91,104.24c0.22,0.07,0.47,0.04,0.71,0.05c0.57,0.54,1.21,0.88,2.03,0.7c0.31,0.2,0.61,0.41,0.92,0.61
				c3.72,1.18,7.44,1.19,11.17,0.03c3.78-1.55,7.6-2.91,10.61-5.96c4.07-4.11,6.95-8.86,7.82-14.53c1.39-9.04-0.87-16.86-8.14-23.07
				c-3.49-2.99-7.36-4.8-11.67-5.98c-3.02,1.13-6.14,0.27-9.21,0.5c-3.72,0.05-6.69,1.71-9.42,4.12c-1.96,1.74-3.52,3.8-5.29,5.67
				c-2.32,2.45-3.17,5.33-3.67,8.4c-0.8,4.82-0.41,9.55,0.76,14.36C214.86,94.63,221.44,102.61,226.91,104.24z"/>
		</g>
		<g>
			<path class="st12" d="M436.91,362.71c-5.26-3.56-10.51-7.15-15.5-11.09c-0.67-0.53-1.35-1.06-2.23-0.71
				c-0.94,0.37-0.95,1.26-0.92,2.1c0.03,0.83,0.08,1.65,0.12,2.48c0.91,6.22,0.65,12.49,0.72,18.74c0.01,0.47-0.03,0.95,0.04,1.41
				c0.28,1.67,1.13,2.11,2.77,1.42c0.65-0.27,1.34-0.55,1.86-0.99c3.99-3.31,8.48-5.82,13.01-8.28
				C439.82,366.16,439.8,364.67,436.91,362.71z"/>
			<path class="st12" d="M448.94,397.64c-1.43-2.27-3.01-4.45-4.4-6.74c-0.82-1.34-1.64-1.88-3.09-0.9
				c-2.47,1.66-2.87,2.53-1.67,4.33c1.48,2.22,3.05,4.4,4.61,6.56c0.41,0.56,0.86,1.2,1.45,1.5c0.75,0.37,1.58,1.14,2.52,0.29
				c0.77-0.7,1.67-1.31,1.73-2.59C449.73,399.32,449.43,398.42,448.94,397.64z"/>
			<path class="st12" d="M439.54,384.37c-0.6-3.83-2.67-6.76-5.6-9.16c-1.01-0.1-2.06-0.27-2.17,1.22
				c-0.83,0.31-1.39,0.62-0.99,1.77c0.73,2.12,2.03,3.88,3.12,5.78c1.82,3.17,2.07,3.29,5.07,0.92
				C439.35,384.93,439.6,384.81,439.54,384.37z"/>
		</g>
		<g>
			<path class="st17" d="M460.82,322.51c-1.48-1.17-3.18-0.78-4.84-0.72c0,0-0.17-0.13-0.17-0.13c-1.2-0.85-2.56-0.69-3.91-0.61
				c-1.05-0.27-2.11-0.55-3.17-0.82c-0.91-1.08-2.11-0.8-3.19-0.52c-1.37,0.36-1.61,1.69-0.6,2.68c0.59,1.69,0.26,3.46,0.44,5.19
				c-0.23,0.75-0.07,1.25,0.82,1.29c0.65,2.31,0.56,4.69,0.72,7.05c0.09,1.28,0.09,2.6,1.26,3.5c0.57,1.03,1.28,0.96,2.06,0.25
				c1.05-1.22,2.4-2.29,3.08-3.69c0.83-1.69,2.08-1.56,3.39-1.38c0.75,0.1,1.42,0.71,2.25,0.69c1.33,0.37,1.74,0.01,1.53-1.36
				c-0.31-1.22,1.47-1.67,1.07-2.92c0.11-0.46-0.09-0.7-0.55-0.72c0,0-0.13-0.08-0.13-0.08c-0.36-0.63-1.55-0.92-0.83-2
				c0.57-0.55,1.15-1.1,1.72-1.66c0.37-0.04,0.51-0.21,0.31-0.56C462.14,324.66,462.07,323.37,460.82,322.51z"/>
			<path class="st17" d="M476.1,336.5c-2.67-1.11-5.32-2.28-7.98-3.41c-0.47-0.2-0.94-0.07-1.29,0.29c-1.67,1.75-1.02,4.91,1.2,5.91
				c2.38,1.08,5.11,1.37,7.16,3.19c1.68,0.74,1.93,0.56,1.89-1.38c-0.39-0.83,0.03-1.62,0.18-2.4
				C477.48,337.59,477.13,336.93,476.1,336.5z"/>
			<path class="st17" d="M491.83,342.48c-1.34-0.41-2.62-1.05-3.92-1.59c-0.08-0.41-0.32-0.53-0.71-0.41
				c-0.77-0.27-1.52-0.62-2.32-0.78c-1.26-0.26-2.37,0.83-2.07,1.57c0.65,1.56-1.14,1.96-1,3.11c0.5,1.91,1.91,1.58,3.29,1.34
				c1.01,0.35,1.76,1.04,2.6,1.69c3.34,2.58,5.09,1.73,5.72-2.35C493.66,343.52,493.21,342.9,491.83,342.48z"/>
			<path class="st17" d="M514.97,350.33c-2.49-1.13-5.16-1.71-7.8-2.39c-0.16-1.17-0.92-1.34-1.9-1.17v0
				c-0.35-0.04-0.69-0.08-1.04-0.12c-0.42-0.87-1.19-0.81-1.96-0.72c0,0-0.06-0.22-0.06-0.22c-0.27-0.28-0.5-0.26-0.7,0.07
				c-0.29,0.89-0.56,1.79-0.86,2.68c-0.66,1.93-0.41,2.99,1.33,3.59c3.36,1.14,6.62,2.66,10.18,3.13c0.45,0.66,1.13,0.63,1.81,0.58
				c1.57-1.29,1.24-3.13,1.39-4.83C515.56,350.51,515.42,350.32,514.97,350.33z"/>
		</g>
		<g>
			<path class="st15" d="M159.09,148.67c-1.48,0.93-2.99,1.78-4.38,2.88c-0.73,0.58-1.22,1.02-1.04,1.94
				c0.43,2.34,2.36,3.21,4.46,2.01c1.11-0.63,2.23-1.26,3.35-1.89c4.58-2.57,4.58-2.56,2.34-7.48
				C161.93,146.82,160.53,147.77,159.09,148.67z"/>
			<path class="st15" d="M170.61,141.84c-0.23,0.03-0.45,0.07-0.68,0.1c-1.92,2.06-1.72,1.97,0.07,4.72
				c1.36,2.09,2.4,1.38,3.72,0.26c1.74-2.59-0.34-3.93-1.78-5.49C171.5,141.57,171.05,141.7,170.61,141.84z"/>
			<path class="st15" d="M189.7,134.29c0.05-3.86-0.73-4.42-4.41-3.2c-0.31,0.1-0.68,0.01-1.02,0.01c-0.76-0.88-1.5-0.63-2.24,0.02
				c-0.69,0.06-1.37,0.12-2.06,0.18c-1.72-0.15-3.43-0.28-5.04,0.57c0,0-0.04,0.17-0.04,0.17c-1.89,0.05-3.83-0.44-5.61,0.59
				c0,0-0.07,0.07-0.07,0.07c-0.37,0.03-0.62,0.15-0.52,0.59c-0.53,1.79,0.09,3.25,1.58,4.16c1.2,0.73,1.94,1.56,1.96,2.97
				c2.11,1.03,3.16,2.77,3.35,5.07c0.53,1.03,0.96,2.11,1.6,3.06c1,1.51,2.45,1.66,3.82,0.42c1.04-0.94,1.93-2.02,2.6-3.28
				c1.85-3.47,3.76-6.91,5.65-10.36C189.67,135.09,189.89,134.78,189.7,134.29z"/>
		</g>
		<path class="st20" d="M455.18,526.92c0.38-0.62,0.65-0.61,0.81,0.13C455.73,527,455.45,526.96,455.18,526.92z"/>
		<g>
			<path class="st17" d="M591.13,365.65c-0.1-0.21-0.24-0.38-0.44-0.5c-0.57-0.57-1.11-1.18-1.72-1.71
				c-3.47-3.04-6.95-6.05-11.36-7.71c-0.45-0.61-0.94-0.79-1.53-0.17c-0.21,0.11-0.42,0.23-0.64,0.34c-0.45-0.01-0.66,0.2-0.61,0.65
				c-2.19,3.99-6.15,5.8-9.92,7.69c-1.54,0.77-3.1,2.17-5.14,1.62c-3.29-0.01-6.57-0.02-9.86-0.03c-4.37-0.61-8.18-2.43-11.5-5.3
				c-0.12-0.19-0.29-0.33-0.5-0.43c-0.43-0.11-0.72-0.37-0.85-0.79c-0.2-0.21-0.41-0.42-0.61-0.62c-0.52-0.63-1.1-1.22-1.54-1.9
				c-1.23-1.88-2.03-2.31-3.92-1.46c-1.77,0.79-3.13,2.17-4.6,3.47c-5.05,4.48-8.02,10.21-10.57,16.25c-1.9,4.5-1.73,9.41-2.6,14.11
				c-0.41,2.24-0.2,4.42,0.28,6.67c0.56,2.6,1.76,4.26,4.36,4.87c1.37,1.03,2.77,0.92,4.19,0.11c2.25-0.8,3.67-2.45,4.57-4.57
				c0.72-1.71,1.48-3.43,1.73-5.28c0.13-0.96,0.3-1.85,1.25-2.36c0.5-0.13,0.88-0.42,1.11-0.89c1.49,1.02,0.54,2.49,0.68,3.76
				c-0.55,0.4-0.6,0.83-0.08,1.3c-0.12,1.38-0.24,2.77-0.36,4.16c-1.44,0.86-1.49,1.68,0.07,2.45c0.13,0.63,0.25,1.25,0.38,1.88
				c0.19,0.28,0.37,0.55,0.56,0.83c0,0,0.1,0.12,0.1,0.12c0.21,0.2,0.42,0.39,0.63,0.59c0,0,0.1,0.07,0.1,0.07
				c0.21,0.21,0.43,0.41,0.64,0.62c1.13,0.79,2.43,1.15,3.75,1.45c1.01,0.92,2.38,0.46,3.51,0.9c0.46,0.53,1.06,0.48,1.67,0.39
				c-0.1-0.18-0.18-0.37-0.25-0.56c-0.27-0.03-0.55-0.06-0.82-0.09l0,0c0.27,0.03,0.55,0.06,0.82,0.09c0.9,0,1.8-0.05,2.7-0.06
				c-0.9,0.01-1.8,0.05-2.7,0.06c0.07,0.19,0.15,0.38,0.24,0.56c2.05,0.12,4.1,0.23,6.15,0.35c0.33,0.13,0.66,0.25,0.99,0.38
				c-0.09-0.21-0.22-0.38-0.4-0.52c0,0,0.04-0.06,0.08-0.11c0.04-0.06,0.08-0.11,0.08-0.11l0,0l-0.08,0.11l-0.08,0.11
				c0.17,0.14,0.31,0.32,0.4,0.52c5.7,0,11.4,0,17.11,0c0.09-0.2,0.22-0.37,0.39-0.52c-0.17,0.14-0.3,0.31-0.39,0.52
				c0.32-0.12,0.65-0.25,0.97-0.37c1.45-0.16,2.9-0.33,4.35-0.49c2.99-0.22,5.85-0.84,8.33-2.66c0.3-0.19,0.6-0.37,0.91-0.56
				c0,0,0.12-0.08,0.12-0.08c0.18-0.15,0.36-0.3,0.54-0.45c2-2.28,2.4-4.93,1.93-7.84c-0.24-1.49-0.3-3.01-0.45-4.51
				c-0.32-0.94-0.88-1.86-0.06-3.13c0.92,0.94,1.38,1.94,1.56,3.1c1.44,0.81,1.37,2.29,1.56,3.63c0.26,1.81,0.58,3.58,2.02,4.9
				c0.61,1.76,2.35,1.14,3.54,1.67c0.66,0.64,1.32,0.64,1.96-0.02c0.53-0.19,1.13-0.26,1.45-0.82c2.94-0.97,3.74-3.27,3.73-6.05
				C599.02,383.3,596.2,374.16,591.13,365.65z M540.15,405.02c0.05,0.01,0.11,0.02,0.16,0.04
				C540.26,405.05,540.2,405.04,540.15,405.02z"/>
			<path class="st17" d="M530.54,330.22c-0.01,2.64-0.02,5.27-0.02,7.91c-0.96,0.91-0.42,1.27,0.54,1.49
				c0.48,4.58,1.83,8.79,5.31,12.05c0.23,0.21,0.46,0.41,0.69,0.62c0.25,0.29,0.5,0.59,0.75,0.88c0.09,0.23,0.24,0.4,0.45,0.51
				c1.41,1.72,3.21,2.87,5.28,3.63c0.44,0.89,1.11,1.36,2.14,1.17c0,0,0.07,0.2,0.07,0.2c-0.1,0.45,0.08,0.65,0.54,0.61
				c1.63,0.53,3.29,0.96,5.03,0.93c2.59,0.96,5.18,1,7.77-0.02c8.14-1.69,14.5-5.73,17.94-13.6c0.19-0.25,0.37-0.5,0.56-0.75
				c0.01-0.24,0.06-0.46,0.17-0.68c0.19-0.23,0.37-0.46,0.56-0.68c0.37-1.46,1.21-2.74,1.42-4.27c0.8-5.72,0.46-11.29-2.13-16.54
				c-1.28-2.59-2.46-5.56-4.73-7.18c-3.84-2.72-7.71-5.59-12.34-6.98c-3.79-1.1-7.57-1.16-11.35,0.05
				c-4.83,0.67-8.7,3.47-11.93,6.65c-3.34,3.29-5.82,7.49-6.28,12.46C530.05,328.98,529.49,329.38,530.54,330.22z"/>
		</g>
		<path class="st21" d="M451.01,528.07c0.32-0.01,0.48,0.13,0.42,0.47C451.23,528.43,451.09,528.28,451.01,528.07z"/>
		<path class="st8" d="M421.68,422.83c-0.02,0.26-0.16,0.39-0.43,0.4C421.18,422.86,421.32,422.73,421.68,422.83z"/>
		<path class="st21" d="M71.96,332.45c-0.32,0.56-0.59,0.68-0.77-0.09C71.45,332.4,71.7,332.43,71.96,332.45z"/>
		<path class="st18" d="M160.62,217.23c0.44-7.31-1.56-14.19-4.37-20.74c-3.44-8.03-9.13-14.27-17.05-18.27
			c-0.66-0.09-1.32-0.17-1.98-0.26c-0.15,0.75-0.31,1.5-0.46,2.25c0.22,0.35,0.08,0.55-0.27,0.65c-3.32,4.72-7.9,7.5-13.48,8.75
			c-3.06,1.04-6.12,1.17-9.17-0.07c-4.73-0.7-8.11-3.71-11.51-6.71c-1.21-1.07-1.88-2.37-2-3.96c0.01-0.48,0.02-0.96,0.03-1.43
			c0,0-0.08-0.09-0.08-0.09c-0.91,0.16-1.82,0.41-2.76,0.17c0,0-0.13,0.03-0.13,0.03c-0.25,0.16-0.5,0.32-0.75,0.49
			c-2.15-0.03-3.14,1.85-4.65,2.85c-4.14,2.74-7.54,6.31-9.93,10.58c-3.88,6.91-5.99,14.4-6.09,22.41
			c-0.04,3.64-0.11,7.23,3.34,9.63c0.09,0.07,0.22,0.09,0.33,0.13c1.86,1.16,3.76,1.07,5.67,0.13c2.32-0.81,3.48-2.65,4.08-4.86
			c0.5-1.86,0.95-3.72,2.26-5.21c-0.97-1.26,0.38-1.72,0.86-2.48c0.22-0.16,0.4-0.13,0.53,0.01c-0.14-0.14-0.31-0.17-0.53-0.01
			c0.2,0.12,0.42,0.19,0.66,0.19c0.18,0.78,0.29,1.55-0.05,2.32c0.38,3.08-0.5,6.2,0.27,9.27c-0.12,0.41,0.02,0.72,0.36,0.96
			c-0.13,0.44-0.05,0.82,0.29,1.13c-0.21,1.03,0.58,1.41,1.24,1.87c0.46,0.13,0.91,0.26,1.37,0.39c0.29,0.52,0.65,1.03,1.27,1.14
			c2.88,0.5,5.74,1.14,8.7,0.83c0,0,0.1,0.02,0.1,0.02c1.73,1.14,3.79,0.47,5.62,1.02c5.01,0.84,10.04,0.44,15.07,0.21
			c0.19-0.01,0.38-0.26,0.57-0.4h0c0.22-0.09,0.44-0.17,0.66-0.26c1.68,0.13,3.38,0.38,4.92-0.61c0,0,0.11-0.02,0.11-0.02
			c1.23,0.13,2.47,0.31,3.51-0.62c4.17-0.15,5.92-1.62,6.66-5.59c0.41-0.11,0.62-0.34,0.48-0.79c-0.16-1.16-0.39-2.31-0.46-3.48
			c-0.15-2.42-1.13-4.81-0.23-7.26c0.24-0.01,0.47-0.01,0.71-0.01c0.27,0.49,0.54,0.98,0.82,1.47c0.01,0.76-0.58,1.7,0.62,2.11
			c0,0,0.04,0.02,0.04,0.02c0.03,0.38,0.21,0.65,0.58,0.77c0.34,0.88,0.69,1.76,1.01,2.65c1.17,3.28,2.71,4.42,6.08,4.47
			c4.22,0.07,5.09-0.5,6.59-4.29C160.7,218.36,160.84,217.85,160.62,217.23z M113.75,229.32
			C113.74,229.32,113.74,229.32,113.75,229.32C113.74,229.32,113.74,229.32,113.75,229.32z"/>
		<g>
			<path class="st15" d="M379.57,220.71c-0.06-4.81-0.89-9.48-2.23-14.12c-1.12-3.85-3.09-7.25-4.9-10.72
				c-2.93-5.61-7.28-10-12.85-13.03c-1.1-0.6-2.18-1.23-3.25-1.86c-0.26,0.47-0.51,0.94-0.77,1.41c-0.04,0.46-0.07,0.92-0.11,1.37
				c-0.6,0.03-1.19,0.07-1,0.94c0.12,1.21-0.55,2.09-1.46,2.61c-3.81,2.18-7.05,5.42-11.59,6.24c-0.16-0.25-0.35-0.33-0.6-0.11
				c-0.3,0.15-0.6,0.3-0.89,0.45c-1.82,0.01-3.64,0.02-5.46,0.03c-0.3-0.15-0.6-0.29-0.91-0.44c-0.47-0.48-0.91-0.43-1.32,0.08
				c-1.69,0.71-2.9-0.72-4.07-1.28c-3.99-1.91-7.72-4.36-9.13-8.99c0.31-0.6,0.36-1.15-0.27-1.58c-0.25-0.14-0.49-0.28-0.74-0.42
				c-1.02-0.38-1.99-0.41-2.78,0.5c-5,2.19-8.45,6.18-11.46,10.44c-3.28,4.65-5.31,9.96-6.06,15.68c-1.41,0.47-1.41,0.47-0.53,1.48
				c-0.08,4.29-1.23,8.53-0.65,12.86c0.01,0.22,0.02,0.44,0.03,0.65c0.78,2.13,2.16,3.65,4.37,4.34c1.4,0.68,2.8,0.95,4.18-0.04
				c1.33-0.58,2.2-1.58,2.84-2.86c0.86-1.72,1.6-3.47,2.14-5.32c0.32-1.11,0.46-2.54,2.07-2.75c0.27,0.07,0.54,0.13,0.82,0.2
				c-0.06,2.8-0.21,5.6-0.16,8.4c0.02,1.31-0.47,2.81,0.82,3.88c0.11,0.51,0.47,0.82,0.88,1.08c0,0,0.02,0.14,0.02,0.14
				c-0.06,1.07,0.82,0.59,1.29,0.79c0-0.01-0.01-0.01-0.01-0.02c1.15,1.34,2.72,1.37,4.3,1.35c0,0-0.03,0.12-0.03,0.12c0,0,0,0,0,0
				c2.7,1.31,5.72,0.83,8.53,1.56c0.24-0.11,0.49-0.21,0.73-0.32c0.03-0.14,0.04-0.29,0.02-0.44l0,0c0.01,0.15,0.01,0.29-0.02,0.44
				c-0.24,0.11-0.49,0.21-0.73,0.32c0.68,0.62,1.52,0.55,2.34,0.55c4.6,0,9.19,0,13.79,0c0.82,0,1.66,0.09,2.35-0.52
				c1.86-0.47,3.88,0.08,5.68-0.83c3.92-0.23,7.55-1.08,9.99-4.54l0.26-0.15c0,0-0.08-0.27-0.08-0.27c0.37-0.49,0.48-1.06,0.43-1.66
				c0.4-0.85,0.38-1.69-0.01-2.54c-0.32-2.63-0.65-5.26-0.97-7.89c0.35-0.2,0.42-0.49,0.28-0.86c0,0,0.02-0.04,0.02-0.04
				c0.31-0.03,0.61-0.07,0.92-0.1c0,0,0.08,0.08,0.08,0.08c-0.09,0.43,0.14,0.65,0.51,0.78c0.71,1.94,1.51,3.85,2.1,5.82
				c0.92,3.05,2.99,4.74,6.05,4.8c3.06,0.07,5.84-0.81,6.91-4.22C379.1,221.64,379.12,221.13,379.57,220.71z M322.66,232.28
				c-0.47-0.04-0.93-0.08-1.4-0.09C321.73,232.21,322.19,232.24,322.66,232.28z M324.34,232.47c0.32,0.04,0.64,0.08,0.96,0.13
				C324.98,232.56,324.66,232.52,324.34,232.47z M338.24,233.67c2.96,0.02,5.92-0.05,8.89-0.23l0,0
				C344.16,233.63,341.2,233.69,338.24,233.67z"/>
			<path class="st15" d="M311.21,159.79c-0.04,0.37-0.08,0.75-0.12,1.12c-0.16,0.37-0.12,0.68,0.25,0.9
				c0.05,0.58,0.16,1.17,0.12,1.75c-0.18,2.87,0.69,5.3,2.09,7.89c1.9,3.52,4.74,5.85,7.52,8.5c3.22,3.06,6.67,4.79,11.07,4.67
				c0,0,0,0,0,0c3.27,1.51,6.66,0.56,10,0.49c0.45,0.07,0.84-0.02,1.31-0.18c3.61-1.29,7.06-2.93,10.42-4.75
				c0,0,0.08-0.12,0.08-0.12c0.03-1.24,1.08-1.76,1.81-2.47c3.52-3.42,6.02-7.4,7.08-12.24c0.1-0.06,0.23-0.09,0.3-0.17
				c0.2-0.22,0.16-0.42-0.1-0.56c0.33-2.51-0.7-4.88-0.82-7.29c-0.22-4.36-0.74-8.54-2.22-12.7c-2.05-5.76-5.42-10.23-11.12-12.59
				c-1.02-0.42-1.09-1.8-2.31-1.68c0.17-0.96,1-1.14,1.72-1.47c0.18-0.08,0.26-0.36,0.39-0.55c0.95-0.77,0.88-1.72,0.51-2.74
				c-1.15-5.81-5.58-7.95-10.59-9.45c-2.4-1.33-4.78-0.99-7.16,0.07c-2.01,1.01-4.45,1.48-5.95,3.14
				c-2.57,2.83-4.13,6.27-3.15,10.22c0.36,1.43-0.07,1.72-1.12,2.59c-4.43,3.66-9.27,7.19-9.25,13.86
				c-0.75,0.27-1.67,0.47-0.57,1.46C310.94,151.59,310.65,155.68,311.21,159.79z M341.91,180.16c-1.21,0.49-2.42,0.77-3.63,0.88
				C339.49,180.93,340.7,180.65,341.91,180.16L341.91,180.16z M350.79,154.89c-0.45-0.03-0.9-0.06-1.35-0.1
				C349.89,154.83,350.34,154.86,350.79,154.89z M315.88,160.93c6.06-2.74,10.71-7.12,14.2-12.75c0,0,0,0,0,0
				c0.72-0.38,0.47-1.56,1.44-1.74c0.83,0.97,1.75,1.75,2.94,2.34c3.88,1.91,7.36,4.64,11.74,5.58c0.8,0.17,1.6,0.12,2.37,0.36
				c2.72,1.17,5.62,1.26,8.51,1.37c0.72,0.53,1.44,1.06,2.16,1.58c-0.05,0.22,0.03,0.38,0.22,0.49c0.41,9.89-6.41,18.51-14.59,21.13
				c-0.97,0.31-2.19-0.17-2.94,0.86c-3.24,0.04-6.47,0.09-9.71,0.13c-9.34-2.33-14.34-9.05-17.64-17.46
				C314.07,161.6,314.9,161.38,315.88,160.93z M311.44,160.04c0.06,0.1,0.09,0.21,0.1,0.33
				C311.53,160.25,311.5,160.14,311.44,160.04z"/>
		</g>
		<path class="st20" d="M187.04,464.55c-1.24,0.2-2.43,0.1-3.51-0.6C184.78,463.7,185.97,463.77,187.04,464.55z"/>
		<path class="st8" d="M163.57,489.34c0.98-0.98,1.92-0.65,2.86,0.07C165.46,489.72,164.52,489.49,163.57,489.34z"/>
		<path class="st21" d="M188.52,465.29c-0.56,0.01-1.09-0.06-1.44-0.59C187.7,464.55,188.23,464.63,188.52,465.29z"/>
		<path class="st21" d="M191.09,466.02c-0.48-0.01-0.91-0.11-1.17-0.57C190.44,465.38,190.99,465.24,191.09,466.02z"/>
		<path class="st8" d="M171.39,489.37c0.48-0.58,0.95-0.69,1.42,0.01C172.33,489.38,171.86,489.37,171.39,489.37z"/>
		<path class="st20" d="M167.89,454.57c-0.25,0.02-0.5,0.03-0.76,0.05c0.01-0.23,0.03-0.47,0.04-0.7l-0.03,0.02
			C167.59,453.92,167.83,454.14,167.89,454.57z"/>
		<path class="st20" d="M168.59,455.3c-0.4-0.06-0.64-0.27-0.66-0.69C168.37,454.63,168.58,454.87,168.59,455.3z"/>
		<path class="st20" d="M166.88,455.93c0.21,0.41,0.09,0.7-0.3,0.91C166.46,456.47,166.53,456.15,166.88,455.93z"/>
		<polygon class="st20" points="167.17,453.92 167.07,453.87 167.15,453.94 		"/>
		<g>
			<path class="st19" d="M523.49,478.13c1.1-0.89,0.5-1.23-0.47-1.44c-0.54-2.12-1.08-4.24-1.62-6.36
				c-0.18-0.24-0.36-0.49-0.54-0.73v0c-0.29-0.95-0.58-1.9-0.88-2.85c-0.18-0.23-0.37-0.47-0.55-0.7c-0.07-0.43-0.14-0.86-0.21-1.29
				c-0.22-0.28-0.45-0.56-0.67-0.85c-3.63-5.38-7.08-10.88-13.24-13.91c-1.87-0.92-3.86-1.62-5.76-1.95
				c-1.04-0.18-0.97,2.51-1.73,3.76c-0.17,0.28-0.47,0.48-0.72,0.72c-0.2,0.21-0.41,0.41-0.61,0.62c-0.92,1.36-2.41,2-3.68,2.92
				c-0.2,0.21-0.41,0.41-0.61,0.62c0,0-0.05,0.1-0.05,0.1c-0.21,0.19-0.42,0.39-0.63,0.58c-2.4,0.71-4.53,2.27-7.14,2.35
				c0,0,0,0,0,0c-1.01-0.06-2.06-0.3-2.81,0.7c-2.15-0.02-4.3-0.03-6.44-0.05c0,0,0.02-0.14,0.02-0.14
				c-0.83-0.77-1.81-0.7-2.82-0.54c-0.26-0.08-0.51-0.15-0.77-0.23c-0.24-0.32-0.46-0.29-0.67,0.03c-1.56-0.16-3.35-0.19-4.46-1.23
				c-2.79-2.61-6.22-4.54-8.38-7.81c-0.19-0.26-0.38-0.52-0.57-0.78c-0.81-0.68-0.36-1.75-0.78-2.55c-1.04-0.6-2-0.53-2.89,0.3
				c-0.96,0.52-1.91,1.04-2.87,1.56c-0.07,0.16-0.15,0.3-0.26,0.4c0.11-0.1,0.19-0.24,0.26-0.4c-0.24,0.18-0.47,0.36-0.71,0.54
				c-0.31,0.29-0.61,0.58-0.92,0.87c-0.17,0.21-0.34,0.42-0.51,0.63c0,0,0,0,0,0c0,0-0.04,0.09-0.04,0.09
				c-0.21,0.2-0.43,0.39-0.64,0.59c-3.56,2.69-6,6.24-7.86,10.24c-1,2.16-2.32,4.13-3.31,6.33c-0.88,1.97-0.6,3.89-1.2,5.76
				c-1.45,4.52-1.45,9.22-1.39,13.9c0.05,3.78,1.46,5.36,5.36,6.64c1.57,0.88,3.14,0.96,4.72,0.01c2.05-0.77,3.44-2.12,3.79-4.36
				c2.14-0.55,0.98-2.32,1.3-3.54c0.19-1.54,0.73-2.96,1.54-4.28c0.71,0,1.42,0,2.12,0c-0.11,3.65-0.39,7.31-0.27,10.96
				c0.12,3.58,1.99,5.4,5.55,6.06c0.58,0.11,1.17,0.11,1.76,0.16l0,0c0.43,0.6,1.05,0.58,1.68,0.48c0.88,0.1,1.76,0.2,2.64,0.3
				c0.65-0.08,1.29-0.16,1.93-0.25l0,0c-0.64,0.08-1.29,0.16-1.93,0.25c1.17,0.93,2.49,0.42,3.76,0.41
				c-0.09-0.17-0.13-0.35-0.13-0.55c0.11,0,0.21,0,0.32,0c-0.11,0-0.21,0-0.32,0c-0.01,0.19,0.03,0.38,0.12,0.55
				c7.16,0.23,14.31,0.15,21.46,0c0.1-0.18,0.13-0.36,0.1-0.56c0,0,0,0,0,0c0.35-0.03,0.7-0.06,1.05-0.09
				c-0.35,0.03-0.7,0.06-1.05,0.09c0.03,0.2-0.01,0.38-0.1,0.56c1.04,0.04,2.12,0.44,3.05-0.38c1.13-0.38,2.5,0.2,3.47-0.84
				c0.75-0.03,1.51-0.06,2.27-0.1c0.56,0.01,1.08-0.06,1.43-0.56c0.24-0.06,0.48-0.11,0.71-0.17c0.81,0.02,1.66,0.17,2.14-0.73
				c2.07-1.31,3.68-2.91,3.65-5.59c0.29-0.14,0.64-0.25,0.42-0.7c0.79-3.46-0.88-6.65-1.15-9.99c0.67,0.01,1.33,0.02,2,0.03
				c0,0,0.05,0.08,0.05,0.08c0.08,0.23,0.21,0.41,0.41,0.55c0.5,1.15,0.85,2.32,1.13,3.57c0.77,3.4,1.29,7.17,5.75,8
				c1.82,0.98,3.64,1.04,5.45-0.04c0.51-0.27,1.03-0.54,1.54-0.81c0.23-0.18,0.47-0.37,0.7-0.55c0,0,0.13-0.14,0.13-0.14
				c0.19-0.24,0.37-0.49,0.56-0.73c0.06-0.48,0.12-0.96,0.18-1.43c0.17-0.26,0.34-0.52,0.51-0.78
				C524.82,485.58,524.05,481.86,523.49,478.13z M461.18,499.18c-0.09-0.05-0.18-0.07-0.27-0.07
				C461.01,499.11,461.1,499.13,461.18,499.18z M461.83,499.46c0.4-0.05,0.8-0.07,1.2-0.07
				C462.63,499.39,462.23,499.41,461.83,499.46z M483.29,460.56c-0.15,0.11-0.31,0.2-0.47,0.28
				C482.98,460.76,483.13,460.66,483.29,460.56z"/>
			<path class="st19" d="M455.51,441.1c2.59,3.67,5.83,6.79,9.61,9.34c1.45,0.97,2.84,1.51,4.53,1.38c0.93,0.9,2.07,0.77,3.22,0.64
				c0.12-0.01,0.24,0.01,0.36,0.07c2.84,1.37,5.83,0.48,8.75,0.6c0.09-0.19,0.19-0.38,0.31-0.55c-0.12,0.18-0.22,0.36-0.31,0.55
				c0.41,0.01,0.75-0.12,0.98-0.47c0.77-0.23,1.53-0.55,2.36-0.34c0.51,0.09,0.93-0.06,1.26-0.46h0c0.22-0.22,0.45-0.44,0.67-0.66
				c-0.22-0.11-0.43-0.11-0.65,0c0,0,0,0,0,0c-0.17,0-0.31,0.05-0.41,0.14c0.11-0.09,0.24-0.13,0.41-0.14
				c0.22-0.11,0.43-0.11,0.65,0c0.25,0,0.49,0.01,0.74,0.01c0.36,0.36,0.55,0.18,0.66-0.21c0.09-0.41,0.28-0.67,0.76-0.54
				c0.43,0.49,0.57,0.21,0.63-0.24c5.66-3.02,9.72-7.52,12.33-13.35c0.17-0.25,0.35-0.49,0.52-0.74c-0.26-1.52,0.96-2.76,0.81-4.26
				c0.85-0.87,0.83-1.8,0.19-2.78c-0.38-1.44-0.75-2.89-1.13-4.34c0.23-0.68,0.25-1.35-0.04-2.01c0.14-3.32-0.43-6.6-1.41-9.69
				c-1.62-5.17-3.76-10.14-9.35-12.46c-0.71-0.3-1.25-1.01-1.87-1.53l0,0c0-0.18,0-0.36,0-0.54c0.05-0.23,0.03-0.45-0.05-0.66
				c0,0,0.06-0.22,0.06-0.22c0.95-0.71,0.94-1.63,0.58-2.63c-0.91-5.67-4.99-8.24-9.85-10.05c-2.13-1.19-4.25-1.05-6.37,0.02
				c-5.65,2.1-9.39,5.63-9.12,12.17c0.04,0.7,0.07,1.4,0.11,2.1c0,0-0.28-0.02-0.28-0.02c-0.23,0.2-0.45,0.4-0.68,0.59
				c-5.27,1.48-8.46,5.26-9.72,10.21c-1.45,5.65-2.16,11.52-1.31,17.42c0.13,0.93,0.01,1.77-0.18,2.71
				C452.51,434.06,453.24,437.88,455.51,441.1z M485.7,451.8c0.01,0,0.01,0,0.02,0C485.71,451.8,485.7,451.8,485.7,451.8z
				 M495.17,422.89c-0.75-0.25-1.53-0.4-2.32-0.39C493.65,422.49,494.42,422.63,495.17,422.89z M458.99,427.66
				c3.11-1.2,6.3-2.29,9.15-4.11c3.13-2,5.7-4.5,7.14-8.01c0,0,0,0,0,0c0.54-0.64,0.85-1.59,1.96-1.5c4.21,3.87,8.98,6.82,14.44,8.6
				c0,0,0,0,0,0c1.48,0.62,3,0.96,4.62,0.69c0.53,0.22,1.06,0.65,1.58,0.63c1.84-0.06,2.09,1.11,2.19,2.5
				c0.37,5.16-1.36,9.76-4.58,13.55c-3.08,3.62-6.81,6.69-11.81,7.54c-1.01-0.14-2-0.16-2.82,0.61l0.03,0.12
				c-2.15,0.01-4.31,0.02-6.46,0.03c-5.26-0.28-8.95-3.42-12.49-6.84c-2.83-2.74-4.61-6.04-5.11-9.97
				C456.46,428.67,456.27,428.71,458.99,427.66z"/>
			<path class="st19" d="M440.77,439.76c-0.32,0.01-0.64,0.03-0.97,0.04C440.15,440.3,440.47,440.3,440.77,439.76z"/>
		</g>
		<path class="st8" d="M284.59,404.48c0.23-0.67,0.64-0.9,1.3-0.54C285.64,404.57,285.22,404.79,284.59,404.48z"/>
		<path class="st8" d="M278.63,370.61c-0.33,0-0.66-0.01-1-0.01C277.98,369.69,278.3,370.13,278.63,370.61z"/>
		<path class="st12" d="M140.05,151.79c-2.41,0.41-4.67-0.38-6.97-0.87C134.96,150.57,136.85,150.8,140.05,151.79z"/>
		<path class="st8" d="M97.93,157.47c-0.17,0.28-0.35,0.56-0.53,0.84c-0.06-0.28-0.12-0.57-0.18-0.85
			C97.46,157.42,97.7,157.43,97.93,157.47z"/>
		<path class="st8" d="M113.78,176.1c0.79-0.17,1.55-0.2,2.2,0.4C115.17,176.76,114.42,176.7,113.78,176.1z"/>
		<path class="st8" d="M122.95,176.44c0.44-0.45,0.96-0.51,1.54-0.34C124.05,176.56,123.55,176.7,122.95,176.44z"/>
		<path class="st8" d="M231.16,552.7c0.01,0.72-0.15,1.32-0.98,1.48C230.52,553.69,230.49,552.97,231.16,552.7z"/>
		<path class="st12" d="M300.33,573.14c-0.14-0.12-0.25-0.26-0.34-0.42c0.77-0.08,1.55-0.25,2.22,0.34
			C301.58,573.09,300.95,573.12,300.33,573.14z"/>
		<path class="st12" d="M307.25,573.14l-0.32,0.06c0,0-0.32-0.07-0.32-0.07C306.82,572.85,307.04,572.86,307.25,573.14z"/>
	</g>
</g>
</svg>
