<?xml version="1.0" encoding="utf-8"?>
<!-- Generator: Adobe Illustrator 27.2.0, SVG Export Plug-In . SVG Version: 6.00 Build 0)  -->
<svg version="1.1" xmlns="http://www.w3.org/2000/svg" xmlns:xlink="http://www.w3.org/1999/xlink" x="0px" y="0px"
	 viewBox="0 0 640 640" style="enable-background:new 0 0 640 640;" xml:space="preserve">
<style type="text/css">
	.st0{fill:#FCCD0D;}
	.st1{fill:#23ACBE;}
	.st2{fill:#F45EAD;}
	.st3{fill:#176FAE;}
	.st4{opacity:0.4;fill:#FFFFFF;stroke:#000000;stroke-width:0.1001;stroke-miterlimit:10;}
	.st5{fill:#FFFFFF;}
	.st6{opacity:0.74;}
</style>
<g id="background">
</g>
<g id="logo">
	<path class="st5" d="M108.57,341.94l-27.38-27.38l0.07-0.07l234.4-234.41l0.07,0.07l90.49,90.49v-62.69h52.99v115.68l99.2,99.2
		l-27.45,27.46l-0.07-0.07L315.67,134.99L108.65,342.02L108.57,341.94z M563.04,542.76v17.16H76.96v-17.16h51.79v-33.9h17.9V322.56
		l0.03-0.03l169.01-168.99l0.07,0.07l177.61,177.61v177.63h17.89v33.9H563.04z M302.95,507.92V337.23H200.52v170.69H302.95z
		 M389.29,372.5v-35.29H354v35.29H389.29z M389.29,424.95v-35.29H354v35.29H389.29z M441.71,372.5v-35.29h-35.27v35.29H441.71z
		 M441.71,424.95v-35.29h-35.27v35.29H441.71z M216.43,439.74H235v-36.58h-18.57V439.74z"/>
</g>
</svg>
