<?xml version="1.0" encoding="utf-8"?>
<!-- Generator: Adobe Illustrator 27.2.0, SVG Export Plug-In . SVG Version: 6.00 Build 0)  -->
<svg version="1.1" xmlns="http://www.w3.org/2000/svg" xmlns:xlink="http://www.w3.org/1999/xlink" x="0px" y="0px"
	 viewBox="0 0 640 640" style="enable-background:new 0 0 640 640;" xml:space="preserve">
<style type="text/css">
	.st0{fill:#FCCD0D;}
	.st1{opacity:0.7;fill:#F2F2F2;}
	.st2{fill:#1975C3;}
	.st3{fill:#4CAA08;}
	.st4{fill:#FC8E06;}
	.st5{fill:#FA2670;}
	.st6{fill:#050101;}
	.st7{fill:#FEFEFE;}
	.st8{fill:#23ACBE;}
	.st9{fill:#F45EAD;}
	.st10{fill:#176FAE;}
	.st11{opacity:0.4;fill:#FFFFFF;stroke:#000000;stroke-width:0.1001;stroke-miterlimit:10;}
	.st12{fill:#FFFFFF;}
	.st13{opacity:0.74;}
	.st14{fill:#AAAAAA;}
	.st15{fill:#414041;}
	.st16{fill:#F34280;}
	.st17{fill:#FE910D;}
	.st18{fill:#096BBD;}
	.st19{fill:#F83C6F;}
	.st20{fill:#F3407A;}
	.st21{fill:#042670;}
	.st22{fill:#0463B0;}
	.st23{fill:#53A641;}
	.st24{fill:#0363B5;}
	.st25{fill:#04942C;}
	.st26{fill:#7DA2F4;}
	.st27{fill:#FDFDFD;}
	.st28{fill:#F0F2F7;}
	.st29{fill:#0663B4;}
	.st30{fill:#FC8609;}
</style>
<g id="background">
</g>
<g id="logo">
	<circle class="st1" cx="320" cy="320" r="320"/>
	<g>
		<path class="st28" d="M504.75,501.46c1.99,1.72,3.91,3.54,5.99,5.12c4.13,3.15,8.59,5.57,13.82,6.07
			c2.86,0.28,5.66-0.03,8.42-0.92c3.56-1.15,6.39-3.27,8.51-6.45c0.35-0.52,0.73-1.02,1.09-1.52c0.14,0.79,0.34,1.61,1.27,1.64
			c2.29,0.08,4.27,1.29,6.43,1.79c3.05,0.7,5.33,2.59,7.34,4.95c1.45,1.7,2.04,5.22,0.94,7.16c-1,1.76-2.16,3.37-3.8,4.67
			c-5.56,4.42-11.9,7.28-18.19,10.31c-3.84,1.85-7.88,3.06-11.77,4.72c-2.5,1.07-5.16,1.77-7.78,2.51
			c-7.62,2.15-15.23,4.37-22.9,6.33c-8.62,2.2-17.26,4.34-25.97,6.13c-10.17,2.09-20.25,4.6-30.27,7.28
			c-5.38,1.44-10.79,2.72-16.16,4.16c-5.72,1.53-11.54,2.69-17.33,3.98c-1.93,0.43-3.9,0.4-5.86,0.83
			c-4.69,1.04-9.44,1.86-14.21,2.32c-2.7,0.26-5.33,1.26-8.08,0.93c-3.31,1.3-6.92,0.21-10.25,1.4c-0.67,0.24-1.48,0.12-2.22,0.13
			c-1.98,0.03-3.92,0.07-5.89,0.58c-1.64,0.43-3.45,0.16-5.19,0.2c-1.97,0.04-3.91,0.07-5.89,0.55c-1.89,0.46-3.95,0.17-5.93,0.23
			c-1.97,0.06-3.95-0.19-5.89,0.58c-0.77,0.31-1.72,0.18-2.58,0.18c-8.69,0.01-17.37,0.01-26.06,0c-1.24,0-2.45-0.04-3.67-0.43
			c-0.92-0.29-1.95-0.31-2.93-0.32c-2.48-0.04-4.96-0.01-7.44-0.02c-1.61-0.01-3.21,0.1-4.78-0.53c-0.66-0.27-1.46-0.21-2.2-0.23
			c-2.22-0.05-4.46,0.15-6.62-0.68c-0.55-0.21-1.23-0.1-1.85-0.1c-3.72,0.01-7.34-0.82-10.99-1.34c-2.2-0.32-4.4-0.74-6.59-0.89
			c-2.47-0.17-4.9-0.69-7.33-1.04c-5.6-0.81-11.2-1.62-16.76-2.81c-7.49-1.59-14.95-3.32-22.38-5.17
			c-7.68-1.92-15.29-4.15-22.97-6.07c-5.39-1.34-10.85-2.38-16.28-3.55c-3.86-0.83-7.75-1.55-11.58-2.52
			c-11.74-2.99-23.52-5.88-35.18-9.19c-6.67-1.9-13.18-4.42-19.7-6.87c-5.6-2.1-10.82-5.08-15.95-8.21
			c-1.21-0.74-2.17-1.7-3.13-2.69c-1.24-1.26-2.46-2.55-3.68-3.83c-2.8-2.93-1.88-6.67,0.06-9.06c1.77-2.19,4.06-3.74,6.67-4.72
			c0.93-0.35,1.88-0.64,2.79-1.04c0.51-0.22,0.53-0.82,0.64-1.32c1.12,1.48,2.18,3.02,3.39,4.42c1.72,2,3.73,3.61,6.39,4.08
			c0.87,0.55,1.78,0.87,2.82,0.7c2.52,0.62,5.03,0.67,7.54-0.07c0.77,0.13,1.4-0.24,2.03-0.63c6.23-2.03,11.22-5.98,15.67-10.8
			c0.75-0.81,1.28-1.86,2.3-2.4c0.13,0.64,0.28,1.32,0.97,1.49c1.43,0.35,2.88,0.83,4.33,0.85c4.06,0.06,8.09,0.44,12.13,0.72
			c3.2,0.23,6.38,0.62,9.5,1.15c4.59,0.79,9.22,1.29,13.83,1.94c2.53,0.36,5.12,0.41,7.66,0.89c0.99,2.32,1.82,4.73,2.99,6.95
			c2.42,4.56,5.63,8.32,10.63,9.97c1.04,0.89,2.25,0.95,3.52,0.76c1.49,0.33,2.98,0.4,4.47,0.02c1.46,0.18,2.84-0.05,4.13-0.81
			c5.57-1.79,9.15-5.86,11.74-11.04c0.96-1.92,1.82-3.9,2.73-5.85c1.11,0.66,2.32,0.81,3.58,0.78c1.86-0.05,3.72-0.01,5.58-0.01
			c55.3,0,110.6,0,165.89-0.01c1.97,0,3.95,0.16,5.88-0.58c0.77-0.3,1.72-0.16,2.58-0.17c2.36-0.02,4.71-0.02,7.07-0.02
			c0.73,1.47,1.49,2.93,2.19,4.42c1.2,2.55,2.76,4.81,4.68,6.85c3.47,3.7,7.86,5.47,12.61,5.59c5.92,0.15,11.09-2.13,14.81-7.2
			c1.96-2.67,3.32-5.68,4.49-8.79c0.22-0.58,0.5-1.14,0.75-1.71c0.04,0.65,0.17,1.57,0.9,1.35c3.22-1,6.67,0.04,9.83-1.25
			c5.07,0.26,9.96-1.26,14.97-1.72c3.89-0.36,7.72-1.35,11.66-1.4c0.37,0,0.77,0.03,1.1-0.11c2.14-0.88,4.37-0.62,6.58-0.65
			c1.48-0.02,2.96-0.01,4.44-0.02C503.62,502.4,504.31,502.19,504.75,501.46z"/>
		<path class="st29" d="M239.67,177.96c-0.33-0.67-0.52-1.36-0.31-2.11c-0.42-0.87-0.43-1.8-0.37-2.75
			c-0.42-0.86-0.7-1.76-0.59-2.74c-0.16-0.31-0.31-0.63-0.47-0.94c-0.64-0.48-0.53-1.21-0.56-1.89c0.06-1.03-0.39-1.88-0.86-2.73
			c-0.51-0.3-0.59-0.78-0.54-1.33c-0.48-2.92-2.12-5.4-2.97-8.18c-0.62-0.45-1.04-1.03-1.04-1.86c-0.14-0.25-0.29-0.49-0.44-0.74
			c-0.4-0.13-0.56-0.43-0.53-0.86c-0.99-1.44-1.97-2.89-2.97-4.33c-1.42-2.05-2.8-4.14-4.79-5.67c0,0-0.08-0.1-0.08-0.1
			c-0.21-0.23-0.42-0.46-0.63-0.69c0,0-0.07-0.08-0.07-0.08c-0.23-0.25-0.45-0.49-0.68-0.74c-0.37-1-1.22-1.57-1.92-2.25
			c-4.16-4.01-8.83-7.25-13.88-9.92c-1.2-0.63-2.39-1.28-3.59-1.91c-0.71,0.07-1.29-0.19-1.78-0.71c-0.21,0.08-0.38,0.02-0.49-0.18
			c-0.65,0.06-1.22-0.11-1.68-0.6c-0.23,0.09-0.41,0.03-0.56-0.17c-0.7,0.12-1.29-0.12-1.81-0.58c-0.16,0.11-0.3,0.07-0.4-0.1
			c-0.78,0.14-1.47-0.06-2.07-0.58c-0.3-0.06-0.61-0.13-0.91-0.19c-0.99,0.17-1.88-0.11-2.72-0.63c0,0-0.24-0.04-0.24-0.04
			c-1.94-0.2-3.87-0.42-5.81-0.59c-3.9-0.34-7.8-0.5-11.71-0.2c-1.09,0.08-2.19,0.02-3.28,0.03c-0.45,0.06-0.89,0.12-1.34,0.18
			c-0.7,0.61-1.51,0.7-2.37,0.52c-0.28,0.05-0.56,0.1-0.84,0.15c-0.63,0.5-1.31,0.76-2.11,0.56c-0.7,0.24-1.4,0.51-2.11,0.71
			c-18.29,4.96-35.48,20.85-42.06,40.58c-0.93,2.78-1.61,5.64-2.4,8.46c0.22,0.58,0.03,1.05-0.35,1.47
			c0.08,1.08-0.03,2.14-0.41,3.16c0.31,0.85,0.17,1.64-0.29,2.39c0,4.01,0,8.02-0.01,12.03c0.08,0.17,0.18,0.34,0.22,0.52
			c0.02,0.06-0.1,0.16-0.15,0.24c0.83,1.76,0.28,3.89,1.34,5.59c0.07-0.23,0.08-0.51,0.21-0.68c0.18-0.22,0.4-0.14,0.46,0.11
			c0.23,0.93,0.45,1.87,0.68,2.81c0.16,0.66-0.04,1.19-0.52,1.62c-0.1,0.66-0.02,1.27,0.49,1.74c0.18,0.87,0.28,1.77,0.56,2.6
			c5.31,15.42,14.64,27.39,28.39,35.54c2.13,1.26,4.23,2.63,6.66,3.25c0.66,0.07,1.35,0.05,1.77,0.74c0.77,0.4,1.51,0.89,2.42,0.86
			c0.75,0.03,1.54-0.05,2.06,0.7c0,0,0.04,0.31,0.04,0.31c0.76-0.11,1.4,0.14,1.98,0.63c0.38-0.03,0.77-0.07,1.15-0.1
			c0.95,0.09,1.98-0.22,2.76,0.65c0.33,0.04,0.66,0.08,0.98,0.12c1.42,0.19,2.95-0.39,4.25,0.64c0,0,0.02,0.3,0.02,0.3
			c4.45,0,8.91,0,13.36,0c0,0,0-0.31,0-0.31c1.29-1.03,2.82-0.44,4.22-0.65c0.34-0.05,0.69-0.1,1.04-0.15
			c0.78-0.84,1.81-0.53,2.75-0.62c0.32-0.07,0.65-0.14,0.97-0.21c0.52-0.63,1.24-0.54,1.92-0.58c1.71-0.17,3.25-0.86,4.77-1.63
			c0.36-0.65,0.98-0.65,1.59-0.68c2.95-1.02,5.72-2.45,8.36-4.12c12.74-8.04,21.79-19.23,26.85-33.84c2.2-6.34,3.53-12.84,3.48-19.6
			C239.72,184.38,239.7,181.17,239.67,177.96z"/>
		<path class="st29" d="M397.78,94.69c-0.76-1.95-1.66-3.76-3.87-4.32c-2.37-0.6-4.68-0.57-6.83,0.78c-0.84,0.53-1.63,1.17-2.4,1.81
			c-0.58,0.48-1.09,1.05-1.64,1.57c-6.3,6.01-12.18,12.45-18.1,18.85c-3.69,3.99-7.33,8.03-10.6,12.4c-0.53,0.7-1.02,1.45-1.45,2.22
			c-0.26,0.47-0.1,1.01,0.24,1.42c0.36,0.43,0.83,0.54,1.32,0.27c0.99-0.54,1.99-1.05,2.93-1.66c5.39-3.43,10.8-6.8,16.12-10.33
			c6.36-4.23,12.64-8.6,18.94-12.92c2.65-1.81,4.83-4.02,5.68-7.34C398.32,96.48,398.49,95.52,397.78,94.69z"/>
		<path class="st28" d="M330.99,373.49c0.45-0.52,1.01-0.71,1.67-0.62C332.25,373.51,331.61,373.49,330.99,373.49z"/>
		<path class="st28" d="M340.19,354c-0.36-0.38-0.61-0.81-0.51-1.37C340.14,352.97,340.21,353.47,340.19,354z"/>
		<g>
			<path class="st30" d="M290.36,129.59c-0.6-1.55-1.19-3.11-1.85-4.63c-2.39-5.51-4.84-10.99-7.2-16.52
				c-1.7-4-3.21-8.08-4.93-12.07c-1.52-3.52-3.14-6.99-4.84-10.43c-1.42-2.86-3.73-4.39-8.16-4.3c-1.86,0.03-4.21,2.05-4.74,5.21
				c-0.43,2.56,0.34,4.78,1.82,6.84c3.71,5.15,7.33,10.38,11.03,15.54c4.81,6.71,9.64,13.4,14.5,20.08
				c0.82,1.12,1.79,2.13,2.72,3.16c0.45,0.49,1.06,0.74,1.67,0.31c0.58-0.41,0.58-1.1,0.45-1.74
				C290.71,130.55,290.54,130.06,290.36,129.59z"/>
			<path class="st30" d="M307,134.21c-0.14-0.38-0.28-0.76-0.42-1.15c0.07-0.14,0.03-0.26-0.1-0.33c-0.19-0.51-0.39-1.02-0.58-1.53
				c0.02-0.09,0.07-0.18,0.04-0.25c-0.05-0.16-0.13-0.31-0.2-0.46c-0.68-0.77-0.66-1.83-1.05-2.72c-0.25-0.56-0.55-1.11-1.22-1.24
				c-0.66-0.12-1.1,0.36-1.58,0.7c-0.7,0.83-0.69,1.7-0.16,2.61c0.17,0.49,0.33,0.99,0.5,1.48c-0.12,0.42-0.06,0.76,0.33,1
				c0.16,0.35,0.31,0.7,0.47,1.06c-0.05,0.24,0.03,0.41,0.25,0.52c0.17,0.33,0.34,0.66,0.51,0.99c-0.06,0.29,0.05,0.48,0.31,0.6
				c0.16,0.31,0.32,0.63,0.48,0.94c0.3,1.39,1,2.58,1.75,3.74c0.46,0.71,1.39,0.97,1.93,0.62c0.61-0.39,0.75-1.07,0.58-1.66
				C308.37,137.43,308.17,135.62,307,134.21z"/>
			<path class="st30" d="M285.97,146.71c0.62,0.04,1.38,0.57,2.13-0.46c-1.88-0.75-3.33-2.05-4.94-3.35
				C283.18,146.47,283.19,146.52,285.97,146.71z"/>
			<path class="st30" d="M337.01,68.56c-0.19-0.87-0.36-1.74-0.56-2.6c-0.75-3.16-2.73-5.19-5.71-5.87
				c-2.97-0.69-5.25,0.83-6.97,3.27c-1.42,2.02-2.04,4.35-2.28,6.8c-0.37,3.81-0.71,7.63-0.73,11.47c-0.01,2.04-0.21,4.07-0.33,6.11
				l0,0c-0.41,0.41-0.44,0.87-0.12,1.35c0.18,0.64,0.14,1.27-0.11,1.88c-0.02,0.52-0.05,1.03-0.07,1.55
				c-0.14,4.58-0.25,9.17-0.44,13.75c-0.24,5.73-0.54,11.46-0.8,17.19c-0.06,1.32,0.21,2.54,1.32,3.39c0.53,0.31,0.97,0.22,1.3-0.32
				c1.3-1.47,1.72-3.32,2.13-5.19c0.78-3.58,1.51-7.18,2.83-10.61c0.12-0.4,0.24-0.8,0.36-1.2c0.06-0.35,0.12-0.69,0.18-1.04
				c0.45-0.4,0.52-0.94,0.49-1.51c0.04-1.83,0.77-3.49,1.22-5.21c2.76-10.38,5.88-20.67,8.13-31.19
				C337.33,69.94,337.28,69.26,337.01,68.56z"/>
			<path class="st30" d="M344.38,118.7c-0.18-0.33-0.31-0.72-0.55-0.99c-1.36-1.57-2.37-1.71-3.73-0.36
				c-0.7,0.69-1.36,1.51-1.79,2.4c-1.99,4.11-3.9,8.26-5.83,12.4c-0.21,0.46-0.41,0.94-0.5,1.43c-0.1,0.5-0.11,1.07,0.3,1.43
				c0.43,0.39,0.92,0.19,1.34-0.1c0.41-0.28,0.81-0.59,1.16-0.94c3.98-4.06,7.36-8.57,9.55-13.95
				C344.67,119.59,344.68,119.15,344.38,118.7z"/>
		</g>
		<polygon class="st28" points="530.05,438.74 529.99,438.67 530,438.79 		"/>
		<path class="st28" d="M544.18,481.96c0,0-0.07,0.07-0.07,0.07S544.18,481.96,544.18,481.96z"/>
		<g>
			<path class="st30" d="M302.4,370.73c-0.6-0.6-1.36-0.74-2.03-0.33c-1.07,0.66-1.45,0.41-2.25-0.69
				c-3.43-4.77-6.76-4.7-10.08-2.16c-1.8,1.37-1.97,2.8-0.37,4.48c1.55,1.64,3.21,3.19,5.18,4.31c0.98,0.56,1.99,1.03,3.04,0.95
				c2.6,0.06,6.08-2.17,6.97-4.46C303.15,372.08,303,371.32,302.4,370.73z"/>
			<path class="st30" d="M284.11,364.5c-2.14-1.79-4.64-2.31-7.32-1.83c-0.86,0.16-1.43,1.14-1.33,2.04c0.31,2.8,3.51,5.68,6.27,5.6
				c0.84,0.04,1.67-0.24,2.38-0.77c0.38-0.28,0.82-0.71,0.9-1.14C285.29,366.99,285.31,365.51,284.11,364.5z"/>
			<path class="st30" d="M304.59,373.64c-1.13,0.8-2.52,1.66-2.27,3.24c0.28,1.74,1.98,2.12,3.4,2.57c0.35,0.11,0.74,0.12,1.11,0.07
				c2.33-0.31,4.61-0.79,6.61-2.81c-1.63-1.6-3.51-2.5-5.38-3.45C306.78,372.61,305.68,372.87,304.59,373.64z"/>
			<path class="st30" d="M570.76,360.52c-0.42-3.52-0.84-7.03-1.25-10.55l-0.06-0.1l0-0.01c0,0,0,0.02,0.01,0.03
				c0.01,0.03,0.02,0.08,0.02,0.08c-0.46-1.24-0.8-2.51-0.71-3.86l0,0c0,0-0.02-0.03-0.02-0.03c-0.47-0.99-0.75-2.02-0.73-3.13
				l-0.04-0.05l-0.01-0.01c0,0,0,0.11-0.01,0.11c-0.4-1.01-0.73-2.05-0.69-3.17v0l-0.01,0l-0.04-0.04c0,0,0,0.03-0.01,0.06
				c0,0.02-0.01,0.04-0.01,0.05c0,0,0,0.01,0,0.01c-1.3-4.69-2.72-9.34-4.43-13.9c-7.03-18.66-16.88-35.48-30.26-49.99
				c-5.84-6.34-12.13-12.14-19.08-17.16c-3.68-2.66-7.63-4.8-11.85-6.38c-4.09-1.53-8-1.67-11.51,1.53
				c-0.28,0.25-0.6,0.45-0.91,0.67c-8.77,6.19-18.33,10.05-29,10.95c-6.87,0.58-13.64,0.1-20.32-1.47
				c-8.07-1.9-15.54-5.33-22.07-10.66c-1.56-1.27-3.09-1.49-4.84-1.18c-1.97,0.36-3.77,1.23-5.51,2.24
				c-6.29,3.63-11.52,8.51-15.51,14.7c-5.29,8.21-11.75,15.31-19,21.59c-11.16,9.68-23.8,16.64-37.73,21.05
				c-2.01,0.64-3.97,1.43-5.95,2.15c-0.23,0.29-0.46,0.45-0.7,0.46c0.24-0.02,0.47-0.18,0.7-0.46c-0.48,0.02-0.96,0.05-1.44,0.07
				c-1.02,0.05-1.88-0.47-2.79-0.81c-3.1-1.16-6.25-2.14-9.49-2.75c-0.63-0.63-1.3-0.6-1.99-0.14c-0.73,0.14-1.45,0.32-2.18,0.42
				c-2.01,0.27-3.87,1-5.47,2.24c-5.35,4.13-8.15,9.87-9.43,16.52c-0.3,1.57,0.35,2.75,1.68,3.54c1.35,0.81,2.75,1.04,4.28,0.55
				c2.94-0.94,5.33-2.7,7.26-5.13c1.27-1.6,2.61-3.07,4.39-4.1c1.19-0.69,2.33-0.79,3.53-0.12c0.65,0.37,1.32,0.72,1.94,1.14
				c4.16,2.8,8.36,5.52,12.43,8.46c2.33,1.68,4.57,3.56,6.6,5.62c5.07,5.15,8.99,10.99,9.16,18.75c0,0.13,0.01,0.26,0.05,0.38
				c0.16,0.56,0.53,0.86,1.09,0.71c0.48-0.12,0.92-0.36,1.39-0.52c11.45-3.92,22.29-9.25,32.85-15.22
				c6.87-3.88,13.43-8.27,19.47-13.43c2.29-1.96,4.37-4.17,6.54-6.27c0.15-0.11,0.27-0.26,0.34-0.44c0,0,0,0,0,0
				c0,0,0.18-0.26,0.18-0.26c0.18-0.24,0.36-0.48,0.54-0.72h0c1.31-2.07,2.62-4.13,3.93-6.2c0.56-0.01,1.13-0.02,1.69-0.03
				c0.27,0.98-0.07,1.86-0.42,2.74l0.01-0.1l0-0.01c0,0-0.01,0.01-0.02,0.01c-0.01,0.01-0.01,0.01-0.02,0.01
				c-0.01,0.01-0.02,0.02-0.02,0.02c-0.75,3.17-2.52,5.86-4.01,8.65c-1.13,2.11-1.71,4.21-1.77,6.57
				c-0.21,7.46-0.53,14.91-0.7,22.36c-0.17,7.59-0.19,15.18-0.29,22.76c-0.02,1.41-0.16,2.82-0.24,4.22
				c0.08,0.26,0.14,0.51,0.15,0.76c-0.01-0.25-0.07-0.5-0.15-0.76c-0.45,0.59-0.36,1.25-0.26,1.92c0.09,0.63,0.26,1.25,0.24,1.87
				c-0.42,13.16-0.87,26.33-1.31,39.49c-0.01,0.25-0.11,0.5-0.16,0.75c-0.44,0.58-0.35,1.24-0.26,1.9c0.49,1.11,0.23,2.28,0.23,3.43
				c-0.02,4.88-0.15,9.77-0.09,14.65c0.11,7.97,0.34,15.93,0.52,23.9c0,0,0,0,0,0c0,1.04-0.28,2.11,0.35,3.07
				c0.41,1.97,0.45,3.98,0.46,5.98c0.06,0.32,0.12,0.64,0.19,0.95c0.59,3.5,1.26,6.99,1.77,10.5c0.75,5.18,2.45,10.09,3.9,15.07
				c0.73,1.47,1.49,2.93,2.19,4.42c1.2,2.55,2.76,4.81,4.68,6.85c3.47,3.7,7.86,5.47,12.61,5.59c5.92,0.15,11.09-2.13,14.81-7.2
				c1.96-2.67,3.32-5.68,4.49-8.79c0.22-0.58,0.5-1.14,0.75-1.71c1.52-6.61,2.64-13.28,3.16-20.05c-0.07-0.52-0.11-1.04-0.11-1.55
				c-0.01,0.51,0.04,1.03,0.11,1.55c0.87-1.27,0.43-2.68,0.42-4.05c-0.02-10.54-0.02-21.08-0.07-31.62
				c-0.03-7.46-0.08-14.92-0.19-22.38c-0.09-5.84-0.12-5.86-4.92-8.65c-3.91-2.28-7.56-4.92-10.79-8.15
				c-0.62-0.62-1.3-1.26-1.04-2.3c0.18-0.73,1.16-1.02,2.63-0.73c0.72,0.14,1.41,0.44,2.12,0.67c0,0,0.01,0.01,0.01,0.01
				c0,0-0.01,0-0.01,0c0,0,0.01,0,0.01,0l-0.11-0.06c-0.01-0.01-0.02-0.01-0.02-0.01l0,0l0,0h0c3.92,1.93,8.14,2.82,12.31,3.86
				c2.03,0.51,4.07,0.97,6.13,1.33c1.28,0.22,1.84,0.9,2.2,2.16c1.68,5.99,3.45,11.96,5.19,17.94l0.06-0.13
				c4.61,14.57,10.27,28.71,17.27,42.21c4.41,8.51,9.66,16.49,15.91,23.7c0.41,0.47,0.74,1.01,1.11,1.51
				c1.99,1.72,3.91,3.54,5.99,5.12c4.13,3.15,8.59,5.57,13.82,6.07c2.86,0.28,5.66-0.03,8.42-0.92c3.56-1.15,6.39-3.27,8.51-6.45
				c0.35-0.52,0.73-1.01,1.09-1.52c2.19-5.29,2.77-10.81,2.24-16.5c-0.17-1.77-0.42-3.54-0.63-5.31c0,0-0.07,0.07-0.07,0.07
				c-1.27-5.23-3-10.29-5.04-15.26c-2.42-5.9-4.69-11.87-6.36-18.05c-0.9-3.32-2.21-6.53-2.67-9.98l-0.05-0.07c0,0,0,0.11,0,0.11
				c-0.66-2.43-1.41-4.85-1.96-7.31c-1.08-4.8-2.49-9.52-3.15-14.42c-0.06-0.3-0.13-0.6-0.19-0.91c0,0,0,0,0,0
				c-0.58-0.88-0.65-1.87-0.6-2.88l-0.01-0.02l-0.04-0.06c0,0,0,0.11,0,0.11c-0.44-1.25-0.79-2.51-0.67-3.86
				c-0.06-0.35-0.13-0.69-0.19-1.04c-0.79-2.31-1.06-4.72-1.3-7.13c-0.07-0.46-0.14-0.91-0.22-1.37c-0.88-3.06-1.26-6.21-1.38-9.4
				c0,0,0,0,0,0c0.03-0.25-0.01-0.48-0.13-0.7c-0.52-0.94-0.56-1.95-0.46-3c0,0,0,0,0,0c-0.1-0.79-0.2-1.57-0.3-2.36
				c-0.12,0.45-0.15,0.9-0.08,1.32c-0.07-0.43-0.04-0.87,0.08-1.32c-0.79-3.82-1.46-7.66-1.4-11.59c0,0,0,0,0,0
				c-0.05-0.29-0.11-0.58-0.16-0.87c-0.53-1.15-0.49-2.37-0.4-3.59c0,0,0,0,0,0c-0.08-0.82-0.15-1.64-0.23-2.46v0
				c-0.73-5.66-1.46-11.33-2.2-16.99c0,0,0,0,0,0c-0.08-0.31-0.16-0.63-0.24-0.94c-0.6-4.55-1.2-9.09-1.8-13.64c0,0,0,0,0,0
				c-0.1-0.57-0.2-1.14-0.31-1.71c-0.53-0.87-0.54-1.84-0.46-2.83c-0.1-0.6-0.19-1.2-0.29-1.81c-0.52-0.88-0.52-1.86-0.5-2.85
				l-0.04-0.05c0,0,0,0.01,0,0.02c-0.01,0.03-0.02,0.1-0.02,0.1c-0.64-2.42-1.31-4.84-1.51-7.36c0.06-0.63,0.14-1.25,0.74-1.6
				c5.18,4.2,8.73,9.79,12,15.53c5.04,8.88,8.9,18.33,11.9,28.16c1.01,3.31,2.17,6.56,3.61,9.69c2.95,6.43,6.95,11.83,13.67,14.43h0
				c0.35,0.07,0.69,0.14,1.04,0.21c1.36-0.02,2.72,0.06,4.07-0.09c5.14-0.56,9.1-2.97,11.33-8.01c0.88-1.99,1.55-4.04,1.92-6.19
				c0.17-1,0.39-2,0.59-2.99C571.12,364.87,571.09,362.7,570.76,360.52z M409.08,323.76c0.01-0.08,0.06-0.13,0.11-0.18
				C409.13,323.63,409.09,323.69,409.08,323.76z M524.61,416.32c-0.03,0.06-0.04,0.11-0.03,0.15
				C524.56,416.43,524.58,416.38,524.61,416.32z M512.82,334.13c-0.13-0.23-0.22-0.47-0.24-0.73
				C512.6,333.66,512.68,333.9,512.82,334.13z M509.69,315.31c0.33-0.01,0.57,0.17,0.73,0.46
				C510.26,315.48,510.02,315.29,509.69,315.31z"/>
			<path class="st30" d="M392.33,194.07c-0.09,0.58-0.09,1.14,0.27,1.64c0.91,5.07,2.18,10.03,4.09,14.8
				c4.16,10.43,10.3,19.3,18.96,26.25c6.55,5.26,13.71,9.22,21.7,11.54c0,0-0.11,0.06-0.11,0.06c2.38,0.54,4.75,1.08,7.13,1.62
				c0.96,1.01,2.15,0.6,3.27,0.56c4.12,0.03,8.23,0.07,12.34,0.1c1.25-0.08,2.59,0.41,3.72-0.56c2.3-0.49,4.63-0.84,6.88-1.48
				c15.27-4.35,27.32-13.37,36.19-26.99c3.5-5.36,5.84-11.27,7.83-17.35c0.6-0.57,0.5-1.33,0.55-2.06c0.14-0.88,0.25-1.77,0.42-2.65
				c2.31-12.55,1.65-24.92-3.1-36.74c-8.13-20.23-22.73-32.95-43.18-38.35c-10.52-2.78-21.1-2.89-31.58,0.36
				c-19.63,6.08-33.49,18.84-41.28,38.56c-1.03,2.61-1.86,5.31-2.79,7.97c0,0-0.01,0.03-0.01,0.03c0.04,1.13-0.18,2.19-0.68,3.19
				c0,0-0.02,0.13-0.02,0.13c-0.45,4.42-0.97,8.83-0.78,13.29C392.26,190.01,392.28,192.04,392.33,194.07z"/>
		</g>
		<path class="st28" d="M470.46,434.03c0,0-0.06,0.13-0.06,0.13C470.4,434.16,470.46,434.03,470.46,434.03z"/>
		<g>
			<path class="st29" d="M340.19,354c-0.36-0.38-0.61-0.81-0.51-1.37c-1.8-4.49-5-7.86-8.37-11.07c-4.39-4.19-9.55-7.23-14.53-10.53
				c-1.25-0.83-1.51-0.77-2.59,0.23c-1.74,1.6-3.3,3.46-5.58,4.3c-0.48-0.01-0.91,0.07-1.15,0.57c-0.14,0.18-0.31,0.23-0.52,0.15
				c-3.18,0-6.36-0.01-9.54-0.01c0.43,0.18,0.86,0.32,1.3,0.43c0.66,0.17,1.33,0.26,2,0.32c-0.67-0.06-1.34-0.15-2-0.32
				c-0.44-0.11-0.87-0.25-1.3-0.43c-0.17,0.11-0.33,0.08-0.46-0.07c-0.77-0.91-1.79-0.58-2.74-0.62c-3.01-1.46-3.76-2.63-3.46-5.85
				c0.31-3.33,1.11-6.53,2.95-9.36c0.76-1.16,1.5-2.33,2.28-3.48c1.05-1.55,1.06-1.54-1.04-2.42c-0.11-0.05-0.21-0.12-0.32-0.19
				c-0.24,0.1-0.45,0.11-0.65,0.04c0.19,0.07,0.41,0.06,0.65-0.04c-0.32-0.37-0.75-0.38-1.18-0.35c-0.36-0.05-0.75-0.04-1.09-0.17
				c-11.11-4.18-21.66-9.46-31.06-16.98c-8.56-6.85-16.42-14.43-22.73-23.63c-1.65-2.41-3.33-4.79-5.01-7.17
				c-2.98-4.22-6.73-7.51-11.2-9.9c-1.65-0.88-3.35-1.64-5.03-2.46c-1.19-1-2.42-0.98-3.66-0.1c-1.68,0.74-3.17,1.81-4.68,2.87
				c-2.4,1.69-4.84,3.32-7.62,4.26c-0.43-0.02-0.83,0.02-1.02,0.52c-0.16,0.21-0.37,0.28-0.63,0.22c-0.63,0.01-1.28-0.05-1.65,0.66
				c-0.11,0.18-0.26,0.22-0.45,0.14c-0.67-0.02-1.37-0.11-1.77,0.66c-0.11,0.18-0.25,0.22-0.43,0.13c-0.67-0.04-1.37-0.14-1.79,0.61
				c-0.14,0.18-0.31,0.22-0.52,0.14c-0.87,0.04-1.84-0.29-2.47,0.68c-0.13,0.16-0.29,0.19-0.47,0.09c-0.87,0.34-1.74,0.67-2.61,1.01
				c-0.25,0.16-0.49,0.35-0.73,0.53c0.24-0.18,0.48-0.38,0.73-0.53c0.87-0.34,1.74-0.67,2.61-1.01c-1.38,0.15-2.9-0.49-4.1,0.73
				c-0.5,0.06-0.99,0.13-1.49,0.19c-0.07,0.21-0.14,0.41-0.2,0.62c0,0,0,0,0,0c0.07-0.21,0.14-0.42,0.21-0.62
				c-4.83-0.06-9.66-0.12-14.5-0.18c1.08,0.28,2.16,0.57,3.24,0.85c3.28,0.02,6.55,0.04,9.83,0.07c0.19-0.14,0.39-0.22,0.6-0.24
				c-0.2,0.02-0.4,0.1-0.6,0.24c-0.23,0.14-0.46,0.37-0.69,0.48c0.23-0.11,0.46-0.34,0.69-0.48c-3.28-0.02-6.55-0.04-9.83-0.07
				c-1.08-0.28-2.16-0.57-3.24-0.85c-0.17,0.1-0.32,0.08-0.46-0.07c-0.82-1.02-1.9-0.64-2.92-0.57c-0.85-0.12-1.72-0.17-2.55-0.38
				c-6.68-1.66-12.83-4.56-18.58-8.43c-1.13-0.76-2.12-1.78-3.49-2.12c-0.04-0.36-0.22-0.54-0.58-0.49c0,0-0.11-0.22-0.11-0.22
				l-0.24,0c-1.61-0.01-3.22-0.01-4.82-0.02c0,0-0.15,0.05-0.15,0.05c-0.46-0.08-0.87,0.03-1.21,0.36
				c-5.98,2.49-11.3,6.05-15.97,10.64c-0.33-0.03-0.48,0.14-0.48,0.47c0,0-0.2,0.01-0.2,0.01l-0.04,0.21
				c-0.38-0.01-0.57,0.2-0.61,0.58c0,0-0.1,0.09-0.1,0.09c-0.42,0.02-0.65,0.24-0.68,0.68c0,0-0.06,0.06-0.06,0.06
				c-1.09,0.48-1.89,1.29-2.55,2.28c-0.18,0.17-0.36,0.34-0.54,0.51l-0.15-0.03c0,0,0.03,0.16,0.03,0.16c0,0,0.01-0.01,0.02-0.02
				c-0.01,0.01-0.02,0.02-0.02,0.02c-0.21,0.21-0.41,0.42-0.62,0.63l-0.17-0.02c0,0,0.01,0.18,0.01,0.18
				c-0.18,0.19-0.37,0.38-0.56,0.58l0,0l-0.18,0c0,0,0,0.19,0,0.19l0,0c-0.18,0.19-0.37,0.38-0.56,0.58h0l-0.18,0c0,0,0,0.19,0,0.19
				c-0.18,0.19-0.36,0.38-0.55,0.58l0,0l-0.16-0.01c0,0,0.05,0.15,0.04,0.16c-0.22,0.24-0.45,0.49-0.68,0.74
				c0,0-0.03,0.03-0.03,0.03c0,0,0.01-0.01,0.01-0.01c-0.01,0.01-0.01,0.01-0.01,0.01c-0.24,0.25-0.47,0.5-0.71,0.74
				c0,0-0.03,0.03-0.02,0.03c-0.18,0.22-0.37,0.43-0.55,0.65c-1,0.62-1.77,1.46-2.2,2.59c0,0-0.07,0.07-0.07,0.07
				c-0.41,0.03-0.61,0.27-0.62,0.69c0,0-0.1,0.13-0.1,0.13c-1.49,1.27-2.77,2.72-3.66,4.52c0,0-0.1,0.1-0.1,0.1
				c-0.18,0.21-0.35,0.41-0.53,0.62c0,0-0.21,0.07-0.21,0.07l0.01,0.22c-1.79,1.72-3.25,3.7-4.35,5.95c0,0-0.14,0.18-0.14,0.18
				c-0.31,0.02-0.47,0.18-0.41,0.52c-0.23,0.08-0.33,0.24-0.28,0.5c-0.48,0.2-0.74,0.55-0.72,1.1c0,0-0.05,0.08-0.05,0.08
				c-1.02,0.77-1.66,1.82-2.09,3.03c0,0-0.12,0.22-0.12,0.22c-1.54,1.77-2.82,3.72-3.66,5.96c0,0-0.07,0.12-0.07,0.12
				c-1.02,1.05-1.64,2.35-2.14,3.72c0,0-0.09,0.18-0.09,0.18c-1,1.04-1.64,2.3-2.06,3.7c0,0-0.19,0.11-0.19,0.11l0.03,0.23
				c-0.47,0.24-0.71,0.61-0.64,1.17c-0.85,0.79-1.17,1.91-1.66,2.91c-1.22,2.47-2.4,4.96-3.6,7.44c-0.52,0.55-0.92,1.14-0.8,1.96
				c-0.82,2.37-1.65,4.74-2.47,7.11c0.02,0.17,0.02,0.33,0,0.49c0.02-0.16,0.02-0.32,0-0.49c-0.63,0.41-0.56,1.08-0.61,1.71
				c0.07,0.24,0.01,0.44-0.18,0.59c-0.31,0.21-0.43,0.51-0.38,0.88c-0.21,1.67-0.68,3.25-1.46,4.73c-0.07,0.28-0.13,0.55-0.2,0.83
				c-0.15,0.48-0.3,0.96-0.45,1.44c-0.1,0.4-0.2,0.79-0.29,1.19c-0.62,2.93-1.24,5.86-1.86,8.79c-0.44,0.59-0.34,1.29-0.34,1.96
				c-0.09,0.86-0.17,1.72-0.26,2.59c-0.62,0.73-0.47,1.58-0.35,2.42c-0.04,2.57-0.12,5.14-0.11,7.71c0.02,3.91,0.81,7.67,2.3,11.25
				c4.92,11.86,18.52,11.87,24.7,3.91c0.85-1.1,1.71-2.21,2.43-3.41c2.64-4.4,4.48-9.14,5.49-14.22c0.42-1.05,0.85-2.11,1.27-3.16
				c0.1-0.25,0.2-0.51,0.3-0.76c0,0,0,0,0,0c0.76-2.82,1.51-5.63,2.27-8.45c0.27-0.14,0.39-0.34,0.25-0.65
				c0.55-1.27,1.16-2.53,1.65-3.83c2.58-6.8,5.75-13.28,9.59-19.4c1.4-2.23,2.75-4.54,4.79-6.26c0.74-0.18,1.47-0.36,2.2-0.54
				c0.04,0.39-0.02,0.73-0.44,0.86c0.49,0.45,0.21,0.97,0.13,1.47c0.08-0.5,0.35-1.02-0.14-1.47c-0.09,0.8-0.18,1.61-0.28,2.41
				c0.03,0.43,0.05,0.85,0.08,1.28c-0.28,0.73-0.56,1.45-0.84,2.18v0c-1.13,1.24-0.51,2.81-0.73,4.22c0,0,0,0,0,0
				c-0.07,0.43-0.15,0.85-0.22,1.28c-0.71,0.77-0.44,1.75-0.51,2.66c0.03,0.5,0.07,1,0.1,1.5c-0.56,1.31-0.79,2.68-0.63,4.12
				c-0.05,0.39-0.1,0.78-0.14,1.17c-0.53,1.09-0.75,2.24-0.56,3.45c-0.14,0.33-0.28,0.66-0.42,0.98c-0.88,1.05-0.45,2.32-0.56,3.5
				c0,0.91,0.01,1.82,0.01,2.73c-0.58,1.14-0.72,2.36-0.54,3.62c-0.17,0.59-0.34,1.19-0.5,1.78c-0.66,0.85-0.4,1.85-0.42,2.8
				c0.1,1.17,0.03,2.32-0.39,3.42c-0.67,1.27-0.25,2.66-0.42,3.98c-0.08,0.72-0.15,1.43-0.23,2.15c-0.53,1.61-0.77,3.28-0.82,4.97
				c0,0.09,0.14,0.19,0.22,0.28c-0.06,0.56-0.12,1.12-0.18,1.68c-0.29,0.3-0.33,0.66-0.23,1.05c0,1.12,0,2.24,0.01,3.37
				c0.37-0.41,0.54-0.85,0.6-1.31c-0.06,0.46-0.22,0.9-0.6,1.31c-0.18,0.6-0.36,1.2-0.55,1.8c-0.61,0.8-0.36,1.75-0.42,2.64
				c0,0.92,0,1.85,0,2.77c-0.69,1.38-0.69,2.85-0.59,4.35c-0.05,0.38-0.11,0.77-0.16,1.16c-0.65,1.07-0.69,2.26-0.56,3.47
				c-0.23,0.64-0.46,1.29-0.7,1.93c0,0,0,0,0,0c-0.08,0.58-0.16,1.16-0.24,1.74c0.02,0.7,0.04,1.4,0.05,2.11l0,0
				c-0.55,1.1-0.77,2.26-0.6,3.49c-0.08,0.56-0.17,1.12-0.25,1.68c-0.63,0.9-0.64,1.91-0.5,2.95c0.12-0.1,0.22-0.21,0.3-0.33
				c0.24-0.34,0.32-0.7,0.33-1.08c-0.01,0.38-0.09,0.74-0.33,1.08c-0.08,0.11-0.18,0.22-0.3,0.33c-0.19,0.36-0.38,0.72-0.56,1.08
				c-0.44,0.56-0.35,1.23-0.36,1.89c0.09,0.7-0.01,1.36-0.37,1.96c-0.46,0.54-0.36,1.2-0.38,1.83c0.06,0.76-0.09,1.48-0.5,2.12
				c-0.09,0.48-0.19,0.96-0.28,1.45c0,0,0,0,0,0c-0.13,0.53-0.27,1.07-0.4,1.6c-0.11,0.55-0.21,1.11-0.32,1.67
				c0.01,0.5,0.01,1.01,0.02,1.52c-0.5,0.51-0.61,1.14-0.5,1.84c0.08-0.06,0.16-0.12,0.22-0.18c-0.06,0.06-0.13,0.13-0.22,0.18
				c-0.28,0.67-0.56,1.34-0.84,2.02c0.1,0.18,0.13,0.34,0.1,0.49c0.03-0.15,0-0.31-0.1-0.49c-0.06,0.3-0.11,0.6-0.17,0.9
				c-0.07,0.41-0.15,0.82-0.22,1.22c-0.57,0.51-0.49,1.21-0.51,1.89c0.04,0.76-0.12,1.48-0.53,2.12c-0.07,0.34-0.14,0.68-0.21,1.01
				c0.06,0.73-0.05,1.42-0.47,2.04c-0.09,0.35-0.18,0.71-0.26,1.06c0.03,0.76-0.13,1.46-0.57,2.08c-0.06,0.29-0.13,0.58-0.19,0.87
				c-0.14,0.45-0.28,0.91-0.41,1.36c-0.11,0.35-0.21,0.69-0.32,1.04c0,0.45,0,0.91,0,1.36c-0.5,0.53-0.64,1.16-0.53,1.87
				c-0.23,0.39-0.46,0.78-0.69,1.17c-0.09,0.33-0.18,0.66-0.27,0.99c-0.5,2.03-1,4.06-1.5,6.09c-0.51,0.49-0.67,1.1-0.58,1.8
				c-0.52,0.84-0.9,1.74-0.94,2.77c-0.38,0.24-0.55,0.57-0.43,1.04c-1.74,4.52-3.48,9.04-5.22,13.56c-0.09,0.3-0.18,0.6-0.27,0.9
				c-0.15,0.47-0.31,0.93-0.46,1.4c-0.09,0.32-0.19,0.63-0.28,0.95c-0.03,1.71-1.04,3.24-0.87,4.99c-0.62,0.91-0.6,1.92-0.45,2.96
				c-0.25,1.43-0.5,2.87-0.76,4.31c-0.1,0.2-0.11,0.41-0.03,0.62c0.48,2.33,0.29,4.78,1.15,7.04c-0.21,0.44-0.04,0.78,0.28,1.07
				c-0.01,1.8,1.21,3.19,1.5,4.89c1.12,1.48,2.18,3.02,3.39,4.42c1.73,2,3.73,3.61,6.39,4.08c0.87,0.55,1.78,0.87,2.82,0.7
				c2.52,0.62,5.03,0.67,7.54-0.07c0.77,0.13,1.4-0.24,2.03-0.63c6.23-2.02,11.22-5.98,15.67-10.79c0.75-0.81,1.28-1.86,2.3-2.4
				c0.19-0.33,0.33-0.69,0.57-0.97c8.48-10.17,14.51-21.9,19.89-34.01c2.22-4.99,4.36-10.03,6.08-15.23
				c0.16-0.48,0.21-0.99,0.31-1.48c0.26-0.13,0.33-0.33,0.21-0.6c-0.08,0.09-0.13,0.2-0.17,0.31c0.03-0.11,0.09-0.22,0.17-0.31
				c1.36-2.47,1.99-5.24,2.95-7.88c0.57-1.56,1.15-3.12,1.72-4.68c0,0,0,0,0,0c0.1-0.25,0.2-0.5,0.31-0.76c0,0,0,0,0,0
				c0.94-4.58,2.28-9.04,3.77-13.46c0.02-0.02,0.04-0.04,0.04-0.04c0.25-1.09,0.59-2.17,0.73-3.28c0.22-1.86,1.35-2.52,2.95-2.67
				c1.02,0.2,1.92-0.13,2.79-0.64c0.32-0.05,0.63-0.11,0.95-0.16c0.78,0.14,1.44-0.19,2.08-0.6c0.3-0.06,0.59-0.12,0.89-0.18
				c0.06-0.08,0.13-0.16,0.2-0.22c-0.07,0.06-0.14,0.13-0.2,0.22c0.74,0.09,1.35-0.24,1.95-0.63c0.34,0.02,0.69,0.04,1.03,0.07
				c0,0,0,0,0,0c0.56,0.06,1.07-0.04,1.41-0.57c0.78-0.41,1.51-0.96,2.45-0.92c0,0,0,0,0,0c0.77,0,1.58,0.07,2.04-0.8l0.06-0.02
				c0.57,0.05,1.08-0.06,1.42-0.6c1.11-0.61,2.3-0.96,3.54-1.08c0.66-0.06,1.24,0.18,1.59,0.77c0.36,0.62,0.22,1.22-0.25,1.74
				c-0.19,0.05-0.31,0.18-0.34,0.39c-0.47,0.82-1.08,1.49-1.92,1.92v0c0,0-0.25,0.22-0.25,0.22c-0.67,0.91-1.49,1.63-2.5,2.09
				c0,0,0,0,0,0c-0.26,0.03-0.44,0.18-0.52,0.44c-0.08,0.23-0.24,0.34-0.47,0.32v0l0,0c0,0,0,0,0,0v0c0,0-0.16,0.1-0.16,0.1
				c-1.54,1.73-3.55,2.74-5.47,3.9c-0.75,0.45-1.51,0.87-2.28,1.29c-1.45,0.8-2.1,2.01-2.09,3.75c0.02,3.33-0.07,6.67-0.15,10.01
				c-0.05,1.92-0.16,3.84-0.24,5.76c-0.8,2.86-0.35,5.77-0.25,8.66c0.05,0.25,0.15,0.5,0.14,0.75c-0.18,8.07-0.21,16.13,0.02,24.2
				c0.01,0.25-0.09,0.5-0.15,0.75c-0.15,0.58-0.2,1.15,0.12,1.7c0.2,1.87,0.4,3.74,0.6,5.61c-0.22,1.5-0.15,2.98,0.22,4.45
				c-0.18,1.91,0.09,3.76,0.52,5.61c-0.15,1.18-0.17,2.34,0.51,3.38c-0.16,0.45-0.06,0.85,0.19,1.23c-0.15,0.5-0.09,0.97,0.16,1.42
				c-0.09,0.63-0.01,1.23,0.37,1.76c0.06,0.09,0.09,0.18,0.11,0.27c-0.03-0.09-0.06-0.18-0.11-0.27c-0.05,0.08-0.16,0.18-0.14,0.23
				c0.07,0.16,0.19,0.29,0.29,0.44c0.04,0.26,0.09,0.52,0.13,0.79c-0.12,0.7-0.04,1.35,0.48,1.87c0.05,0.9,0.1,1.81,0.15,2.71
				c0.99,2.32,1.82,4.73,2.99,6.95c2.42,4.56,5.63,8.32,10.63,9.97c1.04,0.89,2.25,0.95,3.52,0.76c1.49,0.33,2.98,0.4,4.47,0.02
				c1.46,0.18,2.84-0.05,4.13-0.81c5.57-1.79,9.15-5.86,11.74-11.04c0.96-1.92,1.82-3.9,2.73-5.85c0.07-0.27,0.15-0.53,0.22-0.8l0,0
				c0.34-0.22,0.49-0.54,0.45-0.95c0.12-0.46,0.24-0.92,0.36-1.38c0.32-0.23,0.44-0.54,0.38-0.93c0.25-2.46,0.85-4.84,1.62-7.18
				c0,0,0.02-0.09,0.02-0.09c-0.08-1.29,0.18-2.52,0.69-3.69c0,0,0.04-0.25,0.04-0.25c0.16-1.63,0.32-3.26,0.47-4.89
				c0.18-0.19,0.21-0.41,0.07-0.64c0.29-1.14,0.54-2.29,0.31-3.48c0.61-0.8,0.56-1.72,0.42-2.65c0.28-1.68,0.67-3.35,0.32-5.07
				c0.71-1.06,0.57-2.23,0.41-3.4c0.1-1.35,0.21-2.71,0.32-4.06c0.13-1.6-0.06-3.23,0.45-4.78v0c0,0,0,0,0,0c0,0,0,0,0,0
				c0,0,0,0,0,0c0.02-0.5,0.05-1,0.07-1.51c-0.01-7.07-0.01-14.14-0.02-21.22c0.15-0.8,0.29-1.61-0.13-2.38
				c-0.47-1.32-0.28-2.7-0.36-4.06c-0.13-2.1-0.22-4.21-0.33-6.31c0.02-2.18,0.05-4.36,0.07-6.54c0.14-0.6,0.18-1.18-0.23-1.7
				c-0.18-1.63-0.36-3.25-0.54-4.88c0.13-3.55,0.27-7.1-0.47-10.6c0.16-2.41,0.06-4.82-0.28-7.21c-0.03-3.95-0.04-7.89-0.11-11.84
				c-0.03-1.39,0.16-2.81-0.35-4.16c-0.03-3.71-0.03-7.43-0.11-11.15c-0.07-3.07-0.23-6.14-0.35-9.22c0.22-1.95,0.26-3.89-0.31-5.79
				c-0.07-4.1-0.16-8.2-0.19-12.31c-0.01-1.04-0.51-1.58-1.33-2.07c-3.47-2.08-6.33-4.92-8.97-8c-1.98-2.31-3.59-4.88-4.45-7.88
				c0.32-0.48,0.64-0.95,0.96-1.43c0,0,0.01,0,0.01,0c0,0,0.01-0.03,0.01-0.03c0.16,0.21,0.31,0.41,0.47,0.62
				c0.23,0.28,0.46,0.56,0.68,0.84c1.1,1.02,2.21,2.03,3.29,3.08c2.54,2.45,5.21,4.72,8.17,6.61c2.31,1.47,4.59,3,6.9,4.49
				c3.24,2.09,6.37,4.39,9.94,5.88c2.5,2.14,5.51,3.32,8.42,4.64c6.53,2.98,13.26,5.41,19.96,7.93c0.54,0.73,1.31,0.63,2.06,0.62
				c0,0,0.15,0.02,0.15,0.02c0.41,0.51,0.96,0.72,1.59,0.71c1.31-0.03,2.63-0.08,3.94-0.12c0.68-0.16,1.32-0.01,1.94,0.26
				c0.96,1.08,2.24,0.55,3.37,0.73c0,0,0.18-0.07,0.18-0.07l0.15,0.13c0.73,0.91,1.76,0.61,2.69,0.7c0,0,0.29,0.05,0.29,0.05
				c0.73,0.94,1.76,0.63,2.69,0.7c0.25,0.01,0.5-0.03,0.74,0.03c7.75,2.26,15.27,5.13,22.17,9.49c3.22,2.03,6.62,3.35,10.34,3.96
				c2.87,0.47,5.66,0.01,8.47-0.34c0.45-0.52,1.01-0.71,1.67-0.62c0.43-0.25,0.85-0.51,1.28-0.75c4.77-2.69,6.93-6.9,6.97-12.48
				C340.92,357.7,340.3,355.9,340.19,354z M179.95,449.82c-0.03-1.24-0.07-2.48-0.1-3.72C179.88,447.34,179.91,448.58,179.95,449.82
				c0.05,2.8,0.14,5.61,0.14,8.41C180.09,455.43,180,452.62,179.95,449.82z M180.93,485.36c0,0.37-0.05,0.75-0.15,1.12
				C180.88,486.11,180.93,485.74,180.93,485.36z M181.52,495.73c0.05-0.39,0.08-0.78,0.04-1.15
				C181.6,494.96,181.57,495.34,181.52,495.73z M182.12,498.86c0.07-0.13,0.1-0.25,0.08-0.37
				C182.22,498.61,182.19,498.73,182.12,498.86z M182.95,504.08c0.03-0.17,0.04-0.35,0.03-0.51
				C182.99,503.73,182.98,503.9,182.95,504.08z M190.78,416.38c0.06-0.01,0.11-0.04,0.15-0.08
				C190.89,416.34,190.84,416.36,190.78,416.38z M229.25,456.09c0.03,1.82,0.08,3.64,0.16,5.46
				C229.33,459.72,229.28,457.9,229.25,456.09z M185.86,266.57c-0.13,0.04-0.26,0.06-0.4,0.06
				C185.6,266.63,185.73,266.61,185.86,266.57z M126.2,395.63c-0.2-0.09-0.41-0.19-0.61-0.28C125.8,395.44,126,395.53,126.2,395.63
				C126.2,395.63,126.2,395.63,126.2,395.63z M127.44,316.44L127.44,316.44c-0.05-0.08-0.1-0.16-0.16-0.23
				C127.33,316.28,127.39,316.36,127.44,316.44z M128.66,306.96c-0.05,0.82-0.13,1.63-0.22,2.44
				C128.54,308.59,128.62,307.78,128.66,306.96z M125.16,326.2c0.22-0.2,0.37-0.41,0.46-0.64c0.09-0.23,0.13-0.48,0.15-0.73
				c-0.01,0.25-0.05,0.49-0.15,0.73C125.53,325.78,125.38,326,125.16,326.2L125.16,326.2z M181.42,412.94
				c0.05-0.02,0.1-0.04,0.15-0.06C181.52,412.89,181.47,412.91,181.42,412.94z M184.39,412.35c0.14-0.07,0.29-0.12,0.45-0.14
				C184.68,412.23,184.53,412.28,184.39,412.35z M188.69,410.63c0.15-0.05,0.31-0.09,0.48-0.11
				C189,410.54,188.84,410.58,188.69,410.63z M188.38,410.76c0.02-0.01,0.04-0.02,0.06-0.03
				C188.42,410.74,188.4,410.75,188.38,410.76z M211.93,321.73L211.93,321.73c-0.01-0.1-0.03-0.19-0.05-0.27
				C211.9,321.55,211.92,321.64,211.93,321.73z M211.84,321.27c-0.04-0.13-0.09-0.25-0.14-0.37
				C211.75,321.02,211.8,321.14,211.84,321.27z M222.08,323.44C222.08,323.44,222.08,323.44,222.08,323.44
				c0.2,0.09,0.45,0.3,0.6,0.24C222.53,323.74,222.28,323.53,222.08,323.44z"/>
			<path class="st29" d="M101.36,282.98c0.18-0.2,0.35-0.41,0.53-0.62C101.51,282.39,101.32,282.58,101.36,282.98z"/>
		</g>
		<path class="st29" d="M272.98,141.16c-2.18-1.57-4.27-3.31-6.68-4.53c-0.69-1.12-1.86-1.6-2.87-2.3
			c-2.74-1.91-5.47-3.82-8.21-5.73c-0.72-0.49-1.43-0.98-2.15-1.47c0,0-0.1-0.06-0.1-0.06c-0.72-0.48-1.45-0.96-2.17-1.43
			c0,0-0.12-0.08-0.12-0.08c-0.47-0.3-0.94-0.6-1.4-0.9c-0.59-0.32-1.17-0.64-1.76-0.97c-1.29-0.84-2.58-0.85-3.86,0.02
			c-1.7,1.08-3.14,2.35-2.99,4.71c0.04,0.37,0.08,0.75,0.12,1.13c0.33,2.6,2.01,4.01,4.19,4.86c1.72,0.68,3.52,1.15,5.26,1.78
			c2.2,0.8,4.55,1.14,6.56,2.46c0.42,0.77,1.08,0.76,1.78,0.61c0.49,0.01,1.01-0.1,1.45,0.06c2.67,0.99,5.4,1.81,7.92,3.19
			c0,0,0,0,0,0c0.52,0.9,1.32,0.84,2.15,0.66c0.29,0.07,0.58,0.14,0.87,0.21c0.76,0.91,1.65,0.9,2.62,0.39
			C274.2,142.7,273.88,141.81,272.98,141.16z"/>
		<g>
			<path class="st29" d="M348.33,137.56c-1.46-0.33-2.85,0.74-3.09,2.33c0.11,0.21,0.19,0.44,0.33,0.63
				c0.06,0.08,0.27,0.13,0.34,0.08c1-0.7,2.04-1.36,2.69-2.45C348.66,138.03,348.46,137.59,348.33,137.56z"/>
			<path class="st29" d="M345.43,144.07c-0.15-0.2-0.3-0.39-0.43-0.59c-1.43-2.14-1.91-2.15-3.69-0.11
				c-0.57,0.57-0.43,1.04,0.2,1.43c0.32,0.37,0.64,0.74,0.96,1.12c0.71,0.69,1.4,0.67,2.09-0.03c0.3-0.11,0.59-0.21,0.89-0.32
				C346.22,145.06,346.17,144.56,345.43,144.07z"/>
			<path class="st29" d="M385.09,139.57c-0.25-2.01-0.94-3.77-2.66-4.92c-1.14-0.98-2.28-0.97-3.42,0.02
				c-5.6,2.05-11.2,4.1-16.8,6.15c0.32,0.42,0.32,1,0.02,1.22c0.3-0.22,0.3-0.79-0.02-1.22c-2.17,0.83-4.34,1.67-6.5,2.5
				c0,0.23,0,0.48,0.04,0.69c-0.04-0.21-0.04-0.46-0.04-0.69c-0.69,1.42-0.54,2.2,0.5,2.21c3.32,0.04,6.68,0.25,9.96-0.16
				c1.95-0.25,3.89-0.47,5.85-0.5c2.09-0.03,4.19-0.02,6.29-0.03c0.75,0,1.49-0.02,1.99-0.73c2.04-0.26,3.56-1.31,4.56-3.17
				C385.5,140.58,385.79,140.16,385.09,139.57z"/>
		</g>
	</g>
</g>
</svg>
