<?xml version="1.0" encoding="utf-8"?>
<!-- Generator: Adobe Illustrator 27.2.0, SVG Export Plug-In . SVG Version: 6.00 Build 0)  -->
<svg version="1.1" xmlns="http://www.w3.org/2000/svg" xmlns:xlink="http://www.w3.org/1999/xlink" x="0px" y="0px"
	 viewBox="0 0 640 640" style="enable-background:new 0 0 640 640;" xml:space="preserve">
<style type="text/css">
	.st0{fill:#FCCD0D;}
	.st1{opacity:0.7;fill:#F2F2F2;}
	.st2{fill:#1975C3;}
	.st3{fill:#4CAA08;}
	.st4{fill:#FC8E06;}
	.st5{fill:#FA2670;}
	.st6{fill:#050101;}
	.st7{fill:#FEFEFE;}
	.st8{fill:#23ACBE;}
	.st9{fill:#F45EAD;}
	.st10{fill:#176FAE;}
	.st11{opacity:0.4;fill:#FFFFFF;stroke:#000000;stroke-width:0.1001;stroke-miterlimit:10;}
	.st12{fill:#FFFFFF;}
	.st13{opacity:0.74;}
	.st14{fill:#AAAAAA;}
	.st15{fill:#414041;}
	.st16{fill:#F34280;}
	.st17{fill:#FE910D;}
	.st18{fill:#096BBD;}
	.st19{fill:#F83C6F;}
	.st20{fill:#F3407A;}
	.st21{fill:#042670;}
	.st22{fill:#0463B0;}
	.st23{fill:#53A641;}
	.st24{fill:#0363B5;}
	.st25{fill:#04942C;}
	.st26{fill:#7DA2F4;}
	.st27{fill:#FDFDFD;}
	.st28{fill:#F0F2F7;}
	.st29{fill:#0663B4;}
	.st30{fill:#FC8609;}
</style>
<g id="background">
</g>
<g id="logo">
	<circle class="st1" cx="320" cy="320" r="320"/>
	<path class="st2" d="M440.86,22c-0.4,0.18-0.63-0.01-0.77-0.36C440.48,21.49,440.76,21.55,440.86,22z"/>
	<path class="st2" d="M598.43,163.22c-0.42-0.05-0.52-0.29-0.41-0.66C598.37,162.64,598.59,162.81,598.43,163.22z"/>
	<path class="st2" d="M616.11,200.99c-0.42-0.09-0.46-0.36-0.32-0.7C616.14,200.42,616.34,200.61,616.11,200.99z"/>
	<path class="st2" d="M23.93,201.04c0.15,0.33,0.13,0.6-0.3,0.67C23.4,201.34,23.57,201.15,23.93,201.04z"/>
	<path class="st2" d="M618.96,208.48c-0.12-0.15-0.26-0.29-0.34-0.46c-0.03-0.06,0.06-0.19,0.09-0.28c0.14,0.16,0.29,0.3,0.39,0.48
		C619.13,208.26,619.01,208.39,618.96,208.48z"/>
	<path class="st2" d="M20.97,208.46c0.15,0.33,0.13,0.59-0.29,0.67C20.46,208.76,20.62,208.57,20.97,208.46z"/>
	<path class="st2" d="M19.51,212.2c0.14,0.32,0.11,0.56-0.3,0.62C18.98,212.45,19.17,212.29,19.51,212.2z"/>
	<path class="st2" d="M18.74,214.38c0.15,0.31,0.14,0.56-0.26,0.63c0-0.18-0.03-0.36,0-0.52C18.48,214.44,18.65,214.41,18.74,214.38
		z"/>
	<path class="st2" d="M18.02,216.62c0.15,0.33,0.13,0.58-0.28,0.67C17.5,216.92,17.67,216.73,18.02,216.62z"/>
	<path class="st2" d="M16.52,221.04c0.16,0.32,0.15,0.57-0.25,0.67c-0.01-0.19-0.04-0.37-0.01-0.55
		C16.26,221.11,16.43,221.08,16.52,221.04z"/>
	<path class="st2" d="M623.49,221.71c-0.12-0.14-0.27-0.27-0.36-0.42c-0.03-0.05,0.06-0.18,0.1-0.27c0.14,0.15,0.29,0.28,0.39,0.44
		C623.65,221.49,623.54,221.62,623.49,221.71z"/>
	<path class="st3" d="M15.01,225.57c0.02,0.14,0.05,0.29,0.06,0.43c0,0.02-0.13,0.04-0.2,0.06c-0.04-0.15-0.07-0.29-0.11-0.44
		C14.85,225.61,14.93,225.59,15.01,225.57z"/>
	<path class="st2" d="M624.98,226.12c-0.13-0.14-0.27-0.26-0.37-0.42c-0.03-0.05,0.06-0.18,0.1-0.27c0.14,0.14,0.29,0.27,0.4,0.43
		C625.14,225.9,625.03,226.03,624.98,226.12z"/>
	<path class="st2" d="M13.5,230.58c0.17,0.33,0.17,0.58-0.26,0.67C13.01,230.9,13.08,230.67,13.5,230.58z"/>
	<path class="st2" d="M12.04,235.77c0.18,0.32,0.19,0.58-0.23,0.7c-0.02-0.2-0.06-0.39-0.05-0.58
		C11.77,235.85,11.94,235.81,12.04,235.77z"/>
	<path class="st2" d="M10.57,241.71c0.17,0.32,0.17,0.58-0.25,0.68c-0.01-0.19-0.04-0.38-0.02-0.56
		C10.31,241.77,10.48,241.74,10.57,241.71z"/>
	<polygon class="st2" points="626.42,230.66 626.21,230.63 626.34,230.46 626.56,230.49 	"/>
	<polygon class="st3" points="477.65,603.35 477.6,603.2 477.73,603.29 477.78,603.45 	"/>
	<polygon class="st3" points="476.2,604.12 476.15,603.97 476.28,604.06 476.33,604.21 	"/>
	<polygon class="st2" points="474.78,604.87 474.71,604.75 474.81,604.83 474.9,604.95 	"/>
	<polygon class="st2" points="629.38,241.75 629.17,241.72 629.3,241.55 629.52,241.59 	"/>
	<polygon class="st2" points="9.06,247.51 9.2,247.69 8.99,247.77 8.84,247.6 	"/>
	<polygon class="st2" points="632.23,253.64 632.04,253.57 632.19,253.44 632.4,253.52 	"/>
	<polygon class="st3" points="7.39,254.19 7.53,254.3 7.35,254.28 7.22,254.18 	"/>
	<polygon class="st3" points="6.01,261.64 6.15,261.74 5.99,261.75 5.83,261.66 	"/>
	<polygon class="st2" points="622.77,219.52 622.57,219.53 622.68,219.37 622.88,219.35 	"/>
	<polygon class="st2" points="635.16,269.92 634.99,269.84 635.13,269.73 635.33,269.81 	"/>
	<polygon class="st2" points="17.07,219.35 17.18,219.53 16.98,219.52 16.87,219.34 	"/>
	<polygon class="st2" points="622.03,217.31 621.81,217.3 621.93,217.11 622.15,217.13 	"/>
	<polygon class="st2" points="619.8,210.65 619.6,210.66 619.71,210.49 619.92,210.48 	"/>
	<polygon class="st2" points="618.42,206.91 618.21,206.89 618.33,206.73 618.53,206.74 	"/>
	<polygon class="st2" points="21.63,206.84 21.73,207.03 21.53,207.04 21.4,206.87 	"/>
	<polygon class="st2" points="617.56,204.78 617.34,204.76 617.44,204.57 617.66,204.58 	"/>
	<polygon class="st2" points="442.48,22.63 442.25,22.71 442.21,22.46 442.44,22.39 	"/>
	<polygon class="st2" points="23.1,203.14 23.21,203.32 23.01,203.34 22.88,203.18 	"/>
	<polygon class="st2" points="616.71,202.63 616.51,202.6 616.61,202.43 616.83,202.47 	"/>
	<polygon class="st2" points="615.52,199.46 615.31,199.43 615.44,199.29 615.63,199.31 	"/>
	<polygon class="st2" points="24.55,199.42 24.66,199.6 24.45,199.61 24.33,199.43 	"/>
	<polygon class="st2" points="26.88,193.55 26.99,193.74 26.79,193.8 26.66,193.63 	"/>
	<polygon class="st2" points="627.03,232.94 626.85,232.89 626.98,232.76 627.18,232.82 	"/>
	<polygon class="st2" points="614.68,197.32 614.45,197.31 614.55,197.11 614.77,197.12 	"/>
	<polygon class="st2" points="25.37,197.26 25.46,197.44 25.26,197.47 25.14,197.3 	"/>
	<polygon class="st2" points="25.99,195.69 26.1,195.88 25.89,195.88 25.78,195.7 	"/>
	<polygon class="st2" points="34.34,177.37 34.44,177.52 34.26,177.53 34.15,177.39 	"/>
	<polygon class="st2" points="35.03,175.82 35.14,175.98 34.96,176.02 34.83,175.87 	"/>
	<polygon class="st3" points="15.6,223.89 15.71,224.01 15.55,223.98 15.43,223.85 	"/>
	<polygon class="st2" points="597.65,161.87 597.43,161.86 597.5,161.66 597.73,161.65 	"/>
	<path class="st4" d="M503.98,546.89c-3.21,2.89-6.88,5.17-10.39,7.63c-8.17,5.73-16.63,11-25.37,15.81
		c-8.62,4.75-17.35,9.3-26.39,13.23c-7.45,3.24-14.98,6.25-22.62,9.02c-8.8,3.19-17.75,5.88-26.78,8.35
		c-11.18,3.06-22.55,5.2-33.99,6.98c-4.62,0.72-9.3,1.07-13.95,1.58c-8.82,0.95-17.66,1.62-26.53,1.5
		c-9.74-0.13-19.42-0.95-29.1-1.94c-6.62-0.68-13.2-1.65-19.75-2.77c-7.89-1.35-15.7-3.09-23.45-5.07
		c-3.58-0.91-7.15-1.84-10.73-2.76c-1.4-0.36-1.66-0.84-1.01-2.05c2.58-4.76,5.1-9.56,7.8-14.26c5.95-10.36,12.19-20.55,19.11-30.29
		c7.43-10.45,15.43-20.42,24.01-29.96c9.74-10.83,20.17-20.93,31.22-30.38c4.58-3.92,9.4-7.56,14.19-11.23
		c9.2-7.04,18.84-13.47,28.92-19.16c7.92-4.48,15.92-8.86,24.44-12.17c0.68-0.27,1.38-0.5,2.09-0.72c0.49-0.15,0.98,0.33,0.83,0.83
		c-0.31,1.06-0.62,2.12-1.01,3.15c-1.79,4.72-3.55,9.45-5.42,14.14c-2.14,5.36-3.12,10.88-2.52,16.64
		c0.39,3.74,1.47,7.21,3.92,10.18c2.92,3.54,6.8,4.87,11.17,4.49c4.85-0.42,8.94-2.57,12.04-6.45c2.16-2.71,3.87-5.7,5.64-8.65
		c0.36-0.61,0.46-1.44,1.27-1.73c0.99,0.02,1.42,0.87,2.03,1.41c1.88,1.67,4.06,2.74,6.39,3.62c2.9,1.1,5.71,0.99,8.67,0.11
		c5.07-1.51,8.04-4.86,9.69-9.77c1.62-4.8,1.29-9.47-0.29-14.13c-1.5-4.43-3.11-8.83-4.69-13.24c-1.08-3.01-2.21-6.01-3.28-9.03
		c-0.41-1.15-0.2-1.49,1-1.87c6.45-2.04,12.9-4.07,19.36-6.1c0.36,0.53,0.83,0.87,1.45,1.06c1.06,0.32,2.11,0.67,3.14,1.07
		c0.99,0.38,1.63,1.06,1.59,2.22c-0.03,0.86,0.08,1.73-0.02,2.58c-0.16,1.33-0.7,2.66-0.66,3.97c0.18,6.01-0.74,12.05,0.62,18.02
		c0.13,0.59,0.08,1.23,0.05,1.84c-0.13,3.24,0.66,6.33,1.59,9.38c0.61,1.99,1.37,3.95,2.2,5.86c1.46,3.38,2.81,6.84,4.6,10.05
		c1.96,3.53,4.04,7,6.46,10.27c3.73,5.04,7.52,10,11.98,14.42c4.55,4.51,9.06,9.05,13.59,13.58c0.61,0.61,1.32,1.15,1.79,1.86
		c1.53,2.33,3.77,3.79,6.09,5.17c1.79,1.07,3.6,2.11,5.33,3.27c1.05,0.71,1.07,1.4,0.56,2.56c-0.47,1.05-1.27,1.81-2.04,2.59
		c-0.63,0.63-1.12,1.31-1.07,2.26c0,0,0.05-0.08,0.05-0.08c-0.28,0.26-0.56,0.52-0.84,0.77c0,0,0.07-0.06,0.07-0.06
		c-0.28,0.24-0.55,0.48-0.83,0.72c0,0,0.01,0,0,0c-0.25,0.22-0.51,0.44-0.76,0.66c0,0-0.05,0.03-0.05,0.03
		C504.8,546.1,504.25,546.29,503.98,546.89z"/>
	<path class="st5" d="M203.3,436.8c-0.98,3.56-1.93,7.12-2.93,10.67c-1.6,5.69-3.47,11.3-4.32,17.18c-0.43,2.97-0.44,5.92,0.42,8.79
		c1.45,4.86,4.46,8.8,10.62,9.34c2.13,0.18,4.2-0.17,6.14-1c5.69-2.43,10.02-6.26,11.95-12.32c1.72-5.4,3.3-10.84,4.93-16.27
		c0.14-0.46,0.26-0.93,0.41-1.48c1.01,0.19,1.03,0.99,1.18,1.59c0.57,2.27,1.08,4.55,1.62,6.83c0.43,1.82,1.13,3.5,2.18,5.06
		c3.21,4.8,9.88,7.26,16.31,3.35c4-2.43,6.35-6.1,7.52-10.56c1.46-5.6,1.29-11.23,0.18-16.85c-0.5-2.54-1-5.07-1.21-7.66
		c-0.1-1.22,0.2-2.11,1.28-2.81c0.92-0.6,1.75-1.35,2.57-2.09c2.79-2.55,3.7-5.7,3.01-9.38c-0.39-2.07-1.11-4.03-1.82-6
		c-0.87-2.41-1.77-4.8-2.71-7.32c0.64-0.09,1.01-0.24,1.33-0.17c9.9,2.33,16.75-4.64,17.33-14.11c0.36-5.79-2.09-10.25-6.88-13.45
		c-0.72-0.48-1.42-1.08-2.22-1.31c-2.49-0.71-3.34-2.62-3.97-4.85c-1.07-3.79-2.26-7.55-3.4-11.32c-0.93-3.07-2.1-6.05-3.48-8.95
		c-1.88-3.94-4.39-7.41-7.57-10.39c-0.45-0.42-0.92-0.82-1.33-1.27c-0.38-0.41-0.4-0.91-0.02-1.31c0.85-0.89,1.76-1.72,2.63-2.59
		c7.64-7.76,10.44-17.11,8.79-27.77c-0.9-5.84-3.24-11.13-7.43-15.4c-1.42-1.44-1.32-2.62-0.49-4.23
		c3.44-6.68,6.68-13.46,10.19-20.1c8.07-15.27,17.28-29.84,27.44-43.8c2.68-3.68,5.5-7.26,8.21-10.93c0.77-1.05,1.57-1.35,2.83-0.91
		c1.96,0.68,3.98,1.2,5.97,1.78c0.69,2.14-0.42,4.1-0.76,6.1c-2.15,12.9-3.62,25.87-4.38,38.92c-0.94,16.12-1.35,32.26-1.08,48.41
		c0.13,8.01,0.25,16.02,0.42,24.03c0.21,10.36-0.24,20.71-0.75,31.04c-0.58,11.58-2.27,23.04-4.46,34.43
		c-3.33,17.36-8.66,34.13-14.72,50.68c-5.08,13.88-11.08,27.4-17.54,40.7c-3.5,7.2-6.97,14.42-10.6,21.55
		c-8.33,16.35-17.1,32.48-26.31,48.35c-5.44,9.37-11.04,18.66-16.57,27.98c-0.38,0.64-0.75,1.27-1.13,1.91
		c-0.44,0.76-1.08,0.94-1.88,0.64c-1.39-0.51-2.78-0.99-4.15-1.54c-11.89-4.78-23.46-10.26-34.62-16.56
		c-10.09-5.68-19.82-11.92-29.35-18.51c-8.32-5.75-16.12-12.16-23.97-18.5c-0.86-0.7-1.68-1.44-2.5-2.2
		c-0.69-0.64-0.64-1.19,0.17-1.79c2.57-1.91,5.15-3.81,7.75-5.68c2.9-2.09,5.7-4.29,8.35-6.69c1.73-1.57,3.6-2.98,5.4-4.48
		c11.58-9.61,22.4-20.04,32.46-31.23c12.05-13.4,22.83-27.77,32.25-43.15c0.64-1.05,1.34-2.06,2.02-3.09
		C202.82,436.34,203.06,436.57,203.3,436.8z"/>
	<path class="st3" d="M507.73,543.89c-0.05-0.95,0.45-1.63,1.07-2.26c0.78-0.78,1.58-1.54,2.04-2.59c0.51-1.16,0.5-1.85-0.56-2.56
		c-1.73-1.16-3.54-2.2-5.33-3.27c-2.32-1.38-4.56-2.84-6.09-5.17c-0.46-0.71-1.18-1.25-1.79-1.86c-4.53-4.53-9.04-9.08-13.59-13.58
		c-4.46-4.42-8.25-9.38-11.98-14.42c-2.42-3.27-4.5-6.74-6.46-10.27c-1.79-3.21-3.14-6.67-4.6-10.05c-0.83-1.91-1.59-3.87-2.2-5.86
		c-0.93-3.05-1.71-6.14-1.59-9.38c0.02-0.61,0.08-1.25-0.05-1.84c-1.36-5.97-0.44-12.02-0.62-18.02c-0.04-1.32,0.49-2.64,0.66-3.97
		c0.1-0.85-0.01-1.72,0.02-2.58c0.04-1.17-0.59-1.84-1.59-2.22c-1.03-0.4-2.08-0.74-3.14-1.07c-0.62-0.19-1.1-0.53-1.45-1.06
		c2.65-1.29,5.32-2.55,7.96-3.86c8.47-4.2,15.99-9.64,22.22-16.85c7.38-8.53,11.94-18.29,13.45-29.48c0.08-0.61,0.12-1.23,0.19-1.84
		c0.07-0.53,0.36-0.87,0.9-1.01c1.54-0.4,3.07-0.83,4.66-1.26c0.78,0.49,0.37,1.25,0.3,1.91c-0.25,2.2-0.65,4.39-0.81,6.6
		c-0.39,5.39,1.69,8.56,6.8,10.49c1.03,0.39,2.12,0.62,3.2,0.87c0.88,0.2,1.23,0.75,1.17,1.59c-0.24,3.44-0.51,6.88-0.75,10.33
		c-0.28,3.95-0.13,7.87,0.82,11.75c0.5,2.05,1.26,3.98,2.24,5.84c2.41,4.54,6.4,6.66,11.31,7.31c1.22,0.16,2.45,0.09,3.64-0.4
		c1.02-0.42,2.1-0.71,3.14-1.1c2.18-0.81,2.2-0.83,3.41,1.18c1.02,1.7,2.19,3.28,3.56,4.7c3.13,3.24,7.04,4.47,11.41,4.14
		c6.02-0.45,9.62-4.02,11.42-9.53c0.81-2.47,0.95-5.04,0.46-7.67c-0.92-5-2.58-9.76-4.33-14.5c-1.71-4.62-3.58-9.18-5.38-13.77
		c-0.57-1.45-0.41-1.73,1.12-2.47c1.76-0.86,3.65-1.48,5.2-2.76c2.73-2.26,4.77-4.95,5.24-8.48c1.03-0.24,1.2,0.5,1.51,0.93
		c6.9,9.64,13.29,19.57,17.58,30.69c2.66,6.92,4.65,14.02,5.01,21.5c0.15,3.1-0.04,6.15-0.42,9.21c-0.44,0.42-0.39,0.9-0.18,1.41
		c-0.13,2.89-1.21,5.44-2.56,7.98c-7.05,13.26-14.82,26.05-24.15,37.87c-8.01,10.15-16.68,19.67-26.02,28.61
		c-8.09,7.74-16.55,15.03-25.4,21.87C508.22,543.77,507.96,543.8,507.73,543.89z"/>
	<path class="st4" d="M381.09,371.95c-0.62,0.31-0.9,0.36-1.01,0.53c-1.49,2.27-2.99,4.52-4.41,6.83c-2.14,3.49-3.57,7.29-4.73,11.2
		c-0.59,2.01-1.19,4.01-1.79,6.02c-0.18,0.59-0.34,1.19-0.55,1.76c-1.95,5.26-6.44,6.2-10.29,2.09c-2.36-2.52-3.65-5.44-3.16-9.08
		c0.51-3.69,1.52-7.24,2.62-10.75c4.01-12.81,9.85-24.68,18.42-35.11c1.97-2.4,4.25-4.46,6.61-6.43c2.37-1.99,5.19-2.78,8.24-2.68
		c1.72,0.06,3.48,0.11,5.13,0.54c6.14,1.58,12.4,1.91,18.69,2.04c2.49,0.05,4.85,0.54,7.21,1.36c2.88,1,5.3,2.62,7.37,4.76
		c8.26,8.57,15.44,17.92,20.23,28.9c2.66,6.11,4.29,12.58,5.33,19.17c0.59,3.73-1.68,7.42-5.15,8.96c-1.68,0.75-3.34,0.68-4.98-0.15
		c-2.33-1.17-3.84-3.06-4.71-5.46c-0.75-2.08-1.39-4.21-2.05-6.32c-1.53-4.84-3.44-9.5-6.57-13.56c-1.12-1.45-2.3-2.86-3.46-4.3
		c-1.1,0.49-0.73,1.49-0.77,2.24c-0.32,7.51-0.73,15.02-0.49,22.54c0.14,4.31,0.17,8.62,0.16,12.94
		c-0.02,6.21-1.11,12.24-2.98,18.16c-3.67,11.63-7.79,23.11-12.22,34.47c-2.24,5.73-4.65,11.41-7.52,16.86
		c-1.79,3.4-3.77,6.64-7.1,8.82c-1.04,0.68-2.11,1.26-3.27,1.68c-2.78,1.01-5.05,0.45-6.99-1.75c-1.6-1.82-2.42-3.97-2.68-6.36
		c-0.35-3.24,0.14-6.36,1.12-9.46c1.81-5.76,3.92-11.41,6.02-17.06c3.39-9.12,7.05-18.14,10.01-27.41c0.56-1.75,1.38-3.42,2.05-5.14
		c0.36-0.92,0.16-1.4-0.67-1.78c-1.31-0.6-2.22-0.51-2.59,0.32c-0.25,0.56-0.36,1.17-0.57,1.75c-1.78,4.86-3.63,9.69-5.92,14.33
		c-0.14,0.29-0.53,0.6-0.83,0.62c-0.26,0.01-0.67-0.31-0.8-0.59c-3.03-6.6-6.5-13-8.77-19.93c-1.35-4.13-2.14-8.34-2.14-12.7
		c0-8.13-0.03-16.27-0.04-24.4C381.08,377.68,381.09,374.97,381.09,371.95z"/>
	<path class="st2" d="M80.68,351.44c-2.56,3.79-4.41,7.91-5.61,12.32c-0.52,1.9-0.96,3.83-1.54,5.71c-0.51,1.65-1.2,3.22-2.3,4.6
		c-1.14,1.42-2.61,2.24-4.36,2.54c-2.56,0.44-4.26-0.5-5.31-2.91c-0.9-2.06-1.25-4.25-1.24-6.49c0.01-6.51,1.36-12.74,4.23-18.58
		c3.7-7.53,8.12-14.64,13.11-21.39c1.09-1.48,2.42-2.79,3.69-4.12c4.54-4.72,10.15-6.22,16.52-5.42c3.66,0.46,7.33,0.88,11.01,1.26
		c2.83,0.29,5.59,0.84,8.31,1.69c2.78,0.87,5.03,2.47,6.95,4.66c2.48,2.83,4.12,6.13,5.55,9.54c1.33,3.18,2.48,6.43,3.7,9.65
		c0.57,1.49,1.19,2.97,1.71,4.48c1,2.87,2.68,4.87,5.89,5.39c1.31,0.21,2.53,0.94,3.78,1.45c2.12,0.85,3.32,2.49,3.82,4.66
		c0.59,2.53,0.04,4.91-1.24,7.09c-0.79,1.35-2.25,1.9-3.66,2.34c-1.92,0.6-3.9,0.62-5.84,0.08c-3.71-1.02-7.15-2.63-10.3-4.86
		c-2.07-1.47-3.57-3.39-4.43-5.77c-1.09-3.01-2.07-6.06-3.18-9.06c-0.4-1.09-0.54-2.37-1.83-3.58c0.11,2.79,0.52,5.06,1.06,7.28
		c1.83,7.49,2.3,15.06,1.98,22.74c-0.28,6.77-0.18,13.55-0.28,20.33c-0.04,2.98,0.25,5.91,1.08,8.77c1.82,6.34,2.2,12.85,2.31,19.39
		c0.06,3.9-0.63,7.59-2.86,10.9c-1.2,1.77-2.65,3.23-4.59,4.16c-4.03,1.94-7.33,0.56-8.71-3.68c-0.73-2.24-1.08-4.57-1.16-6.91
		c-0.21-5.69-1.08-11.27-2.34-16.82c-0.99-4.34-1.17-8.79-1.52-13.21c-0.04-0.56-0.11-1.12-0.17-1.79
		c-0.31,0.27-0.59,0.39-0.63,0.57c-0.17,0.71-0.4,1.45-0.36,2.17c0.29,6.31-1.72,12.13-3.72,17.97c-1.84,5.36-3.6,10.74-5.38,16.11
		c-1.05,3.16-2.31,6.23-3.88,9.17c-1.65,3.09-3.84,5.71-6.92,7.51c-3.09,1.81-6.12,1.03-7.78-2.13c-0.93-1.76-1.47-3.65-1.55-5.66
		c-0.12-2.84-0.04-5.66,0.48-8.47c1.44-7.77,3.58-15.37,6.42-22.72c2.4-6.2,3.48-12.51,3.47-19.13c-0.01-9.13-0.42-18.23-1.02-27.33
		c-0.28-4.3-0.44-8.61-0.67-12.92C81.33,352.49,81.5,351.82,80.68,351.44z"/>
	<path class="st2" d="M76.84,388.79c-0.1,4.04-0.2,7.48-0.26,10.91c-0.04,2.48-0.48,4.88-1.16,7.27
		c-2.09,7.34-4.75,14.52-6.48,21.97c-1.14,4.93-2.09,9.88-2,14.98c0.04,2.38,0.45,4.65,1.22,6.87c1.93,5.58,6.9,8.57,12.73,7.72
		c3.43-0.5,6.26-2.15,8.75-4.45c2.49-2.29,4.25-5.1,5.52-8.21c1.44-3.53,2.83-7.09,4.23-10.63c0.27-0.68,0.43-1.43,1.27-1.69
		c0.79,0.72,0.88,1.72,1.05,2.68c0.35,1.96,1.06,3.79,2.01,5.53c2.81,5.15,8.19,7.36,13.81,5.55c4.6-1.48,7.71-4.73,9.8-8.97
		c2.4-4.87,3.1-10.12,2.85-15.47c-0.28-6.16-1.06-12.27-2.14-18.34c-0.26-1.45-0.53-2.92-0.54-4.39c-0.02-8.13,0.04-16.26,0.09-24.4
		c0.01-1.5,0.45-1.74,1.8-1.09c0.44,0.21,0.87,0.46,1.31,0.68c0.44,0.22,0.89,0.43,1.33,0.64c3.28,1.54,6.69,2.44,10.35,2.27
		c1.23-0.06,1.56,0.39,1.48,1.53c-0.04,0.49-0.09,0.98-0.18,1.47c-0.91,4.86-1.24,9.78-1.27,14.71c-0.07,10.35-0.07,20.7-0.08,31.05
		c0,5.18,0.01,10.35,0.05,15.53c0.15,19.68-5.58,37.6-16.13,54.08c-5.2,8.13-11.18,15.62-18.56,21.91
		c-1.03,0.88-2.07,1.75-3.15,2.57c-1.11,0.84-1.36,0.81-2.48-0.3c-12.7-12.6-24.52-25.93-34.67-40.72
		c-4.26-6.21-8.38-12.47-11.59-19.29c-0.31-0.67-0.61-1.35-0.96-1.99c-4.06-7.38-4.41-15.2-3.12-23.33
		c2.08-13.17,7-25.09,15.12-35.66C69.74,395.98,72.81,392.32,76.84,388.79z"/>
	<path class="st2" d="M150.87,351.97c-2.25-1.96-4.6-3.53-7.46-4.09c-1.49-0.29-1.83-1.48-2.29-2.63
		c-1.77-4.46-3.47-8.95-5.33-13.37c-2.07-4.91-4.75-9.45-8.53-13.27c-0.16-0.16-0.2-0.43-0.36-0.79c0.93-0.88,1.98-1.72,2.86-2.71
		c6.94-7.93,10.17-17.01,8.51-27.61c-0.58-3.68-1.21-3.41,2.62-5.87c9.94-6.38,20.07-12.48,30.21-18.53
		c6.34-3.78,12.86-7.25,19.28-10.9c10.48-5.97,21.2-11.5,32.01-16.83c7.72-3.81,15.62-7.26,23.44-10.86
		c8.95-4.11,18.18-7.54,27.33-11.14c5.03-1.98,10.25-3.48,15.39-5.16c0.27-0.09,0.8,0.05,0.95,0.26c0.16,0.22,0.15,0.79-0.03,0.99
		c-0.91,1-1.85,1.97-2.86,2.87c-11.61,10.29-23.43,20.33-35.51,30.06c-5.56,4.48-10.98,9.13-16.55,13.59
		c-10.77,8.61-21.3,17.51-31.61,26.67c-12.08,10.74-23.36,22.26-32.92,35.35c-6.92,9.47-12.81,19.55-17.22,30.46
		C152.33,349.56,152.18,350.85,150.87,351.97z"/>
	<path class="st5" d="M208.78,376.78c-1.42,2.43-2.86,4.86-4.25,7.31c-1.72,3.02-2.75,6.31-3.62,9.65c-0.4,1.54-0.89,3.07-1.42,4.57
		c-0.86,2.45-2.7,4.06-4.81,5.43c-1.08,0.69-2.06,0.54-3.07-0.18c-1.63-1.15-2.31-2.84-2.73-4.66c-1.02-4.41-0.75-8.81,0.21-13.19
		c0.82-3.74,1.98-7.37,3.52-10.88c3.47-7.9,7.32-15.61,12.07-22.84c2.86-4.35,6.61-7.56,11.45-9.52c2.09-0.85,4.2-1.4,6.44-1.46
		c3.69-0.09,7.39-0.15,11.09-0.19c7.12-0.07,12.45,3.39,16.65,8.78c2.83,3.63,4.55,7.88,5.93,12.25c1.34,4.22,2.61,8.47,3.92,12.7
		c0.22,0.71,0.44,1.41,0.68,2.11c1.45,4.24,1.8,4.61,5.97,6.37c0.11,0.05,0.22,0.1,0.34,0.14c6.02,2.1,6.44,7.04,4.68,12.07
		c-0.75,2.15-2.45,3.36-4.73,3.62c-0.97,0.11-1.98,0.19-2.95,0.07c-7.54-0.9-13.3-4.37-16.07-11.73c-1.21-3.22-2.01-6.59-2.97-9.9
		c-0.58-2.01-1.07-4.05-1.66-6.05c-0.07-0.25-0.59-0.53-0.88-0.5c-0.27,0.02-0.61,0.39-0.72,0.69c-0.17,0.45-0.22,0.96-0.23,1.44
		c-0.14,5.73,0.64,11.31,2.75,16.66c1.47,3.73,3.65,6.98,6.91,9.4c0.94,0.7,1.63,1.48,1.86,2.63c0.99,5.1,2.81,9.95,4.4,14.86
		c0.27,0.82,0.52,1.64,0.76,2.47c1.04,3.5,0.86,4.01-2.31,5.95c-1.15,0.7-2.33,1.42-3.58,1.91c-4.93,1.93-9.87,3.8-15.28,3.98
		c-3.83,0.13-7.64,0.11-11.45-0.2c-4.84-0.39-9.34-2.14-13.88-3.69c-1.51-0.52-2.97-1.2-4.41-1.88c-1-0.47-1.94-1.05-2.9-1.59
		c-1.94-1.09-2.62-2.76-2.47-4.95c0.19-2.84,0.71-5.62,1.44-8.36c1.49-5.59,3.01-11.18,4.49-16.77
		C209.37,387.89,209.7,382.42,208.78,376.78z"/>
	<path class="st3" d="M496.27,288.72c0.14,8.76,2.73,16.23,8.98,22.21c0.27,0.25,0.57,0.48,0.8,0.76c0.34,0.41,0.39,0.89,0.1,1.36
		c-0.13,0.2-0.31,0.38-0.49,0.54c-3.67,3.31-5.83,7.57-7.58,12.09c-2.45,6.35-3.7,13.01-5.06,19.64c-0.27,1.32-0.59,2.64-0.97,3.94
		c-0.17,0.57-0.47,1.25-1.12,1.34c-0.79,0.11-0.88-0.66-1.11-1.22c-1.21-2.97-2.36-5.96-3.65-8.89
		c-3.24-7.35-7.34-14.23-11.85-20.85c-5.49-8.06-11.82-15.47-18.58-22.48c-6.24-6.47-13.02-12.39-20.02-18.05
		c-11.01-8.92-22.53-17.15-34.11-25.3c-12.69-8.93-25.19-18.11-37.38-27.71c-6-4.72-11.9-9.57-17.82-14.39
		c-1.04-0.85-1.97-1.84-2.91-2.8c-0.12-0.12-0.1-0.5,0-0.68c0.09-0.18,0.37-0.38,0.55-0.37c0.61,0.04,1.25,0.08,1.82,0.29
		c5.21,1.88,10.41,3.77,15.59,5.72c4.61,1.73,9.22,3.46,13.78,5.29c7.31,2.94,14.61,5.91,21.87,8.97
		c8.62,3.63,17.07,7.66,25.45,11.82c8.71,4.32,17.29,8.88,25.75,13.69c7.93,4.51,15.66,9.32,23.28,14.31
		c7.62,4.99,14.96,10.4,22.2,15.93C495.56,285.22,497.2,286.42,496.27,288.72z"/>
	<path class="st3" d="M513.99,347.53c-0.58,3.4-1.45,6.73-2.45,10.04c-1.88,6.22-6.25,10.18-11.73,13.11
		c-1.51,0.81-3.14,1.45-4.78,1.95c-4.69,1.41-8.7-1.51-8.9-6.41c-0.14-3.34,1.16-5.99,3.94-7.87c0.92-0.62,1.84-1.27,2.85-1.71
		c2.75-1.21,4.1-3.41,4.72-6.21c0.87-3.97,1.76-7.93,2.65-11.9c1.11-4.94,2.44-9.8,5.05-14.21c2.16-3.65,4.77-6.84,8.57-8.97
		c3.09-1.74,6.35-2.64,9.89-2.45c3.2,0.17,6.39,0.4,9.59,0.59c4.05,0.24,7.63,1.9,11.04,3.89c2.77,1.62,5.24,3.68,7.4,6.07
		c4.88,5.4,9.43,11.05,13.07,17.39c3.33,5.79,5.05,11.99,5,18.68c-0.01,1.5-0.19,2.94-0.71,4.35c-0.83,2.26-2.76,3.77-4.91,3.83
		c-2.45,0.06-4.82-1.56-5.61-3.97c-0.38-1.16-0.63-2.38-0.81-3.59c-0.74-4.89-2.54-9.23-6.18-12.71c-0.97-0.93-1.79-2.02-2.7-3.03
		c-0.04-0.04-0.22,0.05-0.34,0.07c-0.42,0.19-0.35,0.59-0.34,0.92c0.12,2.46,0.2,4.93,0.4,7.38c0.44,5.2,1.96,10.12,3.97,14.92
		c1.24,2.95,2.32,5.96,3.43,8.96c0.6,1.63,0.85,3.33,0.81,5.08c-0.05,2.26-0.99,4.01-2.9,5.27c-1.25,0.83-2.57,1.45-4.08,1.61
		c-1.59,0.17-3.2,0.49-4.78,0.42c-5.85-0.26-11.51,0.91-17.19,2.08c-2.53,0.52-5.11,0.81-7.68,1.1c-3.99,0.45-7.85-0.28-11.63-1.52
		c-0.7-0.23-1.4-0.51-2.02-0.89c-1.23-0.76-2.02-1.84-1.8-3.37c0.65-4.63,1.35-9.26,2-13.9c0.11-0.81,0.64-1.29,1.16-1.81
		c6.67-6.67,9.09-15.02,9.45-24.16c0.05-1.36-0.06-2.72-0.52-4.01c-0.16-0.44-0.3-1-0.84-1.06c-0.61-0.07-0.79,0.46-0.91,0.95
		c-0.4,1.68-0.78,3.36-1.17,5.03C514,347.46,513.99,347.53,513.99,347.53z"/>
	<path class="st4" d="M366.39,345.11c-2.38-3.78-4.48-7.1-6.56-10.43c-7.6-12.17-13.58-25.13-18.48-38.58
		c-6.2-17.04-10.92-34.51-13.9-52.41c-1.35-8.13-2.14-16.36-3.16-24.54c-0.14-1.1-0.15-2.21-0.18-3.32c-0.02-0.69,0.32-1.15,1-1.34
		c2.02-0.55,4.04-1.1,6.06-1.65c1.46-0.39,1.48-0.37,2.39,0.92c3.97,5.64,7.84,11.35,11.95,16.89
		c8.45,11.37,17.27,22.45,26.78,32.96c5.29,5.84,10.79,11.49,16.2,17.22c0.51,0.54,1.06,1.03,1.56,1.57
		c0.53,0.57,0.34,1.13-0.16,1.6c-0.36,0.34-0.78,0.6-1.16,0.91c-5.44,4.34-8.44,10.17-10.12,16.77c-1.82,7.16-1.28,14.16,1.39,21.03
		c0.81,2.09,2.04,3.93,3.34,5.73c0.43,0.6,0.23,1.15-0.35,1.58c-0.1,0.07-0.2,0.15-0.31,0.2c-5.84,2.57-9.89,7.19-13.81,11.98
		C368.18,343.04,367.46,343.86,366.39,345.11z"/>
	<path class="st4" d="M272.34,159.18c0.19-15.04,5.94-27.52,17.45-37.21c7.33-6.16,15.94-9.05,25.49-9.45
		c8.79-0.37,16.9,1.89,24.26,6.47c7.71,4.79,13.33,11.57,17.19,19.83c4.26,9.1,5.44,18.58,3.98,28.47
		c-1.87,12.63-7.72,23-17.57,31.08c-5.55,4.55-11.99,7.33-19.02,8.46c-10.31,1.66-20.18,0.09-29.2-5.32
		c-10.77-6.46-17.56-16-20.81-28.07C272.6,167.77,272.36,164.88,272.34,159.18z M351.08,160.24c0.1-9.17-2.92-17.19-8.61-24.26
		c-6.31-7.84-14.56-11.93-24.56-12.53c-3.6-0.22-7.07,0.48-10.55,1.47c-4.61,1.31-8.69,3.53-12.21,6.67
		c-14.08,12.51-17.05,33.22-6.34,49.73c5.96,9.19,14.67,14.23,25.39,15.29c8.99,0.89,17.02-2.28,23.86-8.08
		C346.76,181.15,350.65,171.46,351.08,160.24z"/>
	<path class="st4" d="M381.04,74.07c5.45,4.11,9.25,9.3,13.61,13.97c0.34,0.36,0.71,0.69,1.02,1.06c0.6,0.71,0.58,1.43-0.15,1.89
		c-1.25,0.78-2.51,1.56-3.84,2.19c-3.83,1.82-7.95,2.61-12.13,2.96c-7.82,0.65-15.5-0.01-22.85-2.97c-2.51-1.01-4.94-2.22-7.4-3.33
		c-1.23-0.55-2.49-1.06-3.71-1.64c-6.19-2.89-12.58-3.08-19.12-1.52c-0.33,0.08-0.69,0.01-1.04,0.01c-0.49-1.13-0.32-2.25-0.32-3.34
		c-0.05-11.58-0.06-23.16-0.09-34.73c0-0.49,0.03-0.98,0.03-1.48c0-0.84,0.41-1.42,1.21-1.63c1.19-0.32,2.38-0.69,3.59-0.84
		c3.42-0.41,6.85-0.84,10.28-1.05c7.77-0.49,14.85,1.48,21.16,6.16c3.92,2.91,8.37,4.65,13.17,5.47c2.45,0.42,4.91,0.29,7.34-0.21
		c3.02-0.61,6-1.34,8.93-2.31c0.92-0.31,1.46,0.18,1.25,1.08c-1.47,6.32-3.92,12.17-8.21,17.14
		C382.97,71.86,382.16,72.78,381.04,74.07z"/>
	<path class="st5" d="M217.52,331.59c-1.24,1.37-2.3,2.55-3.78,3.27c-3.77,1.86-8.59,0.25-10.38-3.52
		c-0.39-0.81-0.27-1.63,0.46-1.89c4-1.41,4.66-4.75,4.77-8.32c0.06-2.08-0.26-4.18-0.4-6.27c-0.18-2.6-0.05-5.17,0.69-7.69
		c0.53-1.79,1.31-3.46,2.46-4.92c1.33-1.69,2.97-3.04,5.18-3.26c1.83-0.18,3.2-0.99,4.54-2.17c3.22-2.82,6.96-4.58,11.27-5.04
		c4.62-0.49,8.74,0.75,12.53,3.37c9.36,6.46,11.21,17.8,7.94,27.35c-1.93,5.63-5.56,9.77-10.88,12.45c-1,0.5-2.02,0.86-3.12,1.1
		c-6.8,1.52-13.21,0.79-19.12-3.11C219.08,332.57,218.46,332.19,217.52,331.59z"/>
	<path class="st4" d="M407.43,333.18c-3.3,0.17-7.07-0.76-10.65-2.6c-3.5-1.79-6.16-4.51-8.2-7.79
		c-7.22-11.63-3.27-25.78,5.61-32.14c4.83-3.45,10.15-4.85,16.04-4.02c9.78,1.38,18.08,8.49,20.2,18.92
		c1.72,8.5-1.45,19.58-10.26,24.67C416.8,332.18,412.81,333.23,407.43,333.18z"/>
	<path class="st3" d="M539.29,304.78c-0.82,0.04-1.16,0.6-1.64,0.97c-4.34,3.34-9.28,5.27-14.73,4.9
		c-6.43-0.44-11.83-3.1-15.34-8.85c-4.23-6.91-4.69-14.23-1.89-21.63c3.65-9.65,12.83-13.21,21.91-10.54
		c1.17,0.35,2.3,0.85,3.43,1.34c2.59,1.12,5.13,2.28,7.99,2.71c2.93,0.45,5.13,2.2,6.76,4.7c2.15,3.29,2.95,6.99,3.33,10.82
		c0.29,2.94,0.47,5.89,0.7,8.84c0.05,0.61,0.04,1.24,0.15,1.84c0.57,3.15,1.8,5.83,4.94,7.3c1.62,0.76,1.66,1.53,0.48,2.8
		c-0.33,0.36-0.69,0.71-1.08,0.99c-4.47,3.21-11.11,1.6-13.65-3.3c-0.28-0.54-0.48-1.13-0.74-1.69
		C539.7,305.56,539.48,305.15,539.29,304.78z"/>
	<path class="st2" d="M106.18,270.77c16.78-0.26,26.86,16.45,21.5,30.5c-4.13,10.83-13.64,15.45-23.79,13.94
		c-12.31-1.84-19.11-12.15-19.1-22.45c0-3.1,0.59-6.14,1.76-9.02C89.85,275.61,96.76,270.68,106.18,270.77z"/>
	<path class="st3" d="M525.87,397.14c0.52-0.31,1-0.77,1.56-0.92c5.02-1.32,10.13-1.97,15.33-1.73c0.96,0.04,1.58,0.44,1.95,1.37
		c2.63,6.76,5.33,13.48,7.9,20.26c0.91,2.41,1.59,4.91,2.23,7.4c0.49,1.9,0.74,3.86,0.49,5.85c-0.45,3.52-2.65,5.95-6.1,6.41
		c-2.65,0.36-5.12-0.21-7.24-2.01c-1.63-1.38-2.82-3.07-3.84-4.91c-2.1-3.77-3.81-7.72-5.41-11.71c-1.1-2.74-2.07-5.53-3.24-8.24
		c-1.57-3.63-2.69-7.39-3.73-11.18C525.98,397.56,526.01,397.36,525.87,397.14z"/>
	<path class="st5" d="M202.08,466.57c0.11-3.01,0.85-6.64,1.89-10.18c1.74-5.91,3.61-11.78,5.41-17.67
		c0.43-1.41,0.75-2.86,1.16-4.28c0.31-1.09,0.83-1.34,1.95-0.84c4.55,2.03,9.34,3.04,14.25,3.65c1.65,0.2,1.91,0.57,1.44,2.16
		c-1.78,5.89-3.57,11.78-5.4,17.65c-0.99,3.17-2.05,6.32-3.12,9.47c-1.03,3.02-2.97,5.35-5.58,7.16c-1.67,1.16-3.54,1.73-5.53,1.9
		c-2.94,0.25-4.95-1.12-5.95-3.93C202.11,470.24,202.1,468.76,202.08,466.57z"/>
	<path class="st6" d="M312.65,105.14c-0.08-1.22-0.22-2.44-0.22-3.67c-0.03-18.48-0.04-36.95-0.05-55.43c0-3.7,0.54-4.44,3.99-5.58
		c0,0,0.16,0.24,0.16,0.24l0.21-0.2c1.65,0.22,2.83,1.09,3.52,2.6c-0.41,0.94-0.63,1.88,0.25,2.7c-0.05,19.61-0.1,39.23-0.15,58.84
		c-0.9,0.36-1.83,0.32-2.78,0.32C315.94,104.97,314.29,105.08,312.65,105.14z"/>
	<path class="st5" d="M254.32,449.21c0.11,3.23-0.26,6.37-1.68,9.34c-1.11,2.31-2.71,4.07-5.14,5.02c-2.57,1-5.28,0.25-6.87-2
		c-0.79-1.11-1.34-2.34-1.56-3.71c-1.02-6.33-2.58-12.52-4.54-18.62c-0.45-1.41-0.16-1.83,1.32-1.83c5.12,0.02,9.97-1.32,14.8-2.79
		c1.14-0.35,1.62-0.08,1.82,1.07C253.21,440.18,254.22,444.63,254.32,449.21z"/>
	<path class="st4" d="M424.68,445.71c0.74,1.88,1.46,3.7,2.16,5.52c1.32,3.43,2.65,6.87,3.92,10.32c0.85,2.3,1.58,4.64,1.66,7.14
		c0.07,1.98-0.2,3.89-0.8,5.8c-1.18,3.75-5.23,5.96-9.52,4.67c-3.48-1.05-5.78-3.58-7.41-6.76c-0.36-0.71-0.24-1.41,0.05-2.12
		c0.99-2.51,1.96-5.03,2.94-7.54c1.82-4.69,3.62-9.38,5.44-14.07C423.5,447.65,423.66,446.54,424.68,445.71z"/>
	<path class="st3" d="M515.15,406.67c0.1-2.46,0.18-4.92,0.3-7.37c0.03-0.69,0.44-1.17,1.15-1.19c1.47-0.04,2.95-0.04,4.43-0.01
		c0.87,0.01,1.22,0.56,1.46,1.36c1.89,6.36,4.01,12.64,6.72,18.7c0.45,1.01,0.78,2.08,1.33,3.04c1.1,1.94,0.56,3.46-0.88,4.97
		c-2.65,2.78-6.37,3.07-9.21,0.53c-2.67-2.39-4.08-5.49-4.67-8.99C515.15,414.05,515.05,410.36,515.15,406.67z"/>
	<path class="st2" d="M312.65,105.14c1.64-0.06,3.29-0.17,4.93-0.17c0.95,0,1.88,0.03,2.78-0.32c-0.09,0.33-0.15,0.93-0.28,0.94
		c-2.41,0.25-4.83,0.28-7.23-0.15C312.77,105.42,312.72,105.24,312.65,105.14z"/>
	<path class="st2" d="M320.51,45.8c-0.88-0.83-0.66-1.76-0.25-2.7C320.96,43.95,320.78,44.87,320.51,45.8z"/>
	<path class="st2" d="M586.54,447.31c-0.21-0.51-0.26-0.99,0.18-1.41C586.66,446.37,586.6,446.84,586.54,447.31z"/>
	<path class="st2" d="M525.87,397.14c0.14,0.23,0.11,0.43-0.1,0.6C525.65,397.5,525.68,397.31,525.87,397.14z"/>
	<path class="st5" d="M202.58,436.11c0.05-0.1,0.08-0.23,0.17-0.3c0.24-0.19,0.5-0.36,0.76-0.54c0.05,0.32,0.15,0.64,0.13,0.96
		c-0.01,0.2-0.21,0.39-0.33,0.58C203.06,436.57,202.82,436.34,202.58,436.11z"/>
	<path class="st3" d="M503.98,546.89c0.27-0.6,0.83-0.79,1.4-0.95C504.91,546.26,504.44,546.57,503.98,546.89z"/>
	<path class="st3" d="M506.94,544.58c0.28-0.26,0.56-0.52,0.84-0.77C507.67,544.25,507.35,544.46,506.94,544.58z"/>
	<path class="st3" d="M506.18,545.25c0.28-0.24,0.55-0.48,0.83-0.72C506.74,544.77,506.46,545.01,506.18,545.25z"/>
	<path class="st3" d="M505.42,545.91c0.25-0.22,0.51-0.44,0.76-0.66C505.93,545.46,505.68,545.69,505.42,545.91z"/>
	<path class="st2" d="M316.74,40.5l-0.21,0.2c0,0-0.17-0.24-0.16-0.24C316.53,40.05,316.66,40.07,316.74,40.5z"/>
	<path class="st2" d="M513.99,347.53c0,0,0.01-0.07,0.01-0.07C514,347.46,513.99,347.53,513.99,347.53z"/>
	<path class="st7" d="M351.08,160.24c-0.43,11.22-4.32,20.91-13.02,28.28c-6.85,5.8-14.88,8.97-23.86,8.08
		c-10.72-1.06-19.43-6.1-25.39-15.29c-10.71-16.51-7.74-37.22,6.34-49.73c3.53-3.13,7.6-5.36,12.21-6.67
		c3.48-0.99,6.94-1.68,10.55-1.47c10,0.6,18.25,4.69,24.56,12.53C348.16,143.05,351.19,151.07,351.08,160.24z M341.44,159.06
		c0.2-4.44-1.42-9.38-4.3-14c-8.42-13.52-27.2-15.67-38.26-3.22c-8.02,9.02-8.85,19.61-4.03,30.37
		c3.87,8.64,10.83,13.55,20.54,13.86c5.94,0.19,11.43-1.13,16.2-5.01C338.27,175.61,341.42,168.62,341.44,159.06z"/>
	<path class="st4" d="M341.44,159.06c-0.02,9.56-3.17,16.55-9.85,21.99c-4.77,3.89-10.27,5.2-16.2,5.01
		c-9.71-0.3-16.67-5.21-20.54-13.86c-4.82-10.76-3.99-21.35,4.03-30.37c11.06-12.44,29.84-10.3,38.26,3.22
		C340.02,149.68,341.64,154.61,341.44,159.06z M332.46,160.29c0.1-4.72-1.54-8.69-4.6-11.9c-8.1-8.51-19.88-5.22-24.35,2.46
		c-3.5,6.02-3.74,14.55,2.3,20.9c4.17,4.38,9.3,6.15,15.43,4.03C328.08,173.4,332.47,167.46,332.46,160.29z"/>
	<path class="st7" d="M332.46,160.29c0,7.18-4.38,13.11-11.22,15.48c-6.13,2.13-11.26,0.35-15.43-4.03
		c-6.03-6.34-5.8-14.88-2.3-20.9c4.47-7.68,16.24-10.97,24.35-2.46C330.92,151.6,332.56,155.56,332.46,160.29z M324.33,160.11
		c0.02-4.4-3.35-7.87-7.6-7.83c-4.24,0.05-7.16,3.18-7.19,7.71c-0.03,4.44,3.33,7.93,7.52,7.91
		C320.5,167.89,324.6,164.47,324.33,160.11z"/>
	<path class="st4" d="M324.33,160.11c0.27,4.36-3.83,7.78-7.27,7.8c-4.19,0.02-7.55-3.47-7.52-7.91c0.03-4.53,2.95-7.66,7.19-7.71
		C320.98,152.24,324.35,155.71,324.33,160.11z"/>
</g>
</svg>
